<?xml version="1.0" encoding="UTF-8"?>
<svg width="140px" height="90px" viewBox="0 0 140 90" version="1.1" xmlns="http://www.w3.org/2000/svg" xmlns:xlink="http://www.w3.org/1999/xlink">
    <!-- Generator: Sketch 43 (38999) - http://www.bohemiancoding.com/sketch -->
    <title>礼金券</title>
    <desc>Created with Sketch.</desc>
    <defs>
        <path d="M0,17.7693596 L0,4.0065556 C0,1.79379604 1.79563232,0 4.00159832,0 L93.4998169,0 C93.9559201,0.607223351 94.6820911,1 95.5,1 C96.3179089,1 97.0440799,0.607223351 97.5001831,1.9506341e-12 L135.998402,0 C138.208423,0 140,1.79568082 140,4.0065556 L140,17.1405151 C135.217587,19.9069937 132,25.077743 132,31 C132,36.922257 135.217587,42.0930063 139.999996,44.8594823 L140,55.9934444 C140,58.206204 138.204368,60 135.998402,60 L97.5001831,60 C97.0440799,59.3927766 96.3179089,59 95.5,59 C94.6820911,59 93.9559201,59.3927766 93.4998169,60 L4.00159832,60 C1.79157659,60 0,58.2043192 0,55.9934444 L0,44.2306404 C4.22554142,41.350687 7,36.4993482 7,31 C7,25.5006518 4.22554142,20.649313 4.29722924e-12,17.7693596 Z" id="path-1"></path>
    </defs>
    <g id="Page-1" stroke="none" stroke-width="1" fill="none" fill-rule="evenodd">
        <g id="为空规范" transform="translate(-2815.000000, -331.000000)">
            <g id="Group-4" transform="translate(2815.000000, 331.000000)">
                <g id="Group-22" transform="translate(0.000000, 30.000000)">
                    <g id="Combined-Shape">
                        <use fill="#FFDDBB" fill-rule="evenodd" xlink:href="#path-1"></use>
                        <path stroke="#FF8833" stroke-width="1" d="M0.5,17.5076129 L0.5,4.0065556 C0.5,2.07127968 2.07043422,0.5 4.00159832,0.5 L93.2638224,0.5 C93.8262398,1.128922 94.6326692,1.5 95.5,1.5 C96.3673308,1.5 97.1737602,1.128922 97.7361776,0.5 L135.998402,0.5 C137.931456,0.5 139.5,2.07099746 139.5,4.0065556 L139.5,16.8550349 C134.581094,19.8159778 131.5,25.1398334 131.5,31 C131.5,36.8601658 134.581093,42.1840217 139.499996,45.1449625 L139.5,55.9934446 C139.5,57.9287203 137.929566,59.5 135.998402,59.5 L97.7361776,59.5 C97.1737602,58.871078 96.3673308,58.5 95.5,58.5 C94.6326692,58.5 93.8262398,58.871078 93.2638224,59.5 L4.00159832,59.5 C2.06854399,59.5 0.5,57.9290025 0.5,55.9934444 L0.5,44.4923871 C4.85148728,41.4239491 7.5,36.4355342 7.5,31 C7.5,25.5644658 4.85148728,20.5760509 0.5,17.5076129 Z"></path>
                    </g>
                    <path d="M102,42 L123,42 L123,44 L102,44 L102,42 Z M102,45 L123,45 L123,46 L102,46 L102,45 Z M102,36 L123,36 L123,41 L102,41 L102,36 Z M102,33 L123,33 L123,35 L102,35 L102,33 Z M102,31 L123,31 L123,32 L102,32 L102,31 Z M102,29 L123,29 L123,30 L102,30 L102,29 Z M102,25 L123,25 L123,28 L102,28 L102,25 Z M102,22 L123,22 L123,24 L102,24 L102,22 Z M102,20 L123,20 L123,21 L102,21 L102,20 Z M102,18 L123,18 L123,19 L102,19 L102,18 Z M102,14 L123,14 L123,17 L102,17 L102,14 Z" id="Combined-Shape" fill="#FF8833"></path>
                    <polygon id="Rectangle-46" fill="#FF8833" points="95 2 96 2 96 59 95 59"></polygon>
                    <rect id="Rectangle-47" fill="#FFFFFF" x="16" y="14" width="72" height="32" rx="2"></rect>
                    <text id="¥" font-family="PingFangHK-Semibold, PingFang HK" font-size="14" font-weight="500" fill="#FF8833">
                        <tspan x="24" y="37">¥</tspan>
                    </text>
                    <text id="0.00" font-family="PingFangHK-Semibold, PingFang HK" font-size="22" font-weight="500" fill="#FF9800">
                        <tspan x="34" y="38">0.00</tspan>
                    </text>
                    <text id="1203189" transform="translate(127.000000, 29.000000) scale(-1, -1) rotate(90.000000) translate(-127.000000, -29.000000) " font-family="PingFangHK-Semibold, PingFang HK" font-size="4" font-weight="500" letter-spacing="2.79999995" fill="#FF8833">
                        <tspan x="109.5" y="30.5">120318</tspan>
                        <tspan x="139.18" y="30.5">9</tspan>
                    </text>
                </g>
            </g>
        </g>
    </g>
</svg>