<?xml version="1.0" encoding="UTF-8"?>
<svg width="14px" height="14px" viewBox="0 0 14 14" version="1.1" xmlns="http://www.w3.org/2000/svg" xmlns:xlink="http://www.w3.org/1999/xlink">
    <!-- Generator: Sketch 50 (54983) - http://www.bohemiancoding.com/sketch -->
    <title>蓝色_多选_已选</title>
    <desc>Created with Sketch.</desc>
    <defs></defs>
    <g id="Page-1" stroke="none" stroke-width="1" fill="none" fill-rule="evenodd">
        <g id="Artboard" transform="translate(-380.000000, -333.000000)">
            <g id="蓝色_多选_已选" transform="translate(380.000000, 333.000000)">
                <path d="M0,2.00585866 C0,0.898053512 0.897060126,0 2.00585866,0 L11.9941413,0 C13.1019465,0 14,0.897060126 14,2.00585866 L14,11.9941413 C14,13.1019465 13.1029399,14 11.9941413,14 L2.00585866,14 C0.898053512,14 0,13.1029399 0,11.9941413 L0,2.00585866 Z" id="Combined-Shape" fill="#3B99FF"></path>
                <path d="M5.08028469,10.7145739 C5.4724798,11.095142 6.10835371,11.095142 6.50054882,10.7145739 L11.7058537,5.66358517 C12.0980488,5.28301705 12.0980488,4.66599421 11.7058537,4.28542609 C11.3136586,3.90485797 10.6777846,3.90485797 10.2855895,4.28542609 L5.81091309,8.65759277 L3.71441046,6.63287415 C3.32221535,6.25230602 2.68634144,6.25230602 2.29414633,6.63287415 C1.90195122,7.01344227 1.90195122,7.6304651 2.29414633,8.01103322 L5.08028469,10.7145739 Z" id="Path-14" fill="#FFFFFF"></path>
            </g>
        </g>
    </g>
</svg>