<?xml version="1.0" encoding="UTF-8"?>
<svg width="14px" height="14px" viewBox="0 0 14 14" version="1.1" xmlns="http://www.w3.org/2000/svg" xmlns:xlink="http://www.w3.org/1999/xlink">
    <!-- Generator: Sketch 50 (54983) - http://www.bohemiancoding.com/sketch -->
    <title>蓝色_多选_Hover</title>
    <desc>Created with Sketch.</desc>
    <defs></defs>
    <g id="Page-1" stroke="none" stroke-width="1" fill="none" fill-rule="evenodd">
        <g id="Artboard" transform="translate(-282.000000, -333.000000)">
            <g id="蓝色_多选_Hover" transform="translate(282.000000, 333.000000)">
                <path d="M0,2.00585866 C0,0.898053512 0.897060126,0 2.00585866,0 L11.9941413,0 C13.1019465,0 14,0.897060126 14,2.00585866 L14,11.9941413 C14,13.1019465 13.1029399,14 11.9941413,14 L2.00585866,14 C0.898053512,14 0,13.1029399 0,11.9941413 L0,2.00585866 Z" fill="#F0F7FF"></path>
                <path d="M1,2.00585866 L1,11.9941413 C1,12.5502354 1.44991848,13 2.00585866,13 L11.9941413,13 C12.5502354,13 13,12.5500815 13,11.9941413 L13,2.00585866 C13,1.44976457 12.5500815,1 11.9941413,1 L2.00585866,1 C1.44976457,1 1,1.44991848 1,2.00585866 Z M0,2.00585866 C0,0.898053512 0.897060126,0 2.00585866,0 L11.9941413,0 C13.1019465,0 14,0.897060126 14,2.00585866 L14,11.9941413 C14,13.1019465 13.1029399,14 11.9941413,14 L2.00585866,14 C0.898053512,14 0,13.1029399 0,11.9941413 L0,2.00585866 Z" id="蓝色_多选_Hover-Copy" fill="#3B99FF" fill-rule="nonzero"></path>
            </g>
        </g>
    </g>
</svg>