<?xml version="1.0" encoding="UTF-8"?>
<svg width="14px" height="14px" viewBox="0 0 14 14" version="1.1" xmlns="http://www.w3.org/2000/svg" xmlns:xlink="http://www.w3.org/1999/xlink">
    <!-- Generator: Sketch 50 (54983) - http://www.bohemiancoding.com/sketch -->
    <title>橙色_多选_已选</title>
    <desc>Created with Sketch.</desc>
    <defs></defs>
    <g id="Page-1" stroke="none" stroke-width="1" fill="none" fill-rule="evenodd">
        <g id="Artboard" transform="translate(-380.000000, -247.000000)">
            <g id="橙色_多选_已选" transform="translate(380.000000, 247.000000)">
                <path d="M0,2.00585866 C0,0.898053512 0.897060126,0 2.00585866,0 L11.9941413,0 C13.1019465,0 14,0.897060126 14,2.00585866 L14,11.9941413 C14,13.1019465 13.1029399,14 11.9941413,14 L2.00585866,14 C0.898053512,14 0,13.1029399 0,11.9941413 L0,2.00585866 Z" id="Rectangle-Copy-19" fill="#FF8833"></path>
                <path d="M11.69725,4.294 C11.29825,3.902 10.65025,3.902 10.25125,4.294 L5.91325,8.555 L3.74525,6.425 C3.34525,6.032 2.69825,6.032 2.29925,6.425 C1.90025,6.817 1.90025,7.453 2.29925,7.845 L5.19125,10.686 C5.59025,11.079 6.23725,11.079 6.63625,10.686 L11.69725,5.714 C12.09625,5.322 12.09625,4.686 11.69725,4.294" id="Fill-1-Copy" fill="#FEFEFE"></path>
            </g>
        </g>
    </g>
</svg>