<?xml version="1.0" encoding="UTF-8"?>
<svg width="190px" height="150px" viewBox="0 0 190 150" version="1.1" xmlns="http://www.w3.org/2000/svg" xmlns:xlink="http://www.w3.org/1999/xlink">
    <!-- Generator: Sketch 43 (38999) - http://www.bohemiancoding.com/sketch -->
    <title>子账号管理</title>
    <desc>Created with Sketch.</desc>
    <defs>
        <path d="M0,5.99891221 C0,2.68580448 2.69193253,0 5.99611244,0 L80.0038876,0 C83.315449,0 86,2.68019199 86,5.99891221 L86,39.0010878 C86,42.3141955 83.3080675,45 80.0038876,45 L5.99611244,45 C2.68455098,45 0,42.319808 0,39.0010878 L0,5.99891221 Z" id="path-1"></path>
        <circle id="path-2" cx="12.5" cy="12.5" r="12.5"></circle>
        <path d="M0,5.99298096 C0,2.68314897 2.67986017,0 5.99842118,0 L64.0015788,0 C67.3144154,0 70,2.6821302 70,5.99298096 L70,50.007019 C70,53.316851 67.3201398,56 64.0015788,56 L5.99842118,56 C2.68558464,56 0,53.3178698 0,50.007019 L0,5.99298096 Z" id="path-4"></path>
        <ellipse id="path-5" cx="11" cy="11" rx="11" ry="11"></ellipse>
        <rect id="path-7" x="6" y="0" width="58" height="44" rx="10"></rect>
        <path d="M0,7.00158775 C0,3.68700236 2.67986017,1 5.99842118,1 L64.0015788,1 C67.3144154,1 70,3.68984258 70,7.00158775 L70,37.9984123 C70,41.3129976 67.3201398,44 64.0015788,44 L5.99842118,44 C2.68558464,44 0,41.3101574 0,37.9984123 L0,7.00158775 Z" id="path-8"></path>
        <ellipse id="path-10" cx="21.5" cy="21.5" rx="21.5" ry="21.5"></ellipse>
    </defs>
    <g id="Page-1" stroke="none" stroke-width="1" fill="none" fill-rule="evenodd">
        <g id="为空规范" transform="translate(-1620.000000, -508.000000)">
            <g id="Group-11" transform="translate(1620.000000, 508.000000)">
                <g id="Group-11-Copy" transform="translate(2.000000, 26.000000)">
                    <g id="Group-10" transform="translate(0.000000, 50.000000)">
                        <g id="Rectangle-20">
                            <use fill="#FFFFFF" fill-rule="evenodd" xlink:href="#path-1"></use>
                            <path stroke="#FF8833" stroke-width="1" d="M0.5,5.99891221 C0.5,2.96453815 2.96548265,0.5 5.99611244,0.5 L80.0038876,0.5 C83.0412655,0.5 85.5,2.95829287 85.5,5.99891221 L85.5,39.0010878 C85.5,42.0354618 83.0345174,44.5 80.0038876,44.5 L5.99611244,44.5 C2.95873451,44.5 0.5,42.0417071 0.5,39.0010878 L0.5,5.99891221 Z"></path>
                        </g>
                        <rect id="Rectangle-3" fill="#FFDDBB" x="46" y="12" width="15" height="6" rx="1.5"></rect>
                        <rect id="Rectangle-3-Copy-3" fill="#FFDDBB" x="46" y="31" width="25" height="3" rx="1"></rect>
                        <g id="Combined-Shape" transform="translate(9.000000, 10.000000)">
                            <mask id="mask-3" fill="white">
                                <use xlink:href="#path-2"></use>
                            </mask>
                            <g id="Mask">
                                <use fill="#FFDDBB" fill-rule="evenodd" xlink:href="#path-2"></use>
                                <circle stroke="#FF8833" stroke-width="1" cx="12.5" cy="12.5" r="13"></circle>
                            </g>
                            <path d="M14,17.6585886 C15.2663742,17.0617898 16.2725782,15.7306403 16.7308022,14.0488862 C17.0194557,14.1001561 17.3752461,13.7002621 17.538077,13.1324035 C17.7062919,12.5457683 17.6048762,12.002024 17.3115586,11.9179166 C17.2131875,11.8897091 17.1057252,11.916782 16.9999886,11.9873573 C16.9940327,8.68200245 14.6525307,7 12.5,7 C10.349433,7 8.01023946,8.67893483 8.00003352,11.9783148 C7.89881395,11.9145114 7.79645094,11.8909474 7.70239846,11.9179166 C7.40908088,12.002024 7.30766514,12.5457683 7.47588007,13.1324035 C7.63620045,13.6915071 7.9835763,14.0877854 8.26975686,14.0509369 C8.72823987,15.7317223 9.73414056,17.0620324 11,17.6585886 L11,18.1177517 C6.46602153,18.8369254 3,22.7636963 3,27.5 C3,32.7467051 7.25329488,37 12.5,37 C17.7467051,37 22,32.7467051 22,27.5 C22,22.7636963 18.5339785,18.8369254 14,18.1177517 L14,17.6585886 Z" fill="#FFFFFF" mask="url(#mask-3)"></path>
                        </g>
                        <rect id="Rectangle-3-Copy-2" fill="#FFDDBB" x="46" y="26" width="30" height="3" rx="1"></rect>
                        <rect id="Rectangle-3-Copy-4" fill="#FFDDBB" x="46" y="21" width="30" height="3" rx="1"></rect>
                    </g>
                    <g id="Group-10-Copy" transform="translate(116.000000, 13.000000)">
                        <g id="Rectangle-20">
                            <use fill="#FFFFFF" fill-rule="evenodd" xlink:href="#path-4"></use>
                            <path stroke="#FF8833" stroke-width="1" d="M0.5,5.99298096 C0.5,2.95734252 2.95795187,0.5 5.99842118,0.5 L64.0015788,0.5 C67.0387398,0.5 69.5,2.9587392 69.5,5.99298096 L69.5,50.007019 C69.5,53.0426575 67.0420481,55.5 64.0015788,55.5 L5.99842118,55.5 C2.96126016,55.5 0.5,53.0412608 0.5,50.007019 L0.5,5.99298096 Z"></path>
                        </g>
                        <rect id="Rectangle-3" fill="#FFDDBB" x="21" y="36" width="28" height="6" rx="1.5"></rect>
                        <g id="Combined-Shape" transform="translate(24.000000, 9.000000)">
                            <mask id="mask-6" fill="white">
                                <use xlink:href="#path-5"></use>
                            </mask>
                            <g id="Mask">
                                <use fill="#FFDDBB" fill-rule="evenodd" xlink:href="#path-5"></use>
                                <ellipse stroke="#FF8833" stroke-width="1" cx="11" cy="11" rx="11.5" ry="11.5"></ellipse>
                            </g>
                            <path d="M12.32,15.539558 C13.4344093,15.0143751 14.3198688,13.8429634 14.7231059,12.3630198 C14.977121,12.4081374 15.2902166,12.0562307 15.4335077,11.5565151 C15.5815369,11.0402761 15.492291,10.5617811 15.2341716,10.4877666 C15.1476049,10.462944 15.0530379,10.4867682 14.9599896,10.5488747 C14.954532,7.64014921 12.8089622,6.15487061 11,6.15487061 C9.192688,6.15487061 7.04938236,7.63744056 7.04003071,10.5409178 C6.9509571,10.4847703 6.86087721,10.4640336 6.77811064,10.4877666 C6.51999118,10.5617811 6.43074533,11.0402761 6.57877446,11.5565151 C6.7198564,12.0485263 7.02554714,12.3972511 7.27738603,12.3648245 C7.68085109,13.8439157 8.5660437,15.0145885 9.68,15.539558 L9.68,15.9436215 C5.69009894,16.5764944 2.64,20.0320528 2.64,24.2 C2.64,28.8171005 6.38289949,32.56 11,32.56 C15.6171005,32.56 19.36,28.8171005 19.36,24.2 C19.36,20.0320528 16.3099011,16.5764944 12.32,15.9436215 L12.32,15.539558 Z" fill="#FFFFFF" mask="url(#mask-6)"></path>
                        </g>
                        <rect id="Rectangle-3-Copy-2" fill="#FFDDBB" x="21" y="44" width="28" height="3" rx="1"></rect>
                    </g>
                    <g id="Group-10-Copy-2" transform="translate(10.000000, 0.000000)">
                        <g id="Combined-Shape">
                            <g id="Mask-Copy">
                                <use fill="#FFFFFF" fill-rule="evenodd" xlink:href="#path-7"></use>
                                <rect stroke="#FF8833" stroke-width="1" x="6.5" y="0.5" width="57" height="43" rx="10"></rect>
                            </g>
                            <mask id="mask-9" fill="white">
                                <use xlink:href="#path-8"></use>
                            </mask>
                            <g id="Mask"></g>
                            <g mask="url(#mask-9)">
                                <g transform="translate(14.000000, 8.000000)">
                                    <mask id="mask-11" fill="white">
                                        <use xlink:href="#path-10"></use>
                                    </mask>
                                    <g id="Mask" stroke="none" fill="none">
                                        <use fill="#FFDDBB" fill-rule="evenodd" xlink:href="#path-10"></use>
                                        <ellipse stroke="#FF8833" stroke-width="1" cx="21.5" cy="21.5" rx="22" ry="22"></ellipse>
                                    </g>
                                    <path d="M24.5933333,28.9512116 C27.2048784,27.7204799 29.2798946,24.9753537 30.2248543,21.5072031 C30.820122,21.6129331 31.5538409,20.7882628 31.8896343,19.6172121 C32.2365308,18.40744 32.0273891,17.2861184 31.422503,17.1126701 C31.2196404,17.0545002 30.9980296,17.1103301 30.7799777,17.2558716 C30.7683236,10.4400721 26.1866549,7.1975 21.5,7.1975 C16.8176216,7.1975 12.2400378,10.4341572 12.2200656,17.2372226 C12.0113295,17.1056475 11.8002355,17.0570541 11.6062795,17.1126701 C11.0013935,17.2861184 10.7922517,18.40744 11.1391482,19.6172121 C11.4697645,20.770208 12.1861307,21.5874218 12.7762986,21.5114321 C13.7217924,24.9775852 15.7961832,27.7209802 18.4066667,28.9512116 L18.4066667,29.898108 C9.0565955,31.3812039 1.90888889,39.4790782 1.90888889,49.2463889 C1.90888889,60.0662608 10.6801281,68.8375 21.5,68.8375 C32.3198719,68.8375 41.0911111,60.0662608 41.0911111,49.2463889 C41.0911111,39.4790782 33.9434045,31.3812039 24.5933333,29.898108 L24.5933333,28.9512116 Z" id="Combined-Shape" stroke="none" fill="#FFFFFF" fill-rule="evenodd" mask="url(#mask-11)"></path>
                                </g>
                            </g>
                        </g>
                    </g>
                    <path d="M55.1753132,102.892559 C64.661476,112.886954 78.0731603,119.119113 92.9404433,119.119113 C119.68467,119.119113 141.718705,98.9523876 144.665205,72.9962795 M110.36078,17.9860744 C104.914104,16.0524976 99.0501856,15 92.9404433,15 C89.2730767,15 85.6942801,15.3792137 82.2411261,16.1005685" id="Oval-12" stroke="#FF8833" stroke-width="2" stroke-linecap="round" stroke-linejoin="round"></path>
                    <ellipse id="Oval-13" stroke="#FF8833" fill="#FFDDBB" cx="120.5" cy="106.5" rx="16.5" ry="16.5"></ellipse>
                    <g id="Group-3" transform="translate(121.000000, 107.000000) rotate(43.000000) translate(-121.000000, -107.000000) translate(117.000000, 97.000000)" stroke="#FF8833" stroke-width="2" stroke-linecap="round" stroke-linejoin="round">
                        <path d="M7.39697266,13.6823623 L7.39697266,16.1978033 C7.39697266,18.1528856 5.87227872,19.737793 4,19.737793 L4,19.737793 C2.12390381,19.737793 0.603027344,18.1496957 0.603027344,16.1910192 L0.603027344,11.776266 L0.603027344,11.776266 C0.603027344,9.8174369 2.12267165,8.22949219 4,8.22949219 L4,8.22949219 L4,8.22949219" id="Rectangle-23"></path>
                        <path d="M0.603027344,6.31763768 L0.603027344,3.80219673 C0.603027344,1.84711441 2.12772128,0.262207031 4,0.262207031 L4,0.262207031 C5.87609619,0.262207031 7.39697266,1.85030433 7.39697266,3.80898081 L7.39697266,8.22373404 L7.39697266,8.22373404 C7.39697266,10.1825631 5.87732835,11.7705078 4,11.7705078 L4,11.7705078 L4,11.7705078" id="Rectangle-23-Copy"></path>
                    </g>
                </g>
            </g>
        </g>
    </g>
</svg>