<?xml version="1.0" encoding="UTF-8"?>
<svg width="24px" height="24px" viewBox="0 0 24 24" version="1.1" xmlns="http://www.w3.org/2000/svg" xmlns:xlink="http://www.w3.org/1999/xlink">
    <!-- Generator: Sketch 50 (54983) - http://www.bohemiancoding.com/sketch -->
    <title>more</title>
    <desc>Created with Sketch.</desc>
    <defs></defs>
    <g id="前端开发用" stroke="none" stroke-width="1" fill="none" fill-rule="evenodd">
        <g id="通用基础组件_03" transform="translate(-638.000000, -5344.000000)">
            <g id="隐藏页标记-copy-4" transform="translate(638.000000, 5344.000000)">
                <rect id="Rectangle-Copy-37" fill="#FFFFFF" opacity="0" x="0" y="0" width="24" height="24"></rect>
                <path d="M6.00000003,13.5 C5.17157289,13.5 4.5,12.8284271 4.5,12 C4.5,11.1715729 5.17157289,10.5 6.00000003,10.5 C6.82842716,10.5 7.50000005,11.1715729 7.50000005,12 C7.50000005,12.8284271 6.82842716,13.5 6.00000003,13.5 Z M12,13.5 C11.1715729,13.5 10.5,12.8284271 10.5,12 C10.5,11.1715729 11.1715729,10.5 12,10.5 C12.8284272,10.5 13.5000001,11.1715729 13.5000001,12 C13.5000001,12.8284271 12.8284272,13.5 12,13.5 Z M18,13.5 C17.1715729,13.5 16.5,12.8284271 16.5,12 C16.5,11.1715729 17.1715729,10.5 18,10.5 C18.8284272,10.5 19.5000001,11.1715729 19.5000001,12 C19.5000001,12.8284271 18.8284272,13.5 18,13.5 Z" id="Combined-Shape" fill="#999999"></path>
            </g>
        </g>
    </g>
</svg>