<?xml version="1.0" encoding="utf-8"?>
<!-- Generator: Adobe Illustrator 21.0.2, SVG Export Plug-In . SVG Version: 6.00 Build 0)  -->
<svg version="1.1" id="图层_1" xmlns="http://www.w3.org/2000/svg" xmlns:xlink="http://www.w3.org/1999/xlink" x="0px" y="0px"
	 viewBox="0 0 150 150" style="enable-background:new 0 0 150 150;" xml:space="preserve">
<style type="text/css">
	.st0{fill:#FAFAFA;}
	.st1{fill:#F29802;}
	.st2{fill:#FFF3DF;}
	.st3{fill:#FFFFFF;}
	.st4{filter:url(#Adobe_OpacityMaskFilter);}
	.st5{mask:url(#mask-2);fill:#FFF3DF;}
</style>
<rect id="BG" y="0" class="st0" width="150" height="150"/>
<path id="头发" class="st1" d="M33.8,60.3c0-18.2,12.2-47.8,41.8-47.8s41.8,29.6,41.8,47.8c0,0-2.4,26.2-1.4,42.3
	s6.9,39.5,6.9,39.5c0.3,1.1-0.4,1.7-1.5,1.5c0,0-24.9-5.6-45.9-5.6s-45.9,5.6-45.9,5.6c-1.1,0.2-1.8-0.5-1.5-1.5
	c0,0,6.1-26.7,6.9-39.5C36,89.7,33.8,60.3,33.8,60.3z"/>
<path id="身体" class="st2" d="M23.4,146.9c0-17.3,0-23.7,44.1-32.8h13.5c44.1,8.7,44.1,15.1,44.1,32.8v3.1H23.4V146.9z"/>
<path id="身体轮廓" class="st1" d="M67.7,117.3c-8.4,1.7-15,3.3-20.4,4.9c-18.8,5.6-20.9,8.6-20.9,24.7v3.1h-1.6h98.5h-1.6v-3.1
	c0-16.8-2.2-19.8-23.1-25.5c-4.9-1.3-10.9-2.7-18.2-4.1H67.7z M23.4,146.9c0-17.3,0-23.7,44.1-32.8h13.5
	c44.1,8.7,44.1,15.1,44.1,32.8v3.1H23.4V146.9z"/>
<path id="脖子" class="st3" d="M65.2,116.7l-12,3.4c0,0,0.5,14.9,20.9,14.9s20.9-14.9,20.9-14.9l-12-3.4V99.2H65.2V116.7z"/>
<path id="脖子轮廓" class="st1" d="M58.6,125.8c2.7,3.8,7.6,6.2,15.6,6.2s12.8-2.3,15.6-6.2c0.8-1.1,1.4-2.3,1.7-3.4L80,119
	v-16.7H68.3V119l-11.5,3.3C57.3,123.5,57.8,124.7,58.6,125.8z M65.2,116.7V99.2h17.9v17.5l12,3.4c0,0-0.5,14.9-20.9,14.9
	s-20.9-14.9-20.9-14.9L65.2,116.7z"/>
<g id="脸" transform="translate(33.831522, 35.815217)">
	<g id="Mask-Copy">
		<path id="path-1_1_" class="st3" d="M72.8,50.1c-3.5,12.5-12.2,22.8-31.4,22.8C22,72.9,13.3,62.5,9.8,49.8
			c-2.8-0.9-7.1-3.3-8.6-7.1c-2-5.1,2.8-4.8,2.8-4.8c2.8,0.6,3.9,2.4,4.2,3.1C8,38.5,7.9,36,7.9,33.5C7.9,15,4.2,0,41.4,0
			s33.5,15,33.5,33.5c0,3.1-0.2,6.3-0.6,9.4c0.5-0.9,0.9-1.6,0.9-1.6s0.9-2.6,4.3-3.3c0,0,4.8-0.3,2.8,4.8
			C80.6,47,75.5,49.5,72.8,50.1z"/>
	</g>
	<defs>
		<filter id="Adobe_OpacityMaskFilter" filterUnits="userSpaceOnUse" x="40.7" y="48.1" width="33.2" height="27.2">
			<feColorMatrix  type="matrix" values="1 0 0 0 0  0 1 0 0 0  0 0 1 0 0  0 0 0 1 0"/>
		</filter>
	</defs>
	<mask maskUnits="userSpaceOnUse" x="40.7" y="48.1" width="33.2" height="27.2" id="mask-2">
		<g class="st4">
			<path id="path-1" class="st3" d="M72.8,50.1c-3.5,12.5-12.2,22.8-31.4,22.8C22,72.9,13.3,62.5,9.8,49.8c-2.8-0.9-7.1-3.3-8.6-7.1
				c-2-5.1,2.8-4.8,2.8-4.8c2.8,0.6,3.9,2.4,4.2,3.1C8,38.5,7.9,36,7.9,33.5C7.9,15,4.2,0,41.4,0s33.5,15,33.5,33.5
				c0,3.1-0.2,6.3-0.6,9.4c0.5-0.9,0.9-1.6,0.9-1.6s0.9-2.6,4.3-3.3c0,0,4.8-0.3,2.8,4.8C80.6,47,75.5,49.5,72.8,50.1z"/>
		</g>
	</mask>
	<path id="Path-6" class="st5" d="M40.7,72.5c0,0,0.1,0,0.4-0.1c2.6-0.6,17.4-4.7,24.4-24.4l8.4,6.7l-9.7,15.9l-15.4,4.5"/>
</g>
<path id="轮廓" class="st1" d="M75.2,108.7c27.5,0,33.5-21,33.5-39.5s3.7-33.5-33.5-33.5s-33.5,15-33.5,33.5
	S47.7,108.7,75.2,108.7z M75.2,111.9c-25.7,0-36.6-16.7-36.6-42.6c0-1.3,0-2.3-0.1-4.5c-0.2-12.6,0.4-17.4,4.6-22.6
	c5.2-6.5,15.2-9.5,32.1-9.5s26.9,3,32.1,9.5c4.1,5.2,4.8,10,4.6,22.6c0,2.2-0.1,3.2-0.1,4.5C111.8,95.2,100.9,111.9,75.2,111.9z
	 M42.2,77.1c0,0-0.9-2.6-4.3-3.3c0,0-4.8-0.3-2.8,4.8s9,7.6,10.7,7.6S42.2,77.1,42.2,77.1z M45.5,76.6c0.5,0.9,1,1.7,1.4,2.6
	c0.2,0.3,0.3,0.7,0.5,1c0.7,1.4,1.2,2.6,1.5,3.6c0.2,0.8,0.4,1.5,0.3,2.2c-0.1,1.7-1.4,3.3-3.5,3.3c-4.3,0-11.5-4.1-13.6-9.6
	c-1.6-4.2-0.3-7.5,3-8.6c1-0.4,1.9-0.4,2.8-0.4c0.1,0,0.1,0,0.2,0l0.4,0.1c1.9,0.4,3.4,1.2,4.6,2.4c1,0.9,1.6,1.8,1.9,2.7
	C45.1,75.9,45.3,76.2,45.5,76.6z M109,77.1c0,0-5.4,9-3.6,9s8.7-2.5,10.7-7.6c2-5.1-2.8-4.8-2.8-4.8C109.9,74.5,109,77.1,109,77.1z
	 M108.1,73.1c1.2-1.1,2.8-2,4.6-2.4l0.4-0.1c0.1,0,0.1,0,0.2,0c0.8,0,1.8,0.1,2.8,0.4c3.3,1.2,4.6,4.5,3,8.6
	c-2.2,5.5-9.4,9.6-13.6,9.6c-2,0-3.3-1.5-3.5-3.3c-0.1-0.7,0.1-1.4,0.3-2.2c0.3-1,0.8-2.2,1.5-3.6c0.2-0.3,0.3-0.7,0.5-1
	c0.5-0.9,0.9-1.8,1.4-2.6c0.2-0.4,0.4-0.7,0.5-0.9C106.5,75,107.1,74,108.1,73.1z"/>
<g id="镜片">
	<path class="st2" d="M68,66.3H41.5c-1.7,0-3.2,1.4-3.2,3.1v8.8c0,6.6,5.4,12,12,12h9c6.6,0,12-5.4,12-12v-8.8
		C71.2,67.7,69.8,66.3,68,66.3z"/>
	<path class="st2" d="M109.9,66.3H83.3c-1.7,0-3.2,1.4-3.2,3.1v8.8c0,6.6,5.4,12,12,12h9c6.6,0,12-5.4,12-12v-8.8
		C113,67.7,111.6,66.3,109.9,66.3z"/>
</g>
<path id="眼镜框" class="st1" d="M109.9,66.3H83.3c-1.7,0-3.2,1.4-3.2,3.1v-0.1h-9v0.1c0-1.7-1.4-3.1-3.2-3.1H41.5
	c-1.7,0-3.2,1.4-3.2,3.1v8.8c0,6.6,5.4,12,12,12h9c6.6,0,12-5.4,12-12v-3h9v3c0,6.6,5.4,12,12,12h9c6.6,0,12-5.4,12-12v-8.8
	C113,67.7,111.6,66.3,109.9,66.3z M68.1,78.3c0,4.9-4,8.8-8.8,8.8h-9c-4.9,0-8.8-4-8.8-8.8c0,0,0-8.8,0-8.8c0,0,26.6,0,26.6,0V78.3z
	 M109.9,78.3c0,4.9-4,8.8-8.8,8.8h-9c-4.9,0-8.8-4-8.8-8.8c0,0,0-8.8,0-8.8c0,0,26.6,0,26.6,0V78.3z"/>
<path id="刘海" class="st1" d="M45.8,33.4h59.8l6,29.9c-6.6,0-13.3-5.4-15-12.1l-3-11.8l-5.4,6.5c-5.3,6.3-16.1,12.5-24.4,13.7
	l-24.1,3.7L45.8,33.4z"/>
</svg>
