<?xml version="1.0" encoding="UTF-8"?>
<svg width="60px" height="50px" viewBox="0 0 60 50" version="1.1" xmlns="http://www.w3.org/2000/svg" xmlns:xlink="http://www.w3.org/1999/xlink">
    <!-- Generator: Sketch 43 (38999) - http://www.bohemiancoding.com/sketch -->
    <title>为空小</title>
    <desc>Created with Sketch.</desc>
    <defs>
        <path d="M47,21 L56.99646,21.0162354 L56.9874331,33.997212 C56.9855082,36.7652993 54.7407662,39.0092773 51.9862061,39.0092773 L46.9884644,39.0092773 L47,21 Z" id="path-1"></path>
        <path d="M47,26 L52,26 L52.0146199,31.5071627 C52.0183099,32.8971663 50.9006145,34.0239868 49.5098146,34.0239868 L47.0275879,34.0239868 L47,26 Z" id="path-2"></path>
        <path d="M0,0 L28.0307007,0 L28.0307007,29.0246177 C28.0307007,31.2337454 26.2346133,33.0245972 24.0294795,33.0245972 L4.00122121,33.0245972 C1.79140776,33.0245972 0,31.2255987 0,29.0246177 L0,0 Z" id="path-3"></path>
        <rect id="path-5" x="-1.31034483" y="-1.29411765" width="33.1954023" height="7.29411765"></rect>
        <path d="M21.9896851,12.0228882 C21.9896851,12.0228882 23.1358643,7.25189209 28.0056152,7.95007324 C28.0056152,7.95007324 28.4642334,4.00415039 33.5276489,4.00274658 C33.5276489,4.00274658 39.0050659,4.14105225 39.0050659,9.03570557 C39.0050659,9.03570557 43.0346069,7.71044922 43.9851685,12.0228882 C43.9851685,12.0228882 48.0206299,12.0228882 47.9530029,16.0064087 C47.9530029,16.0064087 37.0104547,16.0094784 37.0047607,16.0064087 C37.0047607,16.0064087 34.0215454,16.0119019 34.0203857,18.9905396 L34.0203857,27.0048828 C34.0203857,27.0048828 34.0245972,29.0461426 32.024353,29.0244141 C32.024353,29.0244141 29.9716797,29.0244141 29.9857788,27.0150146 L29.9857788,23.0339966 C29.9857788,23.0339966 29.9857788,22.0045776 29.0396118,22.0030518 C29.0396118,22.0030518 27.9919434,22.0030518 28.0056152,23.0339966 L28.0079346,24.0395508 C28.0079346,24.0395508 28.0079346,26.0435791 26.0111084,25.9905396 C26.0111084,25.9905396 23.9862061,25.9905396 23.9963989,24.0395508 C24.0065918,22.088562 23.9963989,17.9994507 23.9963989,17.9994507 C23.9963989,17.9994507 23.9963989,16.0169678 21.9896851,16.0119019 C19.9829712,16.0068359 18.0213623,16.0371704 18.0213623,16.0371704 C18.0213623,16.0371704 17.4282837,11.9915771 21.9896851,12.0228882 Z" id="path-6"></path>
        <path d="M0,0 L17,0 L17,8 C17,12.418278 13.4155099,16 8.99779356,16 L8.00220644,16 C3.58270986,16 0,12.4092877 0,8 L0,0 Z" id="path-7"></path>
        <rect id="path-9" x="-1" y="-1" width="19.4166667" height="6"></rect>
    </defs>
    <g id="Page-1" stroke="none" stroke-width="1" fill="none" fill-rule="evenodd">
        <g id="为空规范" transform="translate(-3780.000000, -483.000000)">
            <g id="Group-5" transform="translate(3780.000000, 483.000000)">
                <g id="Rectangle-3">
                    <use fill="#FFDAC0" fill-rule="evenodd" xlink:href="#path-1"></use>
                    <path stroke="#FF8833" stroke-width="1" d="M47.4996793,21.5008122 L56.4961127,21.5154234 L56.4874332,33.9968643 C56.4857014,36.4872343 54.4664658,38.5092773 51.9862061,38.5092773 L47.4887847,38.5092773 L47.4996793,21.5008122 Z"></path>
                </g>
                <g id="Rectangle-4">
                    <use fill="#FFFFFF" fill-rule="evenodd" xlink:href="#path-2"></use>
                    <path stroke="#FF8833" stroke-width="1" d="M47.501722,26.5 L51.5013256,26.5 L51.5146216,31.50849 C51.5175816,32.6234849 50.6223053,33.5239868 49.5098146,33.5239868 L47.5258718,33.5239868 L47.501722,26.5 Z"></path>
                </g>
                <g id="Rectangle-81" transform="translate(19.000000, 16.000000)">
                    <mask id="mask-4" fill="white">
                        <use xlink:href="#path-3"></use>
                    </mask>
                    <g id="Mask">
                        <use fill="#FFDBC1" fill-rule="evenodd" xlink:href="#path-3"></use>
                        <path stroke="#FF8833" stroke-width="1" d="M0,-0.5 L-0.5,-0.5 L-0.5,0 L-0.5,29.0246177 C-0.5,31.5044322 1.51795324,33.5245972 4.00122121,33.5245972 L24.0294795,33.5245972 C26.5122468,33.5245972 28.5307007,31.5083985 28.5307007,29.0246177 L28.5307007,6.12017308e-17 L28.5307007,-0.5 L28.0307007,-0.5 L0,-0.5 Z"></path>
                    </g>
                    <g mask="url(#mask-4)">
                        <use fill="#FFFFFF" fill-rule="evenodd" xlink:href="#path-5"></use>
                        <rect stroke="#FF8833" stroke-width="1" x="-0.810344828" y="-0.794117647" width="32.1954023" height="6.29411765"></rect>
                    </g>
                </g>
                <rect id="Rectangle-2" fill="#FF8833" x="29" y="41" width="1" height="2.58823529" rx="0.5"></rect>
                <rect id="Rectangle-2" fill="#FF8833" x="36" y="28" width="1" height="2.58823529" rx="0.5"></rect>
                <rect id="Rectangle-2" fill="#FF8833" x="36" y="32" width="1" height="11.6470588" rx="0.5"></rect>
                <rect id="Rectangle-2" fill="#FF8833" x="23" y="28" width="1" height="2.58823529" rx="0.5"></rect>
                <rect id="Rectangle-2" fill="#FF8833" x="23" y="32" width="1" height="11.6470588" rx="0.5"></rect>
                <rect id="Rectangle-2" fill="#FF8833" x="29" y="28" width="1" height="11.6470588" rx="0.5"></rect>
                <rect id="Rectangle-2" fill="#FF8833" x="42" y="41" width="1" height="2.58823529" rx="0.5"></rect>
                <rect id="Rectangle-2" fill="#FF8833" x="42" y="28" width="1" height="11.6470588" rx="0.5"></rect>
                <g id="Path-14">
                    <use fill="#FFFFFF" fill-rule="evenodd" xlink:href="#path-6"></use>
                    <path stroke="#FF8833" stroke-width="1" d="M37.1318998,15.5069189 C37.131104,15.5069177 37.1303037,15.5069165 37.1294986,15.5069153 C37.074165,15.5068035 37.074165,15.5068035 37.0386702,15.5066828 C37.0379728,15.5065703 37.0372832,15.5064591 37.0366016,15.5063492 C37.006955,15.5015699 36.9925473,15.4993182 37.0165489,15.5063861 C37.0415046,15.513735 37.1079841,15.531159 37.2420324,15.5662926 L37.1318998,15.5069189 L37.1305224,15.5061763 L37.0366016,15.5063492 L37.0165489,15.5063861 L37.0038401,15.5064095 C36.5602373,15.5072264 35.9298083,15.6133178 35.2885477,15.9346989 C34.1929493,16.4837809 33.5209695,17.4911146 33.5203858,18.9903449 L33.5203857,27.0048828 L33.5203863,27.0055984 C33.5205773,27.1904274 33.4707531,27.4993173 33.3265645,27.7964387 C33.0976696,28.2681092 32.7071525,28.5318018 32.0297842,28.5244436 C31.8387124,28.5244141 31.5258484,28.473544 31.224234,28.3264214 C30.748303,28.0942699 30.4809885,27.6994874 30.4857665,27.0185229 L30.4857788,23.0339966 C30.4857788,22.8394182 30.4460837,22.580483 30.3215063,22.3096063 C30.0963477,21.8200296 29.6612518,21.5040536 29.0404182,21.5030524 C28.8410263,21.5030518 28.5776052,21.5459744 28.3029638,21.6802271 C27.8073338,21.9225055 27.4969735,22.3856689 27.5056592,23.0406267 L27.5079359,24.040704 C27.5079346,24.2138806 27.4594042,24.5099802 27.3192899,24.7949412 C27.0931039,25.2549529 26.7050889,25.5087967 26.0243847,25.4907158 C25.8275574,25.4905396 25.5182044,25.4409875 25.2202976,25.2978315 C24.7537755,25.0736492 24.4929806,24.6951465 24.4963921,24.042163 C24.4995971,23.4287103 24.5010042,22.5690345 24.5009261,21.5257716 C24.500869,20.7641961 24.5000286,19.9484158 24.4986633,19.1310144 C24.4978137,18.6503079 24.4978137,18.6503079 24.4971056,18.3103095 C24.4965391,18.0550775 24.4965391,18.0550775 24.4963974,17.9982043 C24.4963989,17.6794861 24.4213016,17.2349114 24.1905971,16.7796563 C23.7944229,15.9978756 23.0622193,15.5146079 21.9909473,15.5119034 C21.0534275,15.5095367 20.0586657,15.5145186 19.0812207,15.5242758 C18.8726503,15.5263578 18.6764127,15.5285493 18.4948449,15.53077 C18.4991323,15.1102746 18.5732136,14.6529052 18.7520517,14.221359 C19.1978259,13.1456811 20.1848411,12.5105109 21.986253,12.5228764 L22.3831402,12.5256008 L22.4758523,12.1396845 C22.5014735,12.0330359 22.5645799,11.8298046 22.6724321,11.5629868 C22.8540424,11.1136972 23.0947067,10.6641927 23.4001874,10.2469674 C24.4150192,8.86091116 25.8752732,8.14975661 27.9346553,8.44501232 L28.4429858,8.51789218 L28.502272,8.00779758 C28.5129019,7.91633818 28.5509667,7.73324312 28.6312522,7.4900452 C28.7675745,7.07710233 28.9749185,6.66344237 29.2667303,6.27842577 C30.1061313,5.17092009 31.468305,4.50331754 33.5277875,4.50274656 C33.6630681,4.50632531 33.93859,4.53086857 34.297695,4.59341909 C34.8982935,4.69803405 35.4980699,4.87396768 36.0529168,5.1358849 C37.6000633,5.86622041 38.5050659,7.10214568 38.5050659,9.03570557 L38.5050659,9.72649535 L39.1612771,9.51067723 C39.2157618,9.49275801 39.3299503,9.46201092 39.4909042,9.43020337 C40.1330619,9.30330083 40.8169474,9.30146969 41.4415555,9.50243829 C42.4484165,9.82639739 43.167534,10.6363193 43.4968896,12.1305162 L43.5833775,12.5228882 L43.9851685,12.5228882 C44.0837766,12.5228882 44.274375,12.5362155 44.5247613,12.5770671 C44.9445838,12.645563 45.3635405,12.7686013 45.7496928,12.9576086 C46.7261267,13.4355371 47.3345357,14.2403958 47.4380842,15.5065453 C47.3575965,15.5065661 47.2605637,15.5065913 47.1422912,15.5066219 C46.2810284,15.5068351 46.2810284,15.5068351 45.1157299,15.5070909 C43.8480324,15.5073469 43.8480324,15.5073469 42.4788106,15.5075601 C40.9401467,15.5077758 39.6577689,15.5078356 38.7170944,15.5077036 C38.182698,15.5076286 37.7657446,15.5074922 37.476944,15.50729 C37.2696126,15.507124 37.268411,15.507123 37.1318998,15.5069189 Z"></path>
                </g>
                <g id="Rectangle-5" transform="translate(3.000000, 29.000000)">
                    <mask id="mask-8" fill="white">
                        <use xlink:href="#path-7"></use>
                    </mask>
                    <g id="Mask">
                        <use fill="#FFDAC0" fill-rule="evenodd" xlink:href="#path-7"></use>
                        <path stroke="#FF8833" stroke-width="1" d="M0,-0.5 L-0.5,-0.5 L-0.5,0 L-0.5,8 C-0.5,12.6884791 3.30961493,16.5 8.00220644,16.5 L8.99779356,16.5 C13.6922191,16.5 17.5,12.6938539 17.5,8 L17.5,0 L17.5,-0.5 L17,-0.5 L0,-0.5 Z"></path>
                    </g>
                    <g mask="url(#mask-8)">
                        <use fill="#FFFFFF" fill-rule="evenodd" xlink:href="#path-9"></use>
                        <rect stroke="#FF8833" stroke-width="1" x="-0.5" y="-0.5" width="18.4166667" height="5"></rect>
                    </g>
                </g>
                <path d="M5,37 C5,37 6.41217041,42.3722331 11.4242859,42.3722331" id="Path-16" stroke="#FF8833" stroke-linecap="round"></path>
                <rect id="Rectangle-7" fill="#FF8833" x="11" y="45" width="1" height="4.66666667"></rect>
                <rect id="Rectangle-59" fill="#FF8833" x="7" y="49" width="9" height="1"></rect>
            </g>
        </g>
    </g>
</svg>