<?xml version="1.0" encoding="UTF-8"?>
<svg width="190px" height="150px" viewBox="0 0 190 150" version="1.1" xmlns="http://www.w3.org/2000/svg" xmlns:xlink="http://www.w3.org/1999/xlink">
    <!-- Generator: Sketch 43 (38999) - http://www.bohemiancoding.com/sketch -->
    <title>简历列表类</title>
    <desc>Created with Sketch.</desc>
    <defs>
        <rect id="path-1" x="0.306091409" y="0.815607766" width="104.452381" height="140.446429" rx="6"></rect>
        <rect id="path-2" x="0" y="0" width="25" height="26" rx="2"></rect>
    </defs>
    <g id="Page-1" stroke="none" stroke-width="1" fill="none" fill-rule="evenodd">
        <g id="为空规范" transform="translate(-580.000000, -1264.000000)">
            <g id="Group-13" transform="translate(580.000000, 1264.000000)">
                <g id="Group-20-Copy-2" transform="translate(42.000000, 8.000000)">
                    <g id="Group-8-Copy">
                        <g id="Group-6" transform="translate(0.191709, 0.581037)">
                            <g id="Group-3-Copy" transform="translate(0.039077, 0.156926)">
                                <g id="Rectangle">
                                    <use fill="#FFFFFF" fill-rule="evenodd" xlink:href="#path-1"></use>
                                    <rect stroke="#FF8833" stroke-width="1" x="0.806091409" y="1.31560777" width="103.452381" height="139.446429" rx="6"></rect>
                                </g>
                                <path d="M9,64.9932301 C9,63.8923995 9.88940808,63 11.0014725,63 L93.9985275,63 C95.1039102,63 96,63.8954434 96,64.9932301 L96,127.00677 C96,128.1076 95.1105919,129 93.9985275,129 L11.0014725,129 C9.89608977,129 9,128.104557 9,127.00677 L9,64.9932301 Z" id="Rectangle-6-Copy-3" fill="#FFDDBB"></path>
                                <path d="M9,52.990778 C9,52.4435864 9.44734862,52 10.0071375,52 L94.9928625,52 C95.5490892,52 96,52.4509752 96,52.990778 L96,57.009222 C96,57.5564136 95.5526514,58 94.9928625,58 L10.0071375,58 C9.45091082,58 9,57.5490248 9,57.009222 L9,52.990778 Z" id="Rectangle-6-Copy-4" fill="#FFDDBB"></path>
                            </g>
                            <rect id="Rectangle-21" fill="#FFDDBB" x="43" y="14" width="52" height="5" rx="1"></rect>
                            <rect id="Rectangle-21-Copy" fill="#FFDDBB" x="43" y="24" width="25" height="5" rx="1"></rect>
                            <rect id="Rectangle-21-Copy-2" fill="#FFDDBB" x="43" y="34" width="25" height="5" rx="1"></rect>
                        </g>
                    </g>
                    <g id="Shape" transform="translate(11.000000, 14.000000)">
                        <mask id="mask-3" fill="white">
                            <use xlink:href="#path-2"></use>
                        </mask>
                        <use id="Mask" fill="#FFDDBB" xlink:href="#path-2"></use>
                        <path d="M12.8120512,4 C13.643904,4.01668824 14.5134116,4.1285861 15.2354422,4.56647767 C15.502279,4.72410745 15.7187256,4.95111781 15.8901021,5.20560649 C16.5914308,5.31157819 17.2954334,5.56014072 17.8232907,6.04270198 C18.5930652,6.73829688 18.947451,7.76315603 19.0503816,8.76486968 C19.2270507,10.4482015 18.8864479,12.1369004 18.3967968,13.742745 C18.7915113,14.0450901 18.9888548,14.5497067 18.939512,15.0371039 C18.8859241,15.5912261 18.7702856,16.1636299 18.4503847,16.6327456 C18.2816821,16.8850539 18.0158928,17.064739 17.7145712,17.1228543 C17.5957351,17.9680004 17.3081963,18.7878765 16.8944063,19.5362197 C16.6959878,19.8886015 16.4700035,20.2382718 16.1400134,20.4835917 C16.1373671,21.4498045 16.2105819,21.8045327 16.2105819,21.8045327 C16.2105819,21.8045327 20.4318703,22.9831967 22.154331,24.2633654 C23.8767916,25.543534 23.6505205,25.7528149 23.8767916,25.888958 C24.8247215,26.4217702 20.2073099,31 13.316892,31 C6.426474,31 1.26716551,26.5038205 2.08542055,26.0964436 C2.35726868,25.9525872 1.91397991,25.6481437 3.50546299,24.2633654 C5.09694608,22.878587 9.30989847,21.8045327 9.30989847,21.8045327 C9.30989847,21.8045327 9.4114807,21.4497765 9.41095693,20.4830327 C9.03694435,20.2070478 8.79290445,19.8030358 8.56849137,19.4070745 C8.18546477,18.6958816 7.91170895,17.9238618 7.80031561,17.1244476 C7.36265362,17.0469885 7.04432393,16.696228 6.87934269,16.3061928 C6.69153699,15.882278 6.59921918,15.421213 6.56953083,14.9612661 C6.5445838,14.4975175 6.74460113,14.0289609 7.11753867,13.7422139 C6.76210543,12.3391719 6.50268381,10.8957929 6.56156434,9.4443354 C6.59921921,8.54753122 6.76579925,7.64158624 7.16211256,6.82816736 C7.48355722,6.16320954 7.96951447,5.57196506 8.57695411,5.14103391 C9.79288095,4.26628503 11.3398729,4.02205533 12.8120512,4 Z" fill="#FFFFFF" fill-rule="nonzero" mask="url(#mask-3)"></path>
                    </g>
                </g>
            </g>
        </g>
    </g>
</svg>