<?xml version="1.0" encoding="UTF-8"?>
<svg width="44px" height="50px" viewBox="0 0 44 50" version="1.1" xmlns="http://www.w3.org/2000/svg" xmlns:xlink="http://www.w3.org/1999/xlink">
    <!-- Generator: Sketch 50 (54983) - http://www.bohemiancoding.com/sketch -->
    <title>Loading</title>
    <desc>Created with Sketch.</desc>
    <defs>
        <linearGradient x1="16.9454366%" y1="-11.1462908%" x2="82.4244317%" y2="80.85899%" id="linearGradient-1">
            <stop stop-color="#FAC961" offset="0%"></stop>
            <stop stop-color="#FF5600" offset="100%"></stop>
        </linearGradient>
    </defs>
    <g id="loading" stroke="none" stroke-width="1" fill="none" fill-rule="evenodd">
        <g id="Artboard-Copy-2" transform="translate(-228.000000, -238.000000)">
            <g id="Loading" transform="translate(228.000000, 238.000000)">
                <path d="M24.0126183,0.55400315 L42.0126183,11.0340075 C43.2431067,11.7504255 44,13.0669406 44,14.4907932 L44,35.5092068 C44,36.9330594 43.2431067,38.2495745 42.0126183,38.9659925 L24.0126183,49.4459968 C22.7686167,50.1702825 21.2313833,50.1702825 19.9873817,49.4459968 L1.9873817,38.9659925 C0.756893321,38.2495745 7.10542736e-15,36.9330594 7.10542736e-15,35.5092068 L-3.55271368e-15,14.4907932 C-4.4408921e-15,13.0669406 0.756893321,11.7504255 1.9873817,11.0340075 L19.9873817,0.55400315 C21.2313833,-0.170282548 22.7686167,-0.170282548 24.0126183,0.55400315 Z" id="Polygon-Copy" fill="url(#linearGradient-1)"></path>
                <path d="M23.061808,29.7902433 C23.0761498,29.7897317 23.0905821,29.7894737 23.1051012,29.7894737 L24.2698988,29.7894737 C24.8802293,29.7894737 25.375,30.302169 25.375,30.8947368 C25.375,31.5051568 24.9057207,32 24.2698988,32 L23.1051012,32 C23.0903623,32 23.0756909,31.999701 23.0610921,31.9991091 C23.0479261,31.9997008 23.0346786,32 23.021357,32 L16.2805474,32 C14.4687511,32 13,30.6792344 13,29.053199 L13,20.946801 C13,19.3193278 14.4730155,18 16.2805474,18 L27.7194526,18 C29.5312489,18 31,19.3207656 31,20.946801 L31,23.7304502 C31,25.4450005 29.5352989,26.8421053 27.7284986,26.8421053 L17.9015597,26.8421053 C17.0076283,26.8421053 16.2727273,27.5018962 16.2727273,28.3157895 C16.2727273,29.1353571 17.0019804,29.7894737 17.9015597,29.7894737 L23.0257432,29.7894737 C23.0378183,29.7894737 23.0498419,29.789732 23.061808,29.7902433 Z M27.7272727,30.8947368 C27.7272727,30.2843169 28.1823314,29.7894737 28.798886,29.7894737 L29.9283867,29.7894737 C30.5202224,29.7894737 31,30.302169 31,30.8947368 C31,31.5051568 30.5449413,32 29.9283867,32 L28.798886,32 C28.2070503,32 27.7272727,31.4873047 27.7272727,30.8947368 Z M16.2727273,22.4210526 C16.2727273,23.2406203 16.9030378,23.8947368 17.6805651,23.8947368 L27.1376167,23.8947368 C27.9199756,23.8947368 28.5454545,23.2349459 28.5454545,22.4210526 C28.5454545,21.601485 27.9151441,20.9473684 27.1376167,20.9473684 L17.6805651,20.9473684 C16.8982062,20.9473684 16.2727273,21.6071593 16.2727273,22.4210526 Z" id="Combined-Shape-Copy-9" fill="#FFFFFF"></path>
            </g>
        </g>
    </g>
</svg>