<?xml version="1.0" encoding="utf-8"?>
<!-- Generator: Adobe Illustrator 21.0.2, SVG Export Plug-In . SVG Version: 6.00 Build 0)  -->
<svg version="1.1" id="图层_1" xmlns="http://www.w3.org/2000/svg" xmlns:xlink="http://www.w3.org/1999/xlink" x="0px" y="0px"
	 viewBox="0 0 150 150" style="enable-background:new 0 0 150 150;" xml:space="preserve">
<style type="text/css">
	.st0{fill:#F8F8F8;}
	.st1{fill:#EDF5FF;}
	.st2{fill:#4A90E2;}
	.st3{fill:#FFFFFF;}
	.st4{filter:url(#Adobe_OpacityMaskFilter);}
	.st5{mask:url(#mask-2);fill:#EDF5FF;}
	.st6{fill:#E8F0FA;}
</style>
<rect id="Rectangle" y="0" class="st0" width="150" height="150"/>
<path id="Combined-Shape" class="st1" d="M23.4,146.5c0-18.1,0-24.5,46.1-34h14.1c46.1,9.1,46.1,15.5,46.1,34v3.5H23.4V146.5z"/>
<path id="Combined-Shape-Copy-2" class="st2" d="M126.6,146.9v-0.4c0-17.3-2.2-20.4-23-26.2c-5.4-1.5-12-3-20.2-4.6H69.8
	c-9.3,1.9-16.6,3.7-22.4,5.4c-18.9,5.7-20.9,8.8-20.9,25.4v0.4H126.6z M23.4,146.5c0-18.1,0-24.5,46.1-34h14.1
	c46.1,9.1,46.1,15.5,46.1,34v3.5H23.4V146.5z"/>
<path id="Combined-Shape_1_" class="st3" d="M67.2,115.2V96.9h18.8v18.3l12.5,3.6c0,0-0.6,15.6-21.9,15.6s-21.9-15.6-21.9-15.6
	L67.2,115.2z"/>
<path id="Combined-Shape-Copy" class="st2" d="M60.2,124.7c2.9,4,8,6.5,16.4,6.5s13.5-2.5,16.4-6.5c0.9-1.2,1.5-2.5,1.9-3.8l-12-3.4
	V100H70.3v17.5l-12,3.4C58.7,122.3,59.3,123.5,60.2,124.7z M67.2,115.2V96.9h18.8v18.3l12.5,3.6c0,0-0.6,15.6-21.9,15.6
	s-21.9-15.6-21.9-15.6L67.2,115.2z"/>
<g id="Group" transform="translate(34.375000, 30.625000)">
	<g id="Combined-Shape_2_">
		<path id="path-1_1_" class="st3" d="M76.5,51.1C73.1,64.8,64,76.2,43.2,76.2c-20.2,0-29.3-10.8-32.9-23.9
			c-2.8-0.7-8.1-3.3-9.8-7.7c-2.1-5.4,2.9-5,2.9-5C7,40.4,8,43.1,8,43.1s0.4,0.6,0.9,1.5c-0.4-3.2-0.6-6.5-0.6-9.7
			c0-19.3-3.9-35,35-35c38.9,0,35,15.7,35,35c0,1.8-0.1,3.6-0.2,5.5c0.6-0.3,1.2-0.6,2.1-0.8c0,0,5-0.4,2.9,5
			C81.8,47.7,79,49.9,76.5,51.1L76.5,51.1z"/>
	</g>
	<defs>
		<filter id="Adobe_OpacityMaskFilter" filterUnits="userSpaceOnUse" x="42.5" y="50.2" width="34.7" height="28.4">
			<feColorMatrix  type="matrix" values="1 0 0 0 0  0 1 0 0 0  0 0 1 0 0  0 0 0 1 0"/>
		</filter>
	</defs>
	<mask maskUnits="userSpaceOnUse" x="42.5" y="50.2" width="34.7" height="28.4" id="mask-2">
		<g class="st4">
			<path id="path-1" class="st3" d="M76.5,51.1C73.1,64.8,64,76.2,43.2,76.2c-20.2,0-29.3-10.8-32.9-23.9c-2.8-0.7-8.1-3.3-9.8-7.7
				c-2.1-5.4,2.9-5,2.9-5C7,40.4,8,43.1,8,43.1s0.4,0.6,0.9,1.5c-0.4-3.2-0.6-6.5-0.6-9.7c0-19.3-3.9-35,35-35c38.9,0,35,15.7,35,35
				c0,1.8-0.1,3.6-0.2,5.5c0.6-0.3,1.2-0.6,2.1-0.8c0,0,5-0.4,2.9,5C81.8,47.7,79,49.9,76.5,51.1L76.5,51.1z"/>
		</g>
	</mask>
	<path id="Path-6" class="st5" d="M42.5,75.8c0,0,0.1,0,0.4-0.1c2.7-0.6,18.1-4.9,25.5-25.5l8.7,7L67,73.9l-16.1,4.7"/>
</g>
<path id="Combined-Shape-Copy-3" class="st2" d="M117.4,75.3c2.1-5.4-2.9-5-2.9-5c-0.8,0.2-1.5,0.4-2.1,0.8c0.1-1.8,0.2-3.7,0.2-5.5
	c0-19.3,3.9-35-35-35s-35,15.7-35,35c0,3.2,0.2,6.5,0.6,9.7c-0.5-0.9-0.9-1.5-0.9-1.5s-0.9-2.7-4.5-3.5c0,0-5-0.4-2.9,5
	c1.7,4.4,7,7,9.8,7.7c3.6,13.1,12.7,23.9,32.9,23.9c20.8,0,29.8-11.5,33.2-25.1C113.4,80.5,116.2,78.3,117.4,75.3z M114.4,67.2
	c-0.1,0-0.1,0-0.2,0l-0.4,0.1c-1.1,0.2-2.1,0.6-3,1.1l1.5,2.7l3.1,0.2c0.1-1.3,0.1-2.7,0.2-4C115.3,67.2,114.8,67.2,114.4,67.2z
	 M40.1,75.7l3.1-0.4l2.7-1.5c-0.3-0.6-0.6-1-0.8-1.4c-0.3-0.8-1-1.8-1.9-2.7c-1-0.9-2.2-1.7-3.7-2.2C39.6,70.3,39.8,73.1,40.1,75.7z
	 M39.5,65.6c0-1.3,0-2.4-0.1-4.7c-0.2-13.1,0.4-18.2,4.7-23.5c5.4-6.8,15.8-9.9,33.4-9.9s28,3.1,33.4,9.9c4.3,5.4,5,10.4,4.7,23.5
	c0,2.3-0.1,3.4-0.1,4.7c0,0.6,0,1.1,0,1.6c0.5,0.1,1,0.2,1.5,0.4c3.4,1.2,4.7,4.6,3,8.8c-1.2,3.1-3.7,5.6-6.8,7.4
	c-4.6,16.5-16.2,26.1-35.9,26.1c-19,0-30.5-9-35.4-24.5c-4.4-1.6-8.5-4.8-10.2-9c-1.7-4.3-0.3-7.6,3-8.8c1-0.4,2-0.5,2.8-0.4
	c0.1,0,0.6,0.1,0.6,0.1c0.4,0.1,0.7,0.2,1.1,0.3C39.5,66.9,39.5,66.3,39.5,65.6z"/>
<path id="Combined-Shape_3_" class="st6" d="M37.5,65.6c0-1.7,1.4-3.1,3.1-3.1h28.2c1.7,0,3.1,1.4,3.1,3.1V75
	c0,6.9-5.6,12.5-12.5,12.5H50c-6.9,0-12.5-5.6-12.5-12.5V65.6z"/>
<path id="Combined-Shape_4_" class="st6" d="M81.2,65.6c0-1.7,1.4-3.1,3.1-3.1h28.2c1.7,0,3.1,1.4,3.1,3.1V75
	c0,6.9-5.6,12.5-12.5,12.5h-9.4c-6.9,0-12.5-5.6-12.5-12.5V65.6z"/>
<path id="Rectangle-6-Copy" class="st2" d="M68.8,75v-9.4c0,0-28.1,0-28.1,0V75c0,5.2,4.2,9.4,9.4,9.4h9.4
	C64.5,84.4,68.8,80.2,68.8,75z M37.5,65.6c0-1.7,1.4-3.1,3.1-3.1h28.2c1.7,0,3.1,1.4,3.1,3.1V75c0,6.9-5.6,12.5-12.5,12.5H50
	c-6.9,0-12.5-5.6-12.5-12.5V65.6z"/>
<path id="Combined-Shape_5_" class="st2" d="M112.5,75v-9.4c0,0-28.1,0-28.1,0V75c0,5.2,4.2,9.4,9.4,9.4h9.4
	C108.3,84.4,112.5,80.2,112.5,75z M81.2,71.9h-9.4v-6.2h9.4v0c0-1.7,1.4-3.1,3.1-3.1h28.2c1.7,0,3.1,1.4,3.1,3.1V75
	c0,6.9-5.6,12.5-12.5,12.5h-9.4c-6.9,0-12.5-5.6-12.5-12.5V71.9z"/>
<path id="Combined-Shape_6_" class="st2" d="M115.6,64.7c-0.4,0-16.3-2.6-17.5-25.4c-3.1,3.2-7.6,5.2-15.2,5.2c-7.6,0-26.3,0-26.3,0
	c-9.4,0-17.3-4.8-19.6-10.6s-1.3-4.3-1.3-4.3c-1.6-6.7,3-12.2,9.9-12.2H86c14.5,0,30.3,7.1,30.3,23.7L115.6,64.7z"/>
<rect id="Rectangle-27" x="26.6" y="145.9" class="st1" width="100" height="4.1"/>
</svg>
