<?xml version="1.0" encoding="UTF-8"?>
<svg width="140px" height="90px" viewBox="0 0 140 90" version="1.1" xmlns="http://www.w3.org/2000/svg" xmlns:xlink="http://www.w3.org/1999/xlink">
    <!-- Generator: Sketch 43 (38999) - http://www.bohemiancoding.com/sketch -->
    <title>消息模块-未领取礼包</title>
    <desc>Created with Sketch.</desc>
    <defs>
        <path d="M0,44 L8.12548828,34 L64.1616211,34 L72,44 L72,84.0099006 C72,87.3181411 69.3089213,90 66.0005656,90 L5.99943435,90 C2.68603825,90 0,87.3111444 0,84.0099006 L0,44 Z" id="path-1"></path>
        <rect id="path-2" x="8" y="34" width="56" height="11"></rect>
        <rect id="path-3" x="22" y="52" width="29" height="8" rx="4"></rect>
        <path d="M2.65133976,4.98719501 C2.57500451,3.88969751 3.39944604,2.90590923 4.50800944,2.79132892 C4.50800944,2.79132892 4.87003438,2.74731445 4.9925375,2.74731445 C5.11504063,2.74731445 5.47612501,2.79132892 5.47612501,2.79132892 C6.57540789,2.90657477 7.40746351,3.88655484 7.33410541,4.98719501 L7.13244732,8.01280499 C7.05929869,9.11030249 6.11227036,10 5,10 L5,10 C3.8954305,10 2.93833664,9.11344516 2.8617828,8.01280499 L2.65133976,4.98719501 Z" id="path-4"></path>
    </defs>
    <g id="Page-1" stroke="none" stroke-width="1" fill="none" fill-rule="evenodd">
        <g id="为空规范" transform="translate(-3043.000000, -1479.000000)">
            <g id="Group-23" transform="translate(3043.000000, 1479.000000)">
                <g id="无未领取礼包-插图" transform="translate(34.000000, 0.000000)">
                    <g id="Rectangle-10">
                        <use fill="#FFFFFF" fill-rule="evenodd" xlink:href="#path-1"></use>
                        <path stroke="#FF8833" stroke-width="1" d="M0.5,44.1775286 L8.36346452,34.5 L63.9182445,34.5 L71.5,44.1726066 L71.5,84.0099006 C71.5,87.0400221 69.0347587,89.5 66.0005656,89.5 L5.99943435,89.5 C2.96451494,89.5 0.5,87.0373344 0.5,84.0099006 L0.5,44.1775286 Z"></path>
                    </g>
                    <rect id="Rectangle-11" fill="#FF8833" x="0" y="44" width="72" height="1"></rect>
                    <g id="Rectangle-12">
                        <use fill="#FFDDBB" fill-rule="evenodd" xlink:href="#path-2"></use>
                        <rect stroke="#FF8833" stroke-width="1" x="8.5" y="34.5" width="55" height="10"></rect>
                    </g>
                    <polygon id="Path-14" fill="#FFDDBB" points="64 35.4029541 64.0124684 44.0172119 70.7779846 44.0172119"></polygon>
                    <polyline id="Path-15" fill="#FFDDBB" points="8.00720215 35.6898804 8.00720215 43.996521 1.28417969 43.996521"></polyline>
                    <g id="Rectangle-13">
                        <use fill="#FFDAC0" fill-rule="evenodd" xlink:href="#path-3"></use>
                        <rect stroke="#FF8833" stroke-width="1" x="22.5" y="52.5" width="28" height="7" rx="3.5"></rect>
                    </g>
                    <path d="M19.4248047,38.9194336 C19.4248047,38.9194336 9.6015625,29.2304688 15.0498047,24.2817383 C20.4980469,19.3330078 30.2290039,20.7207031 30.2290039,20.7207031 C30.2290039,20.7207031 65.4541016,29.8251953 71.2080078,20.3876953 C76.9619141,10.9501953 59.4418945,8.97265625 59.4418945,8.97265625" id="Path-16" stroke="#FF8833" stroke-width="2" stroke-linecap="round" stroke-linejoin="round" stroke-dasharray="5"></path>
                    <g id="Group-2" transform="translate(50.721535, 6.389568) rotate(-73.000000) translate(-50.721535, -6.389568) translate(45.721535, 0.889568)">
                        <path d="M6.17584229,4.01367187 C6.72812703,4.01367187 7.17584229,3.56595662 7.17584229,3.01367187 C7.17584229,2.46138713 6.46734619,1.92987061 5.88183594,2.08215332 C5.29632568,2.23443604 5.00823975,2.83736369 5.00823975,3.38964844 C5.00823975,3.94193319 5.62355754,4.01367187 6.17584229,4.01367187 Z" id="Oval-5-Copy-2" stroke="#FF8833" fill="#FFDAC0" transform="translate(6.092041, 3.034696) scale(-1, 1) translate(-6.092041, -3.034696) "></path>
                        <path d="M4.06347656,4.03469569 C4.61576131,4.03469569 5.06347656,3.58698044 5.06347656,3.03469569 C5.06347656,2.48241094 4.35498047,1.95089442 3.76947021,2.10317713 C3.18395996,2.25545985 2.89587402,2.8583875 2.89587402,3.41067225 C2.89587402,3.962957 3.51119181,4.03469569 4.06347656,4.03469569 Z" id="Oval-5-Copy-3" stroke="#FF8833" fill="#FFDAC0"></path>
                        <g id="Rectangle-14">
                            <use fill="#FFDAC0" fill-rule="evenodd" xlink:href="#path-4"></use>
                            <path stroke="#FF8833" stroke-width="1" d="M3.1501347,4.95250187 C3.09233359,4.12147609 3.72153025,3.37528253 4.55941522,3.28867934 C4.6109764,3.28249212 4.68002172,3.27454584 4.75604853,3.26664018 C4.78711077,3.26344172 4.78711077,3.26344172 4.81843853,3.26036491 C4.90358859,3.25212073 4.97002808,3.24731445 4.9925375,3.24731445 C5.01498944,3.24731445 5.08118583,3.25210861 5.16601357,3.26033637 C5.19736075,3.26342092 5.19736075,3.26342092 5.22844227,3.26662832 C5.3042772,3.27453159 5.37313324,3.28247563 5.4156252,3.28765519 C6.25768723,3.376006 6.89058176,4.12319884 6.83521229,4.95394359 L6.63355421,7.97955356 C6.57774535,8.81689077 5.84653338,9.5 5,9.5 C4.15649692,9.5 3.41879362,8.81510123 3.36057773,7.97811184 L3.1501347,4.95250187 L3.1501347,4.95250187 Z"></path>
                        </g>
                        <path d="M7.58730332,10.4167248 C8.41573044,10.4167248 9.08730332,9.74515192 9.08730332,8.91672479 C9.08730332,8.08829767 8.41573044,4.31418573 7.58730332,4.31418573 C6.75887619,4.31418573 6.08730332,8.08829767 6.08730332,8.91672479 C6.08730332,9.74515192 6.75887619,10.4167248 7.58730332,10.4167248 Z" id="Oval" stroke="#FF8833" fill="#FFFFFF" transform="translate(7.587303, 7.365455) rotate(-18.000000) translate(-7.587303, -7.365455) "></path>
                        <path d="M2.37570938,10.4167248 C3.2041365,10.4167248 3.87570938,9.74515192 3.87570938,8.91672479 C3.87570938,8.08829767 3.2041365,4.31418573 2.37570938,4.31418573 C1.54728225,4.31418573 0.875709376,8.08829767 0.875709376,8.91672479 C0.875709376,9.74515192 1.54728225,10.4167248 2.37570938,10.4167248 Z" id="Oval-Copy" stroke="#FF8833" fill="#FFFFFF" transform="translate(2.375709, 7.365455) scale(-1, 1) rotate(-18.000000) translate(-2.375709, -7.365455) "></path>
                        <path d="M3.90004812,6.51881181 C4.17404077,6.81474634 4.56587451,7 5.00097656,7 L5.00097656,7 C5.4744095,7 5.89661477,6.78066827 6.17152357,6.4380736" id="Oval-4" stroke="#FF8833" stroke-linecap="round" stroke-linejoin="round"></path>
                        <path d="M5.28936768,2.3059082 C5.28936768,2.3059082 5.29400635,0.932250977 6.73419189,0.849853516" id="Path-19" stroke="#FF8833" stroke-linecap="round" stroke-linejoin="round"></path>
                        <path d="M3.28936768,2.3059082 C3.28936768,2.3059082 3.29400635,0.932250977 4.73419189,0.849853516" id="Path-19-Copy" stroke="#FF8833" stroke-linecap="round" stroke-linejoin="round" transform="translate(4.011780, 1.577881) scale(-1, 1) translate(-4.011780, -1.577881) "></path>
                    </g>
                </g>
            </g>
        </g>
    </g>
</svg>