<?xml version="1.0" encoding="UTF-8"?>
<svg width="140px" height="90px" viewBox="0 0 140 90" version="1.1" xmlns="http://www.w3.org/2000/svg" xmlns:xlink="http://www.w3.org/1999/xlink">
    <!-- Generator: Sketch 43 (38999) - http://www.bohemiancoding.com/sketch -->
    <title>消息模块-通知</title>
    <desc>Created with Sketch.</desc>
    <defs>
        <path d="M76,67 L86,67 L86,81.0059397 C86,82.1072288 85.1125667,83 84.000385,83 L77.999615,83 C76.8952581,83 76,82.1054862 76,81.0059397 L76,67 Z" id="path-1"></path>
        <path d="M40,65.0236816 L40,38.0032847 L40,38.0032847 C40,30.2694841 46.2772765,24 54.0058308,24 L99.9941692,24 C107.729376,24 114,30.269069 114,37.997455 L114,63.99819 C114,66.2083286 112.207443,68 109.995201,68 L40,68" id="path-2"></path>
        <path d="M43,38.5043757 C43,32.1506844 48.1473289,27 54.5,27 L54.5,27 C60.8512746,27 66,32.1446081 66,38.5043757 L66,65 L43,65 L43,38.5043757 Z" id="path-3"></path>
        <path d="M66,68 L11.9930696,68 C10.8923277,68 10,67.1122704 10,66 L10,66 L10,66 C10,64.8954305 10.9023082,64 11.9930696,64 L66,64" id="path-4"></path>
    </defs>
    <g id="Page-1" stroke="none" stroke-width="1" fill="none" fill-rule="evenodd">
        <g id="为空规范" transform="translate(-2515.000000, -1333.000000)">
            <g id="Group-21" transform="translate(2515.000000, 1333.000000)">
                <g id="无招聘动态-插图" transform="translate(13.000000, 7.000000)">
                    <path d="M52.7000732,17.5870972 C52.7000732,17.5870972 52.8262939,21.6225586 56.5986328,24.3172607 C57.8274534,25.1950466 60.1256915,24.7361827 62.3011475,24.7358398 C64.4766035,24.735497 68.9058514,24.6166381 69.0626221,24.4654541 C69.6920725,23.8584346 62.7306519,3.4654541 62.6482172,3.16417783 C62.2203917,1.6005913 60.9416707,0.190307617 59.1875,0.190307617 C57.2545034,0.190307617 55.6875,1.75731099 55.6875,3.69030762 C55.6875,4.46517717 55.5056152,6.35705566 54.5710449,8.5456543 C53.6364746,10.7342529 52.3641357,13.1918945 52.7000732,17.5870972 Z" id="Oval-21" stroke="#FF8833" fill="#FFFFFF"></path>
                    <circle id="Oval-29" fill="#FF8833" cx="59" cy="4" r="1"></circle>
                    <path d="M68.7100352,22.2945059 C67.6435135,18.1611184 64.6836699,9.25036094 63.3340648,5.21774114 C63.3340648,5.21774114 59.2412109,9.59753418 58.6414795,13.5699463 C58.041748,17.5423584 60.3797607,19.4379883 62.1638184,20.4610596 C63.947876,21.4841309 68.7100352,22.2945059 68.7100352,22.2945059 Z" id="Oval-21-Copy" stroke="#FF8833" fill="#FFDAC0"></path>
                    <g id="Rectangle-31">
                        <use fill="#FFDAC0" fill-rule="evenodd" xlink:href="#path-1"></use>
                        <path stroke="#FF8833" stroke-width="1" d="M76.5,67.5 L85.5,67.5 L85.5,81.0059397 C85.5,81.8337803 84.8337303,82.5 84.000385,82.5 L77.999615,82.5 C77.1717601,82.5 76.5,81.8297016 76.5,81.0059397 L76.5,67.5 Z"></path>
                    </g>
                    <g id="Rectangle-9">
                        <use fill="#FFFFFF" fill-rule="evenodd" xlink:href="#path-2"></use>
                        <path stroke="#FF8833" stroke-width="1" d="M40.5,67.5 L40.5,65.0236816 L40.5,38.0032847 C40.5,30.54798 46.5510642,24.5 54.0058308,24.5 L99.9941692,24.5 C107.45253,24.5 113.5,30.5445081 113.5,37.997455 L113.5,63.99819 C113.5,65.9322675 111.931219,67.5 109.995201,67.5 L40.5,67.5 Z"></path>
                    </g>
                    <path d="M54.3663837,24.5 L54.5720215,24.5 L55.0038222,24.5 C62.4567752,24.5 68.5,30.5444309 68.5,37.997455 L68.5,67.5 L40.6838023,67.5 L54.3663837,24.5 Z" id="Rectangle-9-Copy-2" stroke="#FF8833"></path>
                    <g id="Rectangle-9-Copy">
                        <use fill="#FFDAC0" fill-rule="evenodd" xlink:href="#path-3"></use>
                        <path stroke="#FF8833" stroke-width="1" d="M65.5,64.5 L43.5,64.5 L43.5,38.5043757 C43.5,32.4262923 48.4240056,27.5 54.5,27.5 C60.5772291,27.5 65.5,32.4228473 65.5,38.5043757 L65.5,64.5 Z"></path>
                    </g>
                    <g id="Rectangle-29">
                        <use fill="#FFFFFF" fill-rule="evenodd" xlink:href="#path-4"></use>
                        <path stroke="#FF8833" stroke-width="1" d="M65.5,67.5 L11.9930696,67.5 C11.165903,67.5 10.5,66.8335587 10.5,66 C10.5,65.1750179 11.1750056,64.5 11.9930696,64.5 L65.5,64.5 L65.5,67.5 Z"></path>
                    </g>
                    <polygon id="Rectangle-30" fill="#FF8833" points="68 37 113 37 113 38 68.173584 38"></polygon>
                    <path d="M78.9718837,15.0030168 C78.9148572,15.0010112 78.8575571,15 78.8,15 L74.9912106,15 C74.4501518,15 74,15.447903 74,16.0004194 L74,46.2008702 C74,48.8558464 76.1490332,51 78.8,51 C81.4455726,51 83.6,48.8526698 83.6,46.2038039 L83.6,42.0071777 C83.6,42.0071777 83.6278564,41.4290283 83.5318604,41.1931152 C83.4358643,40.9572021 83.0991992,40.6846521 83.0991992,40.6846521 C82.2234842,39.8915837 80.3083022,38.1563738 78.2309042,36.269233 C78.2309042,36.269233 77.9661871,36.0122337 77.837915,35.6961426 C77.7096429,35.3800515 77.7199219,35.0100586 77.7199219,35.0100586 L77.7199219,24.9541427 C77.7199219,23.3076606 79.0650058,21.9602539 80.7242509,21.9602539 L83.0088682,21.9602539 C83.0643015,21.9652524 83.1194255,21.9692155 83.1741993,21.9721187 L84.0100067,22.0164191 C85.650721,22.1033819 86.9982422,20.8311257 86.9982422,19.1736136 L86.9982422,18.0011911 C86.9982422,16.3495259 85.6574452,15 84.0034882,15 L79.128416,15 C79.0753626,15 79.0231811,15.0010127 78.9718837,15.0030168 Z" id="Combined-Shape" stroke="#FF8833" fill="#FFDAC0"></path>
                    <path d="M55.5792236,2.49438477 L54.1986694,3.60180664 C54.1986694,3.60180664 53.4431152,4.07598877 54.3410645,4.40643311 C55.2390137,4.73687744 55.5792236,4.95220947 55.5792236,4.95220947 C55.5792236,4.95220947 56.5050659,5.31207275 56.5430298,4.38171387 C56.5809937,3.45135498 56.1698608,2.49438477 56.1698608,2.49438477 C56.1698608,2.49438477 56.068217,2.23760986 55.9674683,2.23760986 C55.8667196,2.23760986 55.5792236,2.49438477 55.5792236,2.49438477 Z" id="Path-12" stroke="#FF8833" fill="#FFFFFF"></path>
                    <g id="Group-27" transform="translate(0.000000, 38.000000)">
                        <g id="Group-19" transform="translate(0.000000, 6.000000)" stroke="#FF8833" stroke-width="2" stroke-linecap="round" stroke-linejoin="round">
                            <path d="M5.91662598,2.35162354 C5.59205168,1.04549117 4.41158796,0.0775210427 3.00504269,0.0775210427 C1.34818844,0.0775210427 0.00504269263,1.42066679 0.00504269263,3.07752104 C0.00504269263,4.73437529 1.34818844,6.07752104 3.00504269,6.07752104" id="Oval-31"></path>
                            <path d="M26,6.07729222 L3.03961658,6.07729222" id="Rectangle-54-Copy"></path>
                        </g>
                        <rect id="Rectangle-51" fill="#FF8833" x="29" y="11" width="6" height="2" rx="1"></rect>
                        <g id="Group-15" transform="translate(12.000000, 0.000000)" stroke="#FF8833" stroke-width="2" stroke-linecap="round" stroke-linejoin="round">
                            <path d="M13.7965088,4 L2.00063875,4" id="Rectangle-54"></path>
                            <path d="M3.577535,0.770470199 C3.21151857,0.301525193 2.64097178,0 2,0 C0.8954305,0 0,0.8954305 0,2 C0,3.1045695 0.8954305,4 2,4" id="Oval-30"></path>
                        </g>
                    </g>
                </g>
            </g>
        </g>
    </g>
</svg>