<?xml version="1.0" encoding="UTF-8"?>
<svg width="190px" height="150px" viewBox="0 0 190 150" version="1.1" xmlns="http://www.w3.org/2000/svg" xmlns:xlink="http://www.w3.org/1999/xlink">
    <!-- Generator: Sketch 43 (38999) - http://www.bohemiancoding.com/sketch -->
    <title>为空</title>
    <desc>Created with Sketch.</desc>
    <defs>
        <path d="M0,69.8444444 L13.4682751,53.2888889 L106.350084,53.2888889 L119.342466,69.8444444 L119.342466,139.992409 C119.342466,143.31031 116.654122,146 113.342467,146 L5.99999846,146 C2.68629081,146 0,143.311953 0,139.992409 L0,69.8444444 Z" id="path-1"></path>
        <rect id="path-2" x="13.260274" y="53.2983398" width="92.8219178" height="17.5125732"></rect>
        <rect id="path-3" x="36.4657534" y="83.0888889" width="48" height="14" rx="7"></rect>
        <path d="M5.43319041,7.80950187 C5.28539697,5.68716259 6.8871252,3.78439581 8.99108143,3.57082321 C8.99108143,3.57082321 9.07224877,3.54833171 9.27530189,3.54833171 C9.47835502,3.54833171 9.54636459,3.56965213 9.54636459,3.56965213 C11.6614508,3.7889172 13.261127,5.68912675 13.1196343,7.80950187 L12.8018907,12.5711287 C12.6919026,14.2193821 11.2588124,15.6830681 9.61168039,15.8344034 C9.61168039,15.8344034 9.42053743,15.8603937 9.27530189,15.8603937 C9.13006635,15.8603937 8.96478774,15.8364736 8.96478774,15.8364736 C7.3122496,15.6813268 5.87923936,14.2148414 5.76477606,12.5711287 L5.43319041,7.80950187 Z" id="path-4"></path>
    </defs>
    <g id="Page-1" stroke="none" stroke-width="1" fill="none" fill-rule="evenodd">
        <g id="为空规范" transform="translate(-580.000000, -2020.000000)">
            <g id="Group-18" transform="translate(580.000000, 2020.000000)">
                <g id="Group-5-Copy-4" transform="translate(35.000000, 4.000000)">
                    <g id="Rectangle-10">
                        <use fill="#FFFFFF" fill-rule="evenodd" xlink:href="#path-1"></use>
                        <path stroke="#FF8833" stroke-width="1" d="M0.5,70.0221376 L13.7060721,53.7888889 L106.106887,53.7888889 L118.842466,70.0172133 L118.842466,139.992409 C118.842466,143.033573 116.378573,145.5 113.342467,145.5 L5.99999846,145.5 C2.96198695,145.5 0.5,143.035363 0.5,139.992409 L0.5,70.0221376 Z"></path>
                    </g>
                    <rect id="Rectangle-11" fill="#FF8833" x="0" y="69.8444444" width="119.342466" height="1"></rect>
                    <g id="Rectangle-12">
                        <use fill="#FFDDBB" fill-rule="evenodd" xlink:href="#path-2"></use>
                        <rect stroke="#FF8833" stroke-width="1" x="13.760274" y="53.7983398" width="91.8219178" height="16.5125732"></rect>
                    </g>
                    <polyline id="Path-15" fill="#FFDDBB" points="13.2722118 55.116394 13.2722118 69.8386848 1.28039551 69.8386848"></polyline>
                    <polyline id="Path-15-Copy" fill="#FFDDBB" transform="translate(112.071991, 62.198944) scale(-1, 1) translate(-112.071991, -62.198944) " points="118.062622 54.5586548 118.062622 69.8392334 106.08136 69.8392334"></polyline>
                    <g id="Rectangle-13">
                        <use fill="#FFDDBB" fill-rule="evenodd" xlink:href="#path-3"></use>
                        <rect stroke="#FF8833" stroke-width="1" x="36.9657534" y="83.5888889" width="47" height="13" rx="6.5"></rect>
                    </g>
                    <path d="M32.197279,63.4332845 C32.197279,63.4332845 15.9149187,47.3926649 24.9455667,39.1997667 C33.9762147,31.0068685 50.1056092,33.3042752 50.1056092,33.3042752 C50.1056092,33.3042752 108.492415,48.3772678 118.029712,32.7529622 C127.567008,17.1286567 98.5269759,13.8547309 98.5269759,13.8547309" id="Path-16" stroke="#FF8833" stroke-width="2" stroke-linecap="round" stroke-linejoin="round" stroke-dasharray="4"></path>
                    <g id="Group-2" transform="translate(87.011969, 11.490558) rotate(-73.000000) translate(-87.011969, -11.490558) translate(78.011969, 2.990558)">
                        <path d="M11.1698524,6.0640314 C12.0852833,6.0640314 12.8273867,5.32281393 12.8273867,4.40847585 C12.8273867,3.49413776 11.6530301,2.61418263 10.6825268,2.86629513 C9.71202354,3.11840762 9.23451123,4.11658785 9.23451123,5.03092593 C9.23451123,5.94526402 10.2544215,6.0640314 11.1698524,6.0640314 Z" id="Oval-5-Copy-2" stroke="#FF8833" fill="#FFDAC0" transform="translate(11.030949, 4.443282) scale(-1, 1) translate(-11.030949, -4.443282) "></path>
                        <path d="M7.77113316,6.09230967 C8.68656405,6.09230967 9.42866741,5.3510922 9.42866741,4.43675411 C9.42866741,3.52241603 8.25431087,2.6424609 7.28380757,2.89457339 C6.31330427,3.14668589 5.83579197,4.14486611 5.83579197,5.0592042 C5.83579197,5.97354228 6.85570228,6.09230967 7.77113316,6.09230967 Z" id="Oval-5-Copy-3" stroke="#FF8833" fill="#FFDAC0"></path>
                        <g id="Rectangle-14">
                            <use fill="#FFDAC0" fill-rule="evenodd" xlink:href="#path-4"></use>
                            <path stroke="#FF8833" stroke-width="1" d="M5.93198247,7.77476746 C5.80304505,5.92320388 7.20479106,4.25471901 9.04157693,4.06826688 C9.11044191,4.05658954 9.10783039,4.05710025 9.11814066,4.05583095 C9.15444193,4.05136189 9.20641204,4.04833171 9.27530189,4.04833171 C9.34409612,4.04833171 9.39326863,4.05114547 9.42459086,4.05508447 C9.42802134,4.05551588 9.41813129,4.05344562 9.39679621,4.04675725 L9.49480729,4.06698687 C11.3415728,4.25843589 12.7443752,5.92350067 12.6207438,7.77621088 L12.3030002,12.5378377 C12.2094479,13.9397894 10.9694945,15.2075441 9.56593404,15.3365005 C9.52730725,15.3412936 9.49159649,15.3456035 9.44892317,15.3498084 C9.40940636,15.3537023 9.37127097,15.356725 9.33682849,15.358539 C9.3027931,15.3600893 9.3027931,15.3600893 9.27530189,15.3603937 C9.26012278,15.3603055 9.26012278,15.3603055 9.24335497,15.3598597 C9.20463055,15.3586474 9.16072561,15.3554791 9.11560355,15.3509421 C9.07889729,15.3472514 9.04867037,15.3434356 9.03640468,15.3416291 C7.60397171,15.2065161 6.36111266,13.9371507 6.26356812,12.5363943 L5.93198247,7.77476746 L5.93198247,7.77476746 Z"></path>
                        </g>
                        <path d="M13.7066376,15.6401961 C15.0797839,15.6401961 16.192939,14.5283699 16.192939,13.1568627 C16.192939,11.7853556 15.0797839,5.53710363 13.7066376,5.53710363 C12.3334913,5.53710363 11.2203362,11.7853556 11.2203362,13.1568627 C11.2203362,14.5283699 12.3334913,15.6401961 13.7066376,15.6401961 Z" id="Oval" stroke="#FF8833" fill="#FFFFFF" transform="translate(13.706638, 10.588650) rotate(-18.000000) translate(-13.706638, -10.588650) "></path>
                        <path d="M4.74781836,15.6840193 C6.12096469,15.6840193 7.23411972,14.5721931 7.23411972,13.200686 C7.23411972,11.8291789 6.12096469,5.58092687 4.74781836,5.58092687 C3.37467203,5.58092687 2.26151699,11.8291789 2.26151699,13.200686 C2.26151699,14.5721931 3.37467203,15.6840193 4.74781836,15.6840193 Z" id="Oval-Copy" stroke="#FF8833" fill="#FFFFFF" transform="translate(4.747818, 10.632473) scale(-1, 1) rotate(-18.000000) translate(-4.747818, -10.632473) "></path>
                        <path d="M7.46446331,9.79225511 C7.91861552,10.2821912 8.56809336,10.5888889 9.28928992,10.5888889 L9.28928992,10.5888889 C10.0740212,10.5888889 10.7738409,10.225773 11.2295117,9.65858852" id="Oval-4" stroke="#FF8833" stroke-linecap="round" stroke-linejoin="round"></path>
                        <path d="M9.76730807,2.81755914 C9.76730807,2.81755914 9.77499682,0.543393283 12.1621537,0.406979709" id="Path-19" stroke="#FF8833" stroke-linecap="round" stroke-linejoin="round"></path>
                        <path d="M6.45223957,2.81755914 C6.45223957,2.81755914 6.45992833,0.543393283 8.8470852,0.406979709" id="Path-19-Copy" stroke="#FF8833" stroke-linecap="round" stroke-linejoin="round" transform="translate(7.649662, 1.612269) scale(-1, 1) translate(-7.649662, -1.612269) "></path>
                    </g>
                </g>
            </g>
        </g>
    </g>
</svg>