<?xml version="1.0" encoding="UTF-8"?>
<svg width="140px" height="90px" viewBox="0 0 140 90" version="1.1" xmlns="http://www.w3.org/2000/svg" xmlns:xlink="http://www.w3.org/1999/xlink">
    <!-- Generator: Sketch 43 (38999) - http://www.bohemiancoding.com/sketch -->
    <title>首页-搜索推荐</title>
    <desc>Created with Sketch.</desc>
    <defs>
        <rect id="path-1" x="67.3595616" y="10.5266272" width="54" height="72"></rect>
        <rect id="path-2" x="69.3595616" y="7.52662722" width="54" height="72"></rect>
        <path d="M51,61.9675264 C51,61.9675264 51,53.7561026 51,50.6503906 C51,50.6503906 54.5234375,43.5573976 54.5234375,34.1568856 C54.5234375,24.7563737 51,20.2768988 51,20.2768988 C51,15.8560221 51,3.01426866 51,3.01426866 C51,1.34870993 49.6584067,0 48.0034676,0 L2.99653242,0 C1.34384048,0 0,1.34953405 0,3.01426866 L0,69.3762639 C0,71.0418226 1.34159326,72.3905325 2.99653242,72.3905325 L40.6383057,72.3905325 L51,61.9675264 Z" id="path-3"></path>
        <path d="M40.3612061,72.4758142 L40.3612061,64.8283684 C40.3612061,63.1620386 41.7342091,61.7848962 43.3870394,61.7848962 L51.1033936,61.7848962 L40.3612061,72.4758142 Z" id="path-4"></path>
        <rect id="path-5" x="15.5" y="36.7159763" width="4" height="12.0710059"></rect>
        <path d="M21,34.8549658 L21,35.4585799 C21,36.7085735 19.9821399,37.7218935 18.7466248,37.7218935 L16.2533752,37.7218935 C15.0088704,37.7218935 14,36.7172882 14,35.4585799 L14,34.8549658 C6.01215888,33.2239253 -7.10542736e-15,26.1199997 -7.10542736e-15,17.6035503 C-7.10542736e-15,7.88137793 7.83501688,-2.27373675e-13 17.5,-2.27373675e-13 C27.1649831,-2.27373675e-13 35,7.88137793 35,17.6035503 C35,26.1199997 28.9878411,33.2239253 21,34.8549658 Z M17.5,31.183432 C24.9558441,31.183432 31,25.1035118 31,17.6035503 C31,10.1035888 24.9558441,4.02366864 17.5,4.02366864 C10.0441559,4.02366864 4,10.1035888 4,17.6035503 C4,25.1035118 10.0441559,31.183432 17.5,31.183432 Z" id="path-6"></path>
        <rect id="path-7" x="14.5" y="42.7514793" width="6" height="24.1420118" rx="3"></rect>
        <path d="M14.5,44.260355 C14.5,43.427026 15.1766131,42.7514793 16.0140533,42.7514793 L18.9859467,42.7514793 C19.8221352,42.7514793 20.5,43.4212162 20.5,44.260355 L20.5,45.7692308 L14.5,45.7692308 L14.5,44.260355 Z" id="path-8"></path>
        <path d="M14.5,63.8757396 L20.5,63.8757396 L20.5,65.3846154 C20.5,66.2179444 19.8233869,66.8934911 18.9859467,66.8934911 L16.0140533,66.8934911 C15.1778648,66.8934911 14.5,66.2237543 14.5,65.3846154 L14.5,63.8757396 Z" id="path-9"></path>
    </defs>
    <g id="Page-1" stroke="none" stroke-width="1" fill="none" fill-rule="evenodd">
        <g id="为空规范" transform="translate(-2717.000000, -772.000000)">
            <g id="Group-20" transform="translate(2717.000000, 772.000000)">
                <g id="Rectangle-34-Copy-3" transform="translate(94.359562, 46.526627) rotate(-11.000000) translate(-94.359562, -46.526627) ">
                    <use fill="#FFDDBB" fill-rule="evenodd" xlink:href="#path-1"></use>
                    <rect stroke="#FF8833" stroke-width="1" x="67.8595616" y="11.0266272" width="53" height="71"></rect>
                </g>
                <g id="Rectangle-34" transform="translate(96.359562, 43.526627) rotate(-11.000000) translate(-96.359562, -43.526627) ">
                    <use fill="#FFDDBB" fill-rule="evenodd" xlink:href="#path-2"></use>
                    <rect stroke="#FF8833" stroke-width="1" x="69.8595616" y="8.02662722" width="53" height="71"></rect>
                </g>
                <g id="Group-9" transform="translate(74.500000, 3.526627)">
                    <g id="Combined-Shape">
                        <use fill="#FFFFFF" fill-rule="evenodd" xlink:href="#path-3"></use>
                        <path stroke="#FF8833" stroke-width="1" d="M50.5,61.7612831 L40.4303344,71.8905325 L2.99653242,71.8905325 C1.61809405,71.8905325 0.5,70.766033 0.5,69.3762639 L0.5,3.01426866 C0.5,1.62585596 1.61981109,0.5 2.99653242,0.5 L48.0034676,0.5 C49.381906,0.5 50.5,1.62449955 50.5,3.01426866 C50.5,4.61948784 50.5,4.61948784 50.5,9.98775497 C50.5,11.1733059 50.5,11.1733059 50.5,12.3827459 C50.5,16.9902237 50.5,16.9902237 50.5,20.2768988 L50.5,20.449979 L50.607005,20.5860184 C50.7030814,20.7081638 50.882704,20.9707555 51.118538,21.3754472 C51.518125,22.0611394 51.9193397,22.8923499 52.2949229,23.8708695 C53.374295,26.6829941 54.0234375,30.1061357 54.0234375,34.1568856 C54.0234375,38.2174492 53.3706397,42.1440805 52.2826434,45.785698 C51.9020118,47.0597049 51.4944539,48.2063637 51.0874049,49.2067903 C50.945415,49.5557667 50.8138298,49.8611673 50.6960851,50.1206366 C50.6262776,50.2744685 50.5771718,50.3776901 50.5522056,50.4279492 L50.5,50.5330437 L50.5,50.6503906 C50.5,52.8117053 50.5,52.8117053 50.5,55.7235141 C50.5,56.6091143 50.5,56.6091143 50.5,57.4736005 C50.5,60.7819618 50.5,60.933795 50.5,61.8322577 L50.5,61.7612831 Z"></path>
                    </g>
                    <g id="Star">
                        <use fill="#FFFFFF" fill-rule="evenodd" xlink:href="#path-4"></use>
                        <path stroke="#FF8833" stroke-width="1" d="M40.8612061,71.2727792 L40.8612061,64.8283684 C40.8612061,63.4389589 42.0095832,62.2848962 43.3870394,62.2848962 L49.8921914,62.2848962 L40.8612061,71.2727792 Z"></path>
                    </g>
                </g>
                <g id="Group-12" transform="translate(111.871213, 50.968549) rotate(40.000000) translate(-111.871213, -50.968549) translate(94.371213, 17.468549)">
                    <g id="Rectangle-32">
                        <use fill="#FFFFFF" fill-rule="evenodd" xlink:href="#path-5"></use>
                        <rect stroke="#FF8833" stroke-width="1" x="16" y="37.2159763" width="3" height="11.0710059"></rect>
                    </g>
                    <g id="Combined-Shape">
                        <use fill="#FFDDBB" fill-rule="evenodd" xlink:href="#path-6"></use>
                        <path stroke="#FF8833" stroke-width="1" d="M20.5,34.8549658 L20.5,35.4585799 C20.5,36.4295056 19.7089176,37.2218935 18.7466248,37.2218935 L16.2533752,37.2218935 C15.2822029,37.2218935 14.5,36.4383303 14.5,35.4585799 L14.5,34.8549658 L14.5,34.446744 L14.1000312,34.3650742 C6.23916484,32.7599607 0.5,25.7752412 0.5,17.6035503 C0.5,8.15686211 8.11182175,0.5 17.5,0.5 C26.8881783,0.5 34.5,8.15686211 34.5,17.6035503 C34.5,25.7752412 28.7608352,32.7599607 20.8999688,34.3650742 L20.5,34.446744 L20.5,34.8549658 Z M17.5,31.683432 C25.232649,31.683432 31.5,25.378996 31.5,17.6035503 C31.5,9.82810456 25.232649,3.52366864 17.5,3.52366864 C9.76735101,3.52366864 3.5,9.82810456 3.5,17.6035503 C3.5,25.378996 9.76735101,31.683432 17.5,31.683432 Z"></path>
                    </g>
                    <g id="Rectangle-33-Copy">
                        <use fill="#FFFFFF" fill-rule="evenodd" xlink:href="#path-7"></use>
                        <rect stroke="#FF8833" stroke-width="1" x="15" y="43.2514793" width="5" height="23.1420118" rx="2.5"></rect>
                    </g>
                    <g id="Rectangle-33">
                        <use fill="#FFFFFF" fill-rule="evenodd" xlink:href="#path-8"></use>
                        <path stroke="#FF8833" stroke-width="1" d="M20,45.2692308 L15,45.2692308 L15,44.260355 C15,43.7030573 15.4528688,43.2514793 16.0140533,43.2514793 L18.9859467,43.2514793 C19.5486909,43.2514793 20,43.7000489 20,44.260355 L20,45.2692308 Z"></path>
                    </g>
                    <g id="Rectangle-33-Copy-2">
                        <use fill="#FFFFFF" fill-rule="evenodd" xlink:href="#path-9"></use>
                        <path stroke="#FF8833" stroke-width="1" d="M15,64.3757396 L20,64.3757396 L20,65.3846154 C20,65.9419132 19.5471312,66.3934911 18.9859467,66.3934911 L16.0140533,66.3934911 C15.4513091,66.3934911 15,65.9449215 15,65.3846154 L15,64.3757396 Z"></path>
                    </g>
                </g>
                <path d="M125.359562,28.0828114 C124.371969,27.7976914 123.328715,27.6449704 122.25,27.6449704 C119.923068,27.6449704 117.761139,28.355616 115.966999,29.5729222 M113.796784,31.4940753 C113.506978,31.8257678 113.236161,32.1746581 112.986039,32.5390275 C112.81509,32.7880619 112.653808,33.0443269 112.502739,33.307274" id="Oval-14" stroke="#FF8833" stroke-linecap="round" stroke-linejoin="round"></path>
            </g>
        </g>
    </g>
</svg>