<?xml version="1.0" encoding="UTF-8"?>
<svg width="190px" height="150px" viewBox="0 0 190 150" version="1.1" xmlns="http://www.w3.org/2000/svg" xmlns:xlink="http://www.w3.org/1999/xlink">
    <!-- Generator: Sketch 43 (38999) - http://www.bohemiancoding.com/sketch -->
    <title>记录类</title>
    <desc>Created with Sketch.</desc>
    <defs>
        <rect id="path-1" x="-4.92050845e-13" y="18" width="158" height="116" rx="6"></rect>
        <rect id="path-2" x="75" y="18" width="8" height="8"></rect>
        <rect id="path-3" x="7" y="25" width="144" height="102" rx="6"></rect>
        <rect id="path-4" x="75" y="126" width="8" height="8"></rect>
        <path d="M7,30.9997612 C7,27.6861846 9.68676353,25 12.9985739,25 L79.1748047,25 C79.1748047,25 90.5146484,25.4902344 103.299805,17.6865234 C116.084961,9.8828125 123.332108,1.48723081 123.332108,1.48723081 C125.628578,-0.891759671 127.490234,-0.131425607 127.490234,3.17944871 L127.490234,95.1811666 C127.490234,97.3894887 126.470362,100.657104 125.15728,102.427126 C125.15728,102.427126 119.162109,112.064453 108.253906,117.619141 C97.3457031,123.173828 79.2773438,127 79.2773438,127 L13.0070961,127 C9.68946852,127 7,124.311113 7,121.000239 L7,30.9997612 Z" id="path-5"></path>
        <path d="M5.68434189e-14,3.52014332 C5.68434189e-14,2.4137526 0.891941149,1.5168457 1.9999204,1.5168457 L32.4951921,1.5168457 C33.3262745,1.5168457 34,2.19530865 34,3.00740698 L34,9.05289576 C34,9.87611002 33.3208371,10.543457 32.4951921,10.543457 L1.9999204,10.543457 C0.895394863,10.543457 5.68434189e-14,9.64495034 5.68434189e-14,8.54015941 L5.68434189e-14,3.52014332 Z" id="path-6"></path>
        <path d="M33,2 L88.5046869,2 C89.3305255,2 90,2.66831553 90,3.50473881 L90,8.49526119 C90,9.32630549 89.3201546,10 88.5046869,10 L33,10 L33,2 Z" id="path-7"></path>
        <path d="M89,3 L90.5,3 C91.3284271,3 92,3.66502976 92,4.49857602 L92,7.50142398 C92,8.32906466 91.3342028,9 90.5,9 L89,9 L89,3 Z" id="path-8"></path>
        <rect id="path-9" x="91" y="4.46875" width="7" height="3"></rect>
    </defs>
    <g id="Page-1" stroke="none" stroke-width="1" fill="none" fill-rule="evenodd">
        <g id="为空规范" transform="translate(-1620.000000, -1264.000000)">
            <g id="Group-17" transform="translate(1620.000000, 1255.000000)">
                <g id="Group-17-Copy" transform="translate(4.000000, 0.000000)">
                    <g id="Group-16" transform="translate(85.392201, 74.017124) rotate(5.000000) translate(-85.392201, -74.017124) translate(6.392201, 7.017124)">
                        <g id="Rectangle-35">
                            <use fill="#FFDDBB" fill-rule="evenodd" xlink:href="#path-1"></use>
                            <rect stroke="#FF8833" stroke-width="1" x="0.5" y="18.5" width="157" height="115" rx="6"></rect>
                        </g>
                        <g id="Rectangle-36-Copy">
                            <use fill="#FFDDBB" fill-rule="evenodd" xlink:href="#path-2"></use>
                            <rect stroke="#FF8833" stroke-width="1" x="75.5" y="18.5" width="7" height="7"></rect>
                        </g>
                        <g id="Rectangle-16">
                            <use fill="#FFFFFF" fill-rule="evenodd" xlink:href="#path-3"></use>
                            <rect stroke="#FF8833" stroke-width="1" x="7.5" y="25.5" width="143" height="101" rx="6"></rect>
                        </g>
                        <g id="Rectangle-36-Copy-2">
                            <use fill="#FFDDBB" fill-rule="evenodd" xlink:href="#path-4"></use>
                            <rect stroke="#FF8833" stroke-width="1" x="75.5" y="126.5" width="7" height="7"></rect>
                        </g>
                        <g id="Rectangle-16-Copy">
                            <use fill="#FFFFFF" fill-rule="evenodd" xlink:href="#path-5"></use>
                            <path stroke="#FF8833" stroke-width="1" d="M79.224634,126.5 L13.0070961,126.5 C9.96644316,126.5 7.5,124.035802 7.5,121.000239 L7.5,30.9997612 C7.5,27.9627027 9.9625302,25.5 12.9985739,25.5 L79.1748047,25.5 C79.1760392,25.5005028 79.1760392,25.5005028 79.2679679,25.5029311 C79.8842534,25.5165849 80.7612437,25.493718 81.8664853,25.4053043 C83.5262028,25.2725353 85.3489849,25.0161107 87.3023222,24.606927 C92.6790497,23.4806138 98.1858114,21.393746 103.5603,18.1133045 C104.392565,17.605313 105.214485,17.0868926 106.025941,16.5586866 C110.974418,13.3375462 115.347244,9.88631554 119.101649,6.43416852 C120.416712,5.22497779 121.56093,4.10157236 122.528927,3.09256798 C122.868446,2.73866581 123.161877,2.42410741 123.408546,2.15246902 C123.557573,1.98835644 123.658483,1.87432418 123.7106,1.81394823 C125.674664,-0.219578323 126.990234,0.316405303 126.990234,3.17944871 L126.990234,95.1811666 C126.990234,97.3187504 125.984295,100.473111 124.755714,102.129227 C124.64493,102.304151 124.466455,102.575269 124.198824,102.957774 C123.750116,103.599081 123.215247,104.314688 122.595773,105.085997 C120.823941,107.29211 118.731866,109.498937 116.332501,111.557977 C113.765414,113.76095 110.99423,115.662616 108.027019,117.173583 C105.174784,118.626001 101.667363,120.042779 97.651667,121.409624 C93.6108264,122.785027 89.2787328,124.036697 84.9462876,125.139878 C83.429688,125.526054 82.0215373,125.86604 80.7580966,126.156801 C80.3161627,126.258505 79.9239805,126.346772 79.58608,126.421223 C79.4243328,126.456862 79.303079,126.483185 79.224634,126.5 L79.224634,126.5 Z"></path>
                        </g>
                        <path d="M62.3277643,26.0127766 L72.3262238,25.9951682 L72.3997015,83.0519909 C72.4007729,83.8840035 71.900899,84.1001211 71.3011571,83.5511387 L68.6523711,81.1265346 C68.0445904,80.5701938 67.0392325,80.5610766 66.4088804,81.1044133 L63.5446478,83.57326 C62.9133829,84.1173836 62.4007863,83.8807406 62.3997411,83.0524439 L62.3277643,26.0127766 Z" id="Rectangle-37" fill="#FFDDBB"></path>
                        <path d="M20,44.498576 C20,43.6709353 20.6712038,43 21.5010419,43 L54.4989581,43 C55.3279606,43 56,43.6650298 56,44.498576 L56,47.501424 C56,48.3290647 55.3287962,49 54.4989581,49 L21.5010419,49 C20.6720394,49 20,48.3349702 20,47.501424 L20,44.498576 Z" id="Rectangle-38-Copy" fill="#FFDDBB"></path>
                        <rect id="Rectangle-38-Copy-2" fill="#FFDDBB" x="20" y="55" width="21" height="6" rx="1.5"></rect>
                        <rect id="Rectangle-36" fill="#FF8833" x="78" y="26" width="1" height="100"></rect>
                    </g>
                    <g id="Group-14" transform="translate(133.634516, 137.794699) scale(-1, 1) rotate(23.000000) translate(-133.634516, -137.794699) translate(83.134516, 132.294699)">
                        <g id="Group-7-Copy">
                            <g id="Rectangle-24">
                                <use fill="#FFDDBB" fill-rule="evenodd" xlink:href="#path-6"></use>
                                <path stroke="#FF8833" stroke-width="1" d="M0.5,3.52014332 C0.5,2.68837678 1.1695993,2.0168457 1.9999204,2.0168457 L32.4951921,2.0168457 C33.0467647,2.0168457 33.5,2.46810271 33.5,3.00740698 L33.5,9.05289576 C33.5,9.59675952 33.0479074,10.043457 32.4951921,10.043457 L1.9999204,10.043457 C1.17233942,10.043457 0.5,9.36961075 0.5,8.54015941 L0.5,3.52014332 Z"></path>
                            </g>
                            <path d="M3.49890137,8.88500977 L3.49890137,1.10632583 C3.49890137,0.549657511 3.93689276,0.0973479454 4.50570458,0.0959963719 L30.0076193,0.0354003906" id="Path-4" stroke="#FF8833" stroke-linecap="round" stroke-linejoin="round"></path>
                        </g>
                        <g id="Rectangle-38">
                            <use fill="#FFDDBB" fill-rule="evenodd" xlink:href="#path-7"></use>
                            <path stroke="#FF8833" stroke-width="1" d="M33.5,2.5 L88.5046869,2.5 C89.0558063,2.5 89.5,2.94588994 89.5,3.50473881 L89.5,8.49526119 C89.5,9.04674413 89.0474255,9.5 88.5046869,9.5 L33.5,9.5 L33.5,2.5 Z"></path>
                        </g>
                        <g id="Rectangle-38-Copy-3">
                            <use fill="#FFDDBB" fill-rule="evenodd" xlink:href="#path-8"></use>
                            <path stroke="#FF8833" stroke-width="1" d="M89.5,3.5 L90.5,3.5 C91.0547424,3.5 91.5,3.94362399 91.5,4.49857602 L91.5,7.50142398 C91.5,8.05511205 91.0558737,8.5 90.5,8.5 L89.5,8.5 L89.5,3.5 Z"></path>
                        </g>
                        <g id="Rectangle-38-Copy-4">
                            <use fill="#FFDDBB" fill-rule="evenodd" xlink:href="#path-9"></use>
                            <rect stroke="#FF8833" stroke-width="1" x="91.5" y="4.96875" width="6" height="2"></rect>
                        </g>
                        <path d="M98,5.45422363 L100.504611,5.45422363 C100.778207,5.45422363 101,5.68615723 101,5.95422363 L101,5.95422363 C101,6.23036601 100.784247,6.45422363 100.504611,6.45422363 L98,6.45422363 L98,5.45422363 Z" id="Rectangle-17" fill="#FF8833"></path>
                        <rect id="Rectangle-39-Copy" fill="#FF8833" x="85" y="2" width="1" height="8"></rect>
                        <rect id="Rectangle-40" fill="#FF8833" x="3" y="2" width="1" height="8"></rect>
                    </g>
                </g>
            </g>
        </g>
    </g>
</svg>