<?xml version="1.0" encoding="UTF-8"?>
<svg width="6px" height="20px" viewBox="0 0 6 20" version="1.1" xmlns="http://www.w3.org/2000/svg" xmlns:xlink="http://www.w3.org/1999/xlink">
    <!-- Generator: Sketch 49.3 (51167) - http://www.bohemiancoding.com/sketch -->
    <title>pop_jiantou_right</title>
    <desc>Created with Sketch.</desc>
    <defs></defs>
    <g id="Symbols" stroke="none" stroke-width="1" fill="none" fill-rule="evenodd">
        <g id="pop_jiantou_right">
            <g>
                <path d="M11.9914869,7.00851309 L11.9914869,8.00851309 L11.4090076,8.00851309 C9.85791356,8.00851309 8.36708781,8.60919677 7.24927622,9.68455255 L4.46579519,12.3623137 C3.52869819,13.2283903 2.26356345,13.1735849 1.51717863,12.3623137 L-1.2663024,9.68455255 C-2.38411398,8.60919677 -3.87493973,8.00851309 -5.42603379,8.00851309 L-6.00851309,8.00851309 L-6.00851309,7.00851309 L11.9914869,7.00851309 Z" id="01" fill="#FFFFFF" transform="translate(2.991487, 10.000000) rotate(-90.000000) translate(-2.991487, -10.000000) "></path>
                <path d="M-6,7.00169682 L-5.4175207,7.00169682 C-3.86642665,7.00169682 -2.37560089,7.60339975 -1.25778931,8.68058021 L1.52569172,11.362885 C2.27207653,12.1755328 3.53721128,12.2304312 4.47430828,11.362885 L7.25778931,8.68058021 C8.37560089,7.60339975 9.86642665,7.00169682 11.4175207,7.00169682 L12,7.00169682 L13,7 L13,8.00339363 L11.4175207,8.00339363 C10.1249423,8.00339363 8.88258753,8.50481275 7.95107788,9.40246313 L5.15303849,12.0985188 C3.83892713,13.3150976 1.93712887,13.2903202 0.832403154,12.0847679 L-1.95107788,9.40246313 C-2.88258753,8.50481275 -4.12494232,8.00339363 -5.4175207,8.00339363 L-7,8.00339363 L-7,7 L-6,7.00169682 Z" id="02" fill="#EEEEEE" fill-rule="nonzero" transform="translate(3.000000, 10.000000) rotate(-90.000000) translate(-3.000000, -10.000000) "></path>
            </g>
        </g>
    </g>
</svg>