<?xml version="1.0" encoding="UTF-8"?>
<svg width="24px" height="24px" viewBox="0 0 24 24" version="1.1" xmlns="http://www.w3.org/2000/svg" xmlns:xlink="http://www.w3.org/1999/xlink">
    <!-- Generator: Sketch 50 (54983) - http://www.bohemiancoding.com/sketch -->
    <title>hou</title>
    <desc>Created with Sketch.</desc>
    <defs></defs>
    <g id="前端开发用" stroke="none" stroke-width="1" fill="none" fill-rule="evenodd">
        <g id="通用基础组件_03" transform="translate(-530.000000, -5213.000000)">
            <g id="Group-7" transform="translate(530.000000, 5213.000000)">
                <rect id="Rectangle-Copy-37" fill="#FFFFFF" opacity="0" x="0" y="0" width="24" height="24"></rect>
                <g id="-1-01" transform="translate(4.000000, 4.000000)" fill="#FF8833">
                    <g>
                        <path d="M7.79289322,8 L4.14644661,4.75871412 C3.95118446,4.58514777 3.95118446,4.30374112 4.14644661,4.13017476 C4.34170876,3.95660841 4.65829124,3.95660841 4.85355339,4.13017476 L8.85355339,7.68573032 C9.04881554,7.85929667 9.04881554,8.14070333 8.85355339,8.31426968 L4.85355339,11.8698252 C4.65829124,12.0433916 4.34170876,12.0433916 4.14644661,11.8698252 C3.95118446,11.6962589 3.95118446,11.4148522 4.14644661,11.2412859 L7.79289322,8 Z M10.7928932,8 L7.14644661,4.75871412 C6.95118446,4.58514777 6.95118446,4.30374112 7.14644661,4.13017476 C7.34170876,3.95660841 7.65829124,3.95660841 7.85355339,4.13017476 L11.8535534,7.68573032 C12.0488155,7.85929667 12.0488155,8.14070333 11.8535534,8.31426968 L7.85355339,11.8698252 C7.65829124,12.0433916 7.34170876,12.0433916 7.14644661,11.8698252 C6.95118446,11.6962589 6.95118446,11.4148522 7.14644661,11.2412859 L10.7928932,8 Z" id="Combined-Shape-Copy-8" fill-rule="nonzero"></path>
                        <rect id="Rectangle-5" opacity="0" x="0" y="0" width="16" height="16"></rect>
                    </g>
                </g>
            </g>
        </g>
    </g>
</svg>