<?xml version="1.0" encoding="UTF-8"?>
<svg width="190px" height="150px" viewBox="0 0 190 150" version="1.1" xmlns="http://www.w3.org/2000/svg" xmlns:xlink="http://www.w3.org/1999/xlink">
    <!-- Generator: Sketch 43 (38999) - http://www.bohemiancoding.com/sketch -->
    <title>搜索结果为空</title>
    <desc>Created with Sketch.</desc>
    <defs>
        <rect id="path-1" x="11.7191232" y="9" width="105" height="128"></rect>
        <path d="M100,111.276611 L100,92.7519531 C100,92.7519531 107.046875,78.6494141 107.046875,59.9589844 C107.046875,41.2685547 100,32.3623047 100,32.3623047 L100,5.99307534 C100,2.68155268 97.3168135,0 94.0069352,0 L5.99306484,0 C2.68768095,0 0,2.68319122 0,5.99307534 L0,126.006925 C0,129.318447 2.68318653,132 5.99306484,132 L79.2766113,132 L100,111.276611 Z" id="path-2"></path>
        <path d="M78.7224121,132.047363 L78.7224121,116.964638 C78.7224121,113.651583 81.4149515,110.96582 84.7206121,110.96582 L100.15332,110.96582 L78.7224121,132.047363 Z" id="path-3"></path>
        <rect id="path-4" x="31" y="73" width="8" height="24"></rect>
        <path d="M42,69.2998732 L42,70.5 C42,72.9852814 39.9941413,75 37.4932497,75 L32.5067503,75 C30.0177409,75 28,72.9802243 28,70.5 L28,69.2998732 C12.0243178,66.0569809 -3.12638804e-13,51.9327054 -3.12638804e-13,35 C-3.12638804e-13,15.6700338 15.6700338,9.9475983e-14 35,9.9475983e-14 C54.3299662,9.9475983e-14 70,15.6700338 70,35 C70,51.9327054 57.9756822,66.0569809 42,69.2998732 Z M35,62 C49.9116882,62 62,49.9116882 62,35 C62,20.0883118 49.9116882,8 35,8 C20.0883118,8 8,20.0883118 8,35 C8,49.9116882 20.0883118,62 35,62 Z" id="path-5"></path>
        <rect id="path-6" x="29" y="85" width="12" height="48" rx="6"></rect>
        <path d="M29,88 C29,86.3431458 30.3416228,85 31.997152,85 L38.002848,85 C39.6581293,85 41,86.3465171 41,88 L41,91 L29,91 L29,88 Z" id="path-7"></path>
        <path d="M29,127 L41,127 L41,130 C41,131.656854 39.6583772,133 38.002848,133 L31.997152,133 C30.3418707,133 29,131.653483 29,130 L29,127 Z" id="path-8"></path>
    </defs>
    <g id="Page-1" stroke="none" stroke-width="1" fill="none" fill-rule="evenodd">
        <g id="Group-7-Copy-2" transform="translate(26.000000, 0.000000)">
            <g id="Rectangle-34" transform="translate(64.219123, 73.000000) rotate(-11.000000) translate(-64.219123, -73.000000) ">
                <use fill="#FFDDBB" fill-rule="evenodd" xlink:href="#path-1"></use>
                <rect stroke="#FF8833" stroke-width="1" x="12.2191232" y="9.5" width="104" height="127"></rect>
            </g>
            <g id="Group-9" transform="translate(24.000000, 9.000000)">
                <g id="Combined-Shape">
                    <use fill="#FFFFFF" fill-rule="evenodd" xlink:href="#path-2"></use>
                    <path stroke="#FF8833" stroke-width="1" d="M99.5,111.069505 L79.0695045,131.5 L5.99306484,131.5 C2.95874194,131.5 0.5,129.041718 0.5,126.006925 L0.5,5.99307534 C0.5,2.96094283 2.96221332,0.5 5.99306484,0.5 L94.0069352,0.5 C97.0412581,0.5 99.5,2.95828191 99.5,5.99307534 L99.5,32.3623047 L99.5,32.5361885 L99.6078934,32.6725504 C99.656123,32.7335058 99.7527411,32.8641594 99.890887,33.064928 C100.124966,33.4051172 100.386863,33.8162674 100.669724,34.2988011 C101.482108,35.6846541 102.296126,37.3611645 103.056997,39.3318257 C105.237217,44.9786144 106.546875,51.8442446 106.546875,59.9589844 C106.546875,68.0835866 105.233522,75.9370403 103.044595,83.2204708 C102.278635,85.7691224 101.458227,88.0637522 100.638332,90.0670009 C100.351849,90.7669633 100.086094,91.3801349 99.8479435,91.9018511 C99.7058993,92.2130268 99.6052021,92.4234496 99.5527307,92.5284578 L99.5,92.6339849 L99.5,92.7519531 L99.5,111.069505 Z"></path>
                </g>
                <g id="Star">
                    <use fill="#FFFFFF" fill-rule="evenodd" xlink:href="#path-3"></use>
                    <path stroke="#FF8833" stroke-width="1" d="M79.2224121,130.854147 L79.2224121,116.964638 C79.2224121,113.930239 81.6885784,111.46582 84.7206121,111.46582 L98.9320443,111.46582 L79.2224121,130.854147 Z"></path>
                </g>
            </g>
            <g id="Group-12" transform="translate(96.810889, 95.291651) rotate(40.000000) translate(-96.810889, -95.291651) translate(61.810889, 28.791651)">
                <g id="Rectangle-32">
                    <use fill="#FFFFFF" fill-rule="evenodd" xlink:href="#path-4"></use>
                    <rect stroke="#FF8833" stroke-width="1" x="31.5" y="73.5" width="7" height="23"></rect>
                </g>
                <g id="Combined-Shape">
                    <use fill="#FFDDBB" fill-rule="evenodd" xlink:href="#path-5"></use>
                    <path stroke="#FF8833" stroke-width="1" d="M41.5,69.2998732 L41.5,70.5 C41.5,72.7132803 39.7138589,74.5 37.4932497,74.5 L32.5067503,74.5 C30.2955502,74.5 28.5,72.7057476 28.5,70.5 L28.5,69.2998732 L28.5,68.8911707 L28.0994661,68.8098666 C12.1453879,65.5713596 0.5,51.4819753 0.5,35 C0.5,15.9461761 15.9461761,0.5 35,0.5 C54.0538239,0.5 69.5,15.9461761 69.5,35 C69.5,51.4819753 57.8546121,65.5713596 41.9005339,68.8098666 L41.5,68.8911707 L41.5,69.2998732 Z M35,62.5 C50.1878306,62.5 62.5,50.1878306 62.5,35 C62.5,19.8121694 50.1878306,7.5 35,7.5 C19.8121694,7.5 7.5,19.8121694 7.5,35 C7.5,50.1878306 19.8121694,62.5 35,62.5 Z"></path>
                </g>
                <g id="Rectangle-33-Copy">
                    <use fill="#FFFFFF" fill-rule="evenodd" xlink:href="#path-6"></use>
                    <rect stroke="#FF8833" stroke-width="1" x="29.5" y="85.5" width="11" height="47" rx="5.5"></rect>
                </g>
                <g id="Rectangle-33">
                    <use fill="#FFFFFF" fill-rule="evenodd" xlink:href="#path-7"></use>
                    <path stroke="#FF8833" stroke-width="1" d="M40.5,90.5 L29.5,90.5 L29.5,88 C29.5,86.6190898 30.6179635,85.5 31.997152,85.5 L38.002848,85.5 C39.3806312,85.5 40.5,86.6213021 40.5,88 L40.5,90.5 Z"></path>
                </g>
                <g id="Rectangle-33-Copy-2">
                    <use fill="#FFFFFF" fill-rule="evenodd" xlink:href="#path-8"></use>
                    <path stroke="#FF8833" stroke-width="1" d="M29.5,127.5 L40.5,127.5 L40.5,130 C40.5,131.38091 39.3820365,132.5 38.002848,132.5 L31.997152,132.5 C30.6193688,132.5 29.5,131.378698 29.5,130 L29.5,127.5 Z"></path>
                </g>
            </g>
            <path d="M123.719123,49.8705309 C121.743939,49.3036453 119.65743,49 117.5,49 C112.846135,49 108.522278,50.4129306 104.933998,52.8332218 M100.593567,56.6529261 C100.013957,57.3124089 99.4723218,58.0060849 98.972079,58.7305371 C98.6301797,59.225676 98.3076159,59.7351912 98.0054786,60.2579918" id="Oval-14" stroke="#FF8833" stroke-width="2" stroke-linecap="round" stroke-linejoin="round"></path>
        </g>
    </g>
</svg>