<?xml version="1.0" encoding="utf-8"?>
<!-- Generator: Adobe Illustrator 21.0.2, SVG Export Plug-In . SVG Version: 6.00 Build 0)  -->
<svg version="1.1" id="图层_1" xmlns="http://www.w3.org/2000/svg" xmlns:xlink="http://www.w3.org/1999/xlink" x="0px" y="0px"
	 viewBox="0 0 10 10" style="enable-background:new 0 0 10 10;" xml:space="preserve">
<style type="text/css">
	.st0{fill:#FFFFFF;}
</style>
<path id="Combined-Shape" class="st0" d="M5,0c2.8,0,5,2.2,5,5s-2.2,5-5,5S0,7.8,0,5S2.2,0,5,0z M5,8.5c1.9,0,3.5-1.6,3.5-3.6
	c0-0.8-0.3-1.6-0.7-2.2C7.6,2.5,7.3,2.4,7.1,2.6C6.8,2.8,6.8,3.1,7,3.3c0.3,0.5,0.5,1,0.5,1.6c0,1.4-1.1,2.6-2.5,2.6
	C4.7,7.5,4.5,7.7,4.5,8S4.7,8.5,5,8.5z"/>
</svg>
