<?xml version="1.0" encoding="utf-8"?>
<!-- Generator: Adobe Illustrator 21.0.2, SVG Export Plug-In . SVG Version: 6.00 Build 0)  -->
<svg version="1.1" id="图层_1" xmlns="http://www.w3.org/2000/svg" xmlns:xlink="http://www.w3.org/1999/xlink" x="0px" y="0px"
	 viewBox="0 0 16 16" style="enable-background:new 0 0 16 16;" xml:space="preserve">
<style type="text/css">
	.st0{fill:#FFFFFF;}
</style>
<path id="Switch_loading_big" class="st0" d="M8,0c4.4,0,8,3.6,8,8s-3.6,8-8,8s-8-3.6-8-8S3.6,0,8,0z M8,13.1c2.8,0,5.1-2.4,5.1-5.4
	c0-1.3-0.5-2.6-1.3-3.6c-0.2-0.2-0.6-0.3-0.8-0.1c-0.2,0.2-0.3,0.6-0.1,0.8c0.6,0.8,1,1.8,1,2.8c0,2.3-1.8,4.2-4,4.2
	c-0.3,0-0.6,0.3-0.6,0.6C7.4,12.9,7.7,13.1,8,13.1z"/>
</svg>
