<?xml version="1.0" encoding="UTF-8"?>
<svg width="20px" height="6px" viewBox="0 0 20 6" version="1.1" xmlns="http://www.w3.org/2000/svg" xmlns:xlink="http://www.w3.org/1999/xlink">
    <!-- Generator: Sketch 49.3 (51167) - http://www.bohemiancoding.com/sketch -->
    <title>pop_jiantou_on</title>
    <desc>Created with Sketch.</desc>
    <defs></defs>
    <g id="Symbols" stroke="none" stroke-width="1" fill="none" fill-rule="evenodd">
        <g id="pop_jiantou_on">
            <g>
                <path d="M19,0.0170261758 L19,1.01702618 L18.4175207,1.01702618 C16.8664266,1.01702618 15.3756009,1.61770986 14.2577893,2.69306564 L11.4743083,5.37082676 C10.5372113,6.23690341 9.27207653,6.18209798 8.52569172,5.37082676 L5.74221069,2.69306564 C4.62439911,1.61770986 3.13357335,1.01702618 1.5824793,1.01702618 L1,1.01702618 L1,0.0170261758 L19,0.0170261758 Z" id="01" fill="#FFFFFF" transform="translate(10.000000, 3.008513) scale(1, -1) translate(-10.000000, -3.008513) "></path>
                <path d="M1,0.00169681648 L1.5824793,0.00169681648 C3.13357335,0.00169681648 4.62439911,0.603399753 5.74221069,1.68058021 L8.52569172,4.362885 C9.27207653,5.1755328 10.5372113,5.23043123 11.4743083,4.362885 L14.2577893,1.68058021 C15.3756009,0.603399753 16.8664266,0.00169681648 18.4175207,0.00169681648 L19,0.00169681648 L20,0 L20,1.00339363 L18.4175207,1.00339363 C17.1249423,1.00339363 15.8825875,1.50481275 14.9510779,2.40246313 L12.1530385,5.09851882 C10.8389271,6.31509763 8.93712887,6.29032025 7.83240315,5.08476792 L5.04892212,2.40246313 C4.11741247,1.50481275 2.87505768,1.00339363 1.5824793,1.00339363 L0,1.00339363 L0,0 L1,0.00169681648 Z" id="02" fill="#EEEEEE" fill-rule="nonzero" transform="translate(10.000000, 3.000000) scale(1, -1) translate(-10.000000, -3.000000) "></path>
            </g>
        </g>
    </g>
</svg>