<?xml version="1.0" encoding="utf-8"?>
<!-- Generator: Adobe Illustrator 21.0.2, SVG Export Plug-In . SVG Version: 6.00 Build 0)  -->
<svg version="1.1" id="图层_1" xmlns="http://www.w3.org/2000/svg" xmlns:xlink="http://www.w3.org/1999/xlink" x="0px" y="0px"
	 viewBox="0 0 150 150" style="enable-background:new 0 0 150 150;" xml:space="preserve">
<style type="text/css">
	.st0{fill:#F8F8F8;}
	.st1{fill:#EEEEEE;}
	.st2{fill:#DDDDDD;}
</style>
<rect id="Rectangle" y="0" class="st0" width="150" height="150"/>
<path id="Combined-Shape" class="st1" d="M21.9,146.5c0-18.1,6.8-34,53.1-34s53.1,15.5,53.1,34v3.5H21.9V146.5z"/>
<path id="Combined-Shape-Copy" class="st2" d="M25,146.9h100v-0.4c0-21.6-11.2-30.9-50-30.9c-38.6,0-50,9.5-50,30.9V146.9z
	 M21.9,146.5c0-18.1,6.8-34,53.1-34s53.1,15.5,53.1,34v3.5H21.9V146.5z"/>
<rect id="Rectangle-27" x="26.5" y="146.2" class="st1" width="98.6" height="3"/>
<circle id="Oval-15" class="st1" cx="76.6" cy="64.3" r="42.5"/>
<path id="Oval-15-Copy" class="st2" d="M76.6,103.7c21.7,0,39.3-17.6,39.3-39.3S98.3,25,76.6,25S37.2,42.6,37.2,64.3
	S54.8,103.7,76.6,103.7z M76.6,106.8c-23.5,0-42.5-19-42.5-42.5s19-42.5,42.5-42.5s42.5,19,42.5,42.5S100,106.8,76.6,106.8z"/>
</svg>
