<?xml version="1.0" standalone="no"?>
<!DOCTYPE svg PUBLIC "-//W3C//DTD SVG 1.1//EN" "http://www.w3.org/Graphics/SVG/1.1/DTD/svg11.dtd" >
<!--
2013-9-30: Created.
-->
<svg>
<metadata>
Created by iconfont
</metadata>
<defs>

<font id="iconfont" horiz-adv-x="1024" >
  <font-face
    font-family="iconfont"
    font-weight="500"
    font-stretch="normal"
    units-per-em="1024"
    ascent="896"
    descent="-128"
  />
    <missing-glyph />
    
    <glyph glyph-name="x" unicode="x" horiz-adv-x="1001"
d="M281 543q-27 -1 -53 -1h-83q-18 0 -36.5 -6t-32.5 -18.5t-23 -32t-9 -45.5v-76h912v41q0 16 -0.5 30t-0.5 18q0 13 -5 29t-17 29.5t-31.5 22.5t-49.5 9h-133v-97h-438v97zM955 310v-52q0 -23 0.5 -52t0.5 -58t-10.5 -47.5t-26 -30t-33 -16t-31.5 -4.5q-14 -1 -29.5 -0.5
t-29.5 0.5h-32l-45 128h-439l-44 -128h-29h-34q-20 0 -45 1q-25 0 -41 9.5t-25.5 23t-13.5 29.5t-4 30v167h911zM163 247q-12 0 -21 -8.5t-9 -21.5t9 -21.5t21 -8.5q13 0 22 8.5t9 21.5t-9 21.5t-22 8.5zM316 123q-8 -26 -14 -48q-5 -19 -10.5 -37t-7.5 -25t-3 -15t1 -14.5
t9.5 -10.5t21.5 -4h37h67h81h80h64h36q23 0 34 12t2 38q-5 13 -9.5 30.5t-9.5 34.5q-5 19 -11 39h-368zM336 498v228q0 11 2.5 23t10 21.5t20.5 15.5t34 6h188q31 0 51.5 -14.5t20.5 -52.5v-227h-327z" />
    

    
    <glyph glyph-name="color-stars_full" unicode="&#58885;" d="M716.705 25.148l-257.363-141.478c-49.241-27.129-81.897-4.3-72.582 52.824l49.548 301.792-208.224 212.114c-39.925 40.642-27.743 80.362 29.688 89.064l285.617 43.406 129.603 274.664c24.16 51.186 63.573 50.572 87.426 0l129.603-274.561 285.72-43.406c56.305-8.497 69.613-48.217 29.688-89.064l-208.327-212.217 49.446-301.792c9.213-56.305-23.034-80.055-72.582-52.824l-257.26 141.478zM3583.117 25.148l-257.363-141.478c-49.241-27.129-81.897-4.3-72.582 52.824l49.548 301.792-208.224 212.217c-39.925 40.642-27.743 80.362 29.688 89.064l285.617 43.406 129.603 274.561c24.16 51.186 63.573 50.572 87.426 0l129.603-274.561 285.72-43.406c56.305-8.497 69.613-48.217 29.688-89.064l-208.327-212.217 49.446-301.792c9.213-56.305-23.034-80.055-72.582-52.824l-257.363 141.478zM2149.911 25.148l-257.363-141.478c-49.241-27.129-81.897-4.3-72.582 52.824l49.548 301.792-208.224 212.217c-39.925 40.642-27.743 80.362 29.688 89.064l285.617 43.406 129.603 274.561c24.16 51.186 63.573 50.572 87.426 0l129.603-274.561 285.72-43.406c56.305-8.497 69.613-48.217 29.688-89.064l-208.327-212.217 49.446-301.792c9.213-56.305-23.034-80.055-72.582-52.824l-257.363 141.478zM5016.323 25.148l-257.363-141.478c-49.241-27.129-81.897-4.3-72.582 52.824l49.548 301.792-208.224 212.217c-39.925 40.642-27.743 80.362 29.688 89.064l285.617 43.406 129.603 274.561c24.16 51.186 63.573 50.572 87.426 0l129.603-274.561 285.72-43.406c56.305-8.497 69.613-48.217 29.688-89.064l-208.327-212.217 49.446-301.792c9.213-56.305-23.034-80.055-72.582-52.824l-257.363 141.478zM6449.529 25.148l-257.363-141.478c-49.241-27.129-81.897-4.3-72.582 52.824l49.548 301.792-208.224 212.217c-39.925 40.642-27.743 80.362 29.688 89.064l285.617 43.406 129.603 274.561c24.16 51.186 63.573 50.572 87.426 0l129.603-274.561 285.72-43.406c56.305-8.497 69.613-48.217 29.688-89.064l-208.327-212.217 49.446-301.792c9.213-56.305-23.034-80.055-72.582-52.824l-257.363 141.478z"  horiz-adv-x="7166" />

    
    <glyph glyph-name="color-stars_empty" unicode="&#58886;" d="M716.705 25.148l-257.363-141.478c-49.241-27.129-81.897-4.3-72.582 52.824l49.548 301.792-208.224 212.114c-39.925 40.642-27.743 80.362 29.688 89.064l285.617 43.406 129.603 274.664c24.16 51.186 63.573 50.572 87.426 0l129.603-274.561 285.72-43.406c56.305-8.497 69.613-48.217 29.688-89.064l-208.327-212.217 49.446-301.792c9.213-56.305-23.034-80.055-72.582-52.824l-257.26 141.478zM3583.117 25.148l-257.363-141.478c-49.241-27.129-81.897-4.3-72.582 52.824l49.548 301.792-208.224 212.217c-39.925 40.642-27.743 80.362 29.688 89.064l285.617 43.406 129.603 274.561c24.16 51.186 63.573 50.572 87.426 0l129.603-274.561 285.72-43.406c56.305-8.497 69.613-48.217 29.688-89.064l-208.327-212.217 49.446-301.792c9.213-56.305-23.034-80.055-72.582-52.824l-257.363 141.478zM2149.911 25.148l-257.363-141.478c-49.241-27.129-81.897-4.3-72.582 52.824l49.548 301.792-208.224 212.217c-39.925 40.642-27.743 80.362 29.688 89.064l285.617 43.406 129.603 274.561c24.16 51.186 63.573 50.572 87.426 0l129.603-274.561 285.72-43.406c56.305-8.497 69.613-48.217 29.688-89.064l-208.327-212.217 49.446-301.792c9.213-56.305-23.034-80.055-72.582-52.824l-257.363 141.478zM5016.323 25.148l-257.363-141.478c-49.241-27.129-81.897-4.3-72.582 52.824l49.548 301.792-208.224 212.217c-39.925 40.642-27.743 80.362 29.688 89.064l285.617 43.406 129.603 274.561c24.16 51.186 63.573 50.572 87.426 0l129.603-274.561 285.72-43.406c56.305-8.497 69.613-48.217 29.688-89.064l-208.327-212.217 49.446-301.792c9.213-56.305-23.034-80.055-72.582-52.824l-257.363 141.478zM6449.529 25.148l-257.363-141.478c-49.241-27.129-81.897-4.3-72.582 52.824l49.548 301.792-208.224 212.217c-39.925 40.642-27.743 80.362 29.688 89.064l285.617 43.406 129.603 274.561c24.16 51.186 63.573 50.572 87.426 0l129.603-274.561 285.72-43.406c56.305-8.497 69.613-48.217 29.688-89.064l-208.327-212.217 49.446-301.792c9.213-56.305-23.034-80.055-72.582-52.824l-257.363 141.478z"  horiz-adv-x="7166" />

    
    <glyph glyph-name="color-big_data" unicode="&#58887;" d="M92.16 92.16c-56.32 81.92-92.16 184.32-92.16 291.84 0 281.6 230.4 512 512 512v-563.2l-419.84-240.64zM66.56 138.24c87.040-158.72 250.88-266.24 445.44-266.24 281.6 0 512 230.4 512 512h-512l-445.44-245.76zM1013.76 496.64l-61.44-61.44h-81.92l122.88 122.88c10.24-20.48 15.36-40.96 20.48-61.44zM972.8 609.28l-174.080-174.080h-81.92l225.28 225.28c10.24-15.36 20.48-35.84 30.72-51.2zM911.36 701.44l-266.24-266.24h-81.92l312.32 312.32c10.24-15.36 25.6-30.72 35.84-46.080zM834.56 778.24l-271.36-271.36v81.92l225.28 225.28c15.36-10.24 30.72-20.48 46.080-35.84zM742.4 839.68l-179.2-179.2v81.92l122.88 122.88c20.48-5.12 40.96-15.36 56.32-25.6zM629.76 880.64l-66.56-66.56v81.92c25.6-5.12 46.080-10.24 66.56-15.36z"  horiz-adv-x="1024" />

    
    <glyph glyph-name="color-todo" unicode="&#58888;" d="M56.889 896h341.333c34.133 0 56.889-22.756 56.889-56.889v-341.333c0-34.133-22.756-56.889-56.889-56.889h-341.333c-34.133 0-56.889 22.756-56.889 56.889v341.333c0 34.133 22.756 56.889 56.889 56.889zM625.778 896h341.333c34.133 0 56.889-22.756 56.889-56.889v-341.333c0-34.133-22.756-56.889-56.889-56.889h-341.333c-34.133 0-56.889 22.756-56.889 56.889v341.333c0 34.133 22.756 56.889 56.889 56.889zM56.889 327.111h341.333c34.133 0 56.889-22.756 56.889-56.889v-341.333c0-34.133-22.756-56.889-56.889-56.889h-341.333c-34.133 0-56.889 22.756-56.889 56.889v341.333c0 34.133 22.756 56.889 56.889 56.889zM608.711 179.2c-22.756 22.756-62.578 17.067-79.644-5.689-22.756-22.756-17.067-62.578 5.689-79.644l176.356-153.6c22.756-22.756 56.889-17.067 79.644 5.689l307.2 341.333c22.756 22.756 17.067 56.889-5.689 79.644s-56.889 17.067-79.644-5.689l-267.378-301.511-136.533 119.467z"  horiz-adv-x="1137" />

    
    <glyph glyph-name="color-yi" unicode="&#58889;" d="M51.2 384c0-0 0-0 0-0 0-254.493 206.307-460.8 460.8-460.8 254.493 0 460.8 206.307 460.8 460.8 0 0 0 0 0 0 0 254.493-206.307 460.8-460.8 460.8-254.493 0-460.8-206.307-460.8-460.8zM133.12 384c0-209.25 169.63-378.88 378.88-378.88s378.88 169.63 378.88 378.88c0 209.25-169.63 378.88-378.88 378.88-209.25 0-378.88-169.63-378.88-378.88zM650.24 496.64v-281.6h92.16v-35.84h-450.56v35.84h92.16v281.6h266.24zM424.96 209.92h189.44v61.44h-189.44v-61.44zM424.96 307.2h189.44v61.44h-189.44v-61.44zM424.96 399.36h189.44v61.44h-189.44v-61.44zM721.92 583.68v-102.4h-35.84v66.56h-337.92v-71.68h-35.84v102.4h184.32c-5.12 20.48-10.24 35.84-20.48 51.2l40.96 5.12c5.12-15.36 15.36-30.72 20.48-51.2h184.32z"  horiz-adv-x="1024" />

    
    <glyph glyph-name="color-Daily" unicode="&#58890;" d="M568.889 611.556l-142.222 233.244c-17.067 28.444-51.2 51.2-85.333 51.2h-284.444c-34.133 0-45.511-22.756-28.444-51.2l284.444-472.178c17.067-22.756 51.2-45.511 85.333-45.511h341.333c34.133 0 68.267 22.756 85.333 51.2l284.444 472.178c17.067 22.756 5.689 45.511-28.444 45.511h-284.444c-34.133 0-68.267-22.756-85.333-51.2l-142.222-233.244zM568.889-71.111c187.733 0 341.333 153.6 341.333 341.333s-153.6 341.333-341.333 341.333-341.333-153.6-341.333-341.333 153.6-341.333 341.333-341.333zM568.889-71.111c187.733 0 341.333 153.6 341.333 341.333s-153.6 341.333-341.333 341.333-341.333-153.6-341.333-341.333 153.6-341.333 341.333-341.333zM568.889-128c-221.867 0-398.222 176.356-398.222 398.222s176.356 398.222 398.222 398.222 398.222-176.356 398.222-398.222-176.356-398.222-398.222-398.222zM557.511 110.933l-125.156-68.267c-28.444-17.067-45.511 0-39.822 28.444l22.756 142.222-102.4 96.711c-22.756 22.756-11.378 45.511 17.067 51.2l142.222 22.756 62.578 125.156c11.378 28.444 34.133 28.444 51.2 0l62.578-125.156 142.222-22.756c28.444-5.689 39.822-28.444 17.067-45.511l-108.089-102.4 22.756-142.222c5.689-28.444-11.378-45.511-39.822-28.444l-125.156 68.267z"  horiz-adv-x="1137" />

    
    <glyph glyph-name="color-calendar" unicode="&#58891;" d="M2048 896h3413.333v-1024h-3413.333v1024zM2082.133-93.867h3345.067v955.733h-3345.067v-955.733zM2150.4 793.6h3208.533v-819.2h-3208.533v819.2zM2218.667 42.667h3072v682.667h-3072v-682.667zM375.467 725.333l-375.467-341.333 375.467-341.333h1672.533v682.667zM443.733 622.933l535.893-477.867 546.133 477.867zM1536 622.933l512-457.387v457.387zM419.84 145.067l-266.24 238.933 266.24 238.933h1624.747v34.133h-1638.4l-303.787-273.067 23.893-20.48 279.893-252.587h1638.4v34.133zM5461.333 725.333v-682.667h1672.533l375.467 341.333-375.467 341.333zM7065.6 622.933l-535.893-477.867-546.133 477.867zM5973.333 622.933l-512-457.387v457.387zM7089.493 145.067l266.24 238.933-266.24 238.933h-1624.747v34.133h1638.4l303.787-273.067-23.893-20.48-279.893-252.587h-1638.4v34.133z"  horiz-adv-x="7509" />

    
    <glyph glyph-name="color-ring" unicode="&#58892;" d="M830.578 261.689c14.222 39.822 22.756 79.644 22.756 125.156 0 167.822-122.311 307.2-284.444 335.644v170.667c256-28.444 455.111-244.622 455.111-509.156 0-73.956-17.067-147.911-45.511-210.489l-147.911 88.178zM512 45.511c102.4 0 196.267 45.511 258.844 119.467l147.911-85.333c-93.867-122.311-241.778-201.956-406.756-201.956-281.6 0-512 230.4-512 512 0 258.844 199.111 475.022 455.111 503.467v-173.511c-162.133-25.6-284.444-164.978-284.444-332.8 0-190.578 153.6-341.333 341.333-341.333z"  horiz-adv-x="1024" />

    
    <glyph glyph-name="color-wyjob_grey" unicode="&#58897;" d="M512 896c281.6 0 512-230.4 512-512s-230.4-512-512-512-512 230.4-512 512 230.4 512 512 512M428.8 364.8s-32 83.2-89.6 83.2-64-44.8-64-64c0-19.2 12.8-51.2 44.8-51.2s32 6.4 51.2 6.4c19.2 0 44.8-12.8 44.8-38.4 0-25.6-6.4-38.4-12.8-38.4s-12.8 6.4-12.8 12.8 6.4 12.8 6.4 25.6-6.4 32-44.8 32c-32 0-38.4-51.2-38.4-64 0-12.8 0-89.6 64-140.8 64-51.2 108.8-57.6 153.6-57.6s102.4 12.8 140.8 51.2c44.8 44.8 44.8 140.8 44.8 140.8s12.8 19.2 19.2 44.8c6.4 25.6 38.4 230.4 38.4 256 0 25.6-12.8 64-51.2 70.4-32 6.4-51.2-12.8-57.6-38.4-6.4-25.6-25.6-230.4-25.6-230.4s0-6.4-6.4-6.4c0 0-6.4 0-6.4 6.4s25.6 256 25.6 288-32 57.6-64 64c-32 0-44.8-32-44.8-51.2 0-19.2-12.8-294.4-12.8-294.4s0-6.4-6.4-6.4-6.4 6.4-6.4 6.4c0 6.4 12.8 268.8 12.8 288 0 19.2-25.6 44.8-51.2 44.8s-44.8-12.8-44.8-32l-6.4-307.2z"  horiz-adv-x="1024" />

    
    <glyph glyph-name="color-wbtongcheng_gr" unicode="&#58898;" d="M499.2 896c275.2 0 499.2-224 499.2-499.2s-224-499.2-499.2-499.2-499.2 224-499.2 499.2 224 499.2 499.2 499.2M640 460.8c25.6 0 51.2 19.2 51.2 51.2s-25.6 51.2-51.2 51.2-51.2-25.6-51.2-51.2c-6.4-25.6 19.2-51.2 51.2-51.2M716.8 313.6v12.8c-6.4 44.8-51.2 70.4-96 64-44.8-12.8-70.4-51.2-57.6-96 12.8-38.4 51.2-64 96-57.6 32 6.4 57.6 38.4 57.6 76.8M492.8 275.2c-19.2-38.4-51.2-64-89.6-70.4-51.2-12.8-108.8 6.4-140.8 51.2-12.8 19.2-6.4 51.2 19.2 57.6 12.8 0 25.6 0 38.4-12.8 12.8-12.8 25.6-19.2 38.4-25.6 38.4-6.4 70.4 19.2 76.8 51.2 6.4 32-19.2 64-51.2 64-19.2 6.4-38.4 0-57.6-19.2-12.8-12.8-25.6-12.8-38.4-12.8-12.8 6.4-19.2 12.8-25.6 25.6v147.2c0 25.6 19.2 51.2 51.2 51.2h140.8c19.2 0 32-12.8 38.4-32 0-19.2-12.8-32-25.6-38.4h-115.2c-6.4 0-6.4 0-6.4-6.4v-57.6c32 6.4 64 6.4 96-12.8s51.2-44.8 64-76.8c12.8 25.6 25.6 44.8 44.8 64l-6.4 6.4c-19.2 25.6-32 51.2-32 83.2 0 57.6 38.4 102.4 96 115.2 57.6 12.8 121.6-12.8 140.8-70.4 19.2-44.8 12.8-89.6-19.2-128 6.4 0 6.4-6.4 12.8-6.4 32-32 51.2-70.4 51.2-121.6-6.4-64-51.2-121.6-115.2-134.4-70.4-19.2-147.2 19.2-172.8 89.6-12.8 6.4-12.8 12.8-12.8 19.2z"  horiz-adv-x="1024" />

    
    <glyph glyph-name="color-dajie_grey" unicode="&#58899;" d="M505.6 896c275.2 0 499.2-224 499.2-499.2s-224-499.2-499.2-499.2-499.2 224-499.2 499.2 224 499.2 499.2 499.2M524.8 569.6h25.6l64-76.8 12.8-313.6-102.4-115.2v505.6z m-83.2 128h134.4l12.8-12.8v-38.4l-51.2-76.8h-25.6l-89.6 76.8v38.4l19.2 12.8z m83.2-512v-115.2h-147.2l-51.2 57.6 51.2 57.6h147.2z"  horiz-adv-x="1024" />

    
    <glyph glyph-name="color-wyjob" unicode="&#58900;" d="M512 896c281.6 0 512-230.4 512-512s-230.4-512-512-512-512 230.4-512 512 230.4 512 512 512M428.8 364.8s-32 83.2-89.6 83.2-64-44.8-64-64c0-19.2 12.8-51.2 44.8-51.2s32 6.4 51.2 6.4c19.2 0 44.8-12.8 44.8-38.4 0-25.6-6.4-38.4-12.8-38.4s-12.8 6.4-12.8 12.8 6.4 12.8 6.4 25.6-6.4 32-44.8 32c-32 0-38.4-51.2-38.4-64 0-12.8 0-89.6 64-140.8 64-51.2 108.8-57.6 153.6-57.6s102.4 12.8 140.8 51.2c44.8 44.8 44.8 140.8 44.8 140.8s12.8 19.2 19.2 44.8c6.4 25.6 38.4 230.4 38.4 256 0 25.6-12.8 64-51.2 70.4-32 6.4-51.2-12.8-57.6-38.4-6.4-25.6-25.6-230.4-25.6-230.4s0-6.4-6.4-6.4c0 0-6.4 0-6.4 6.4s25.6 256 25.6 288-32 57.6-64 64c-32 0-44.8-32-44.8-51.2 0-19.2-12.8-294.4-12.8-294.4s0-6.4-6.4-6.4-6.4 6.4-6.4 6.4c0 6.4 12.8 268.8 12.8 288 0 19.2-25.6 44.8-51.2 44.8s-44.8-12.8-44.8-32l-6.4-307.2z"  horiz-adv-x="1024" />

    
    <glyph glyph-name="color-dajie" unicode="&#58901;" d="M505.6 896c275.2 0 499.2-224 499.2-499.2s-224-499.2-499.2-499.2-499.2 224-499.2 499.2 224 499.2 499.2 499.2M524.8 569.6h25.6l64-76.8 12.8-313.6-102.4-115.2v505.6z m-83.2 128h134.4l12.8-12.8v-38.4l-51.2-76.8h-25.6l-89.6 76.8v38.4l19.2 12.8z m83.2-512v-115.2h-147.2l-51.2 57.6 51.2 57.6h147.2z"  horiz-adv-x="1024" />

    
    <glyph glyph-name="color-wbtongcheng" unicode="&#58902;" d="M499.2 896c275.2 0 499.2-224 499.2-499.2s-224-499.2-499.2-499.2-499.2 224-499.2 499.2 224 499.2 499.2 499.2M640 460.8c25.6 0 51.2 19.2 51.2 51.2s-25.6 51.2-51.2 51.2-51.2-25.6-51.2-51.2c-6.4-25.6 19.2-51.2 51.2-51.2M716.8 313.6v12.8c-6.4 44.8-51.2 70.4-96 64-44.8-12.8-70.4-51.2-57.6-96 12.8-38.4 51.2-64 96-57.6 32 6.4 57.6 38.4 57.6 76.8M492.8 275.2c-19.2-38.4-51.2-64-89.6-70.4-51.2-12.8-108.8 6.4-140.8 51.2-12.8 19.2-6.4 51.2 19.2 57.6 12.8 0 25.6 0 38.4-12.8 12.8-12.8 25.6-19.2 38.4-25.6 38.4-6.4 70.4 19.2 76.8 51.2 6.4 32-19.2 64-51.2 64-19.2 6.4-38.4 0-57.6-19.2-12.8-12.8-25.6-12.8-38.4-12.8-12.8 6.4-19.2 12.8-25.6 25.6v147.2c0 25.6 19.2 51.2 51.2 51.2h140.8c19.2 0 32-12.8 38.4-32 0-19.2-12.8-32-25.6-38.4h-115.2c-6.4 0-6.4 0-6.4-6.4v-57.6c32 6.4 64 6.4 96-12.8s51.2-44.8 64-76.8c12.8 25.6 25.6 44.8 44.8 64l-6.4 6.4c-19.2 25.6-32 51.2-32 83.2 0 57.6 38.4 102.4 96 115.2 57.6 12.8 121.6-12.8 140.8-70.4 19.2-44.8 12.8-89.6-19.2-128 6.4 0 6.4-6.4 12.8-6.4 32-32 51.2-70.4 51.2-121.6-6.4-64-51.2-121.6-115.2-134.4-70.4-19.2-147.2 19.2-172.8 89.6-12.8 6.4-12.8 12.8-12.8 19.2z"  horiz-adv-x="1024" />

    
    <glyph glyph-name="color-ganji" unicode="&#58903;" d="M505.6 883.2c275.2 0 499.2-224 499.2-499.2s-224-499.2-499.2-499.2-499.2 224-499.2 499.2 224 499.2 499.2 499.2M652.8 377.6h89.6v64h-89.6v96h70.4v64h-211.2v-64h76.8v-96h-83.2v-64h83.2v-147.2h70.4v147.2z m-160 76.8h-70.4v51.2h70.4v57.6h-70.4v57.6h-64v-57.6h-76.8v-57.6h76.8v-51.2h-89.6v-57.6h115.2v-147.2c-12.8 12.8-19.2 25.6-32 44.8v83.2h-57.6c0-83.2-6.4-147.2-32-179.2 19.2-19.2 38.4-38.4 51.2-57.6 12.8 19.2 19.2 44.8 25.6 70.4 12.8-19.2 25.6-32 44.8-38.4l57.6-19.2c19.2 0 51.2 0 108.8-6.4h179.2c6.4 25.6 12.8 51.2 25.6 70.4h-192c-57.6 0-96 0-115.2 6.4v64h57.6v57.6h-57.6v51.2h44.8v57.6z"  horiz-adv-x="1024" />

    
    <glyph glyph-name="color-lagou_grey" unicode="&#58904;" d="M505.6 896c275.2 0 499.2-224 499.2-499.2s-224-499.2-499.2-499.2-499.2 224-499.2 499.2 224 499.2 499.2 499.2M825.6 396.8v12.8c0 19.2-6.4 38.4-12.8 57.6-6.4 25.6-25.6 51.2-57.6 57.6-25.6 6.4-57.6-12.8-57.6-44.8 0-12.8 0-25.6-6.4-38.4-6.4-12.8-12.8-19.2-25.6-25.6-12.8-6.4-25.6-6.4-38.4 6.4l-6.4 6.4c-19.2 19.2-44.8 19.2-64 0-19.2-19.2-25.6-19.2-44.8 0-19.2 19.2-44.8 19.2-64 0-12.8-12.8-25.6-12.8-38.4 0-19.2 19.2-44.8 19.2-64 0l-6.4-6.4c-12.8-12.8-32-6.4-32 12.8-6.4 19.2 0 38.4 6.4 57.6 32 70.4 83.2 115.2 160 128 70.4 12.8 128 0 185.6-38.4 6.4-6.4 12.8-6.4 19.2-12.8 12.8-6.4 19.2-6.4 32 6.4 6.4 6.4 12.8 19.2 6.4 32 0 6.4-6.4 6.4-6.4 12.8-57.6 51.2-128 83.2-211.2 83.2-172.8 0-313.6-140.8-313.6-313.6s140.8-313.6 313.6-313.6c134.4 0 243.2 83.2 294.4 198.4 12.8 25.6 19.2 57.6 19.2 89.6 12.8 12.8 12.8 19.2 12.8 32"  horiz-adv-x="1024" />

    
    <glyph glyph-name="color-ganji_grey" unicode="&#58905;" d="M505.6 883.2c275.2 0 499.2-224 499.2-499.2s-224-499.2-499.2-499.2-499.2 224-499.2 499.2 224 499.2 499.2 499.2M652.8 377.6h89.6v64h-89.6v96h70.4v64h-211.2v-64h76.8v-96h-83.2v-64h83.2v-147.2h70.4v147.2z m-160 76.8h-70.4v51.2h70.4v57.6h-70.4v57.6h-64v-57.6h-76.8v-57.6h76.8v-51.2h-89.6v-57.6h115.2v-147.2c-12.8 12.8-19.2 25.6-32 44.8v83.2h-57.6c0-83.2-6.4-147.2-32-179.2 19.2-19.2 38.4-38.4 51.2-57.6 12.8 19.2 19.2 44.8 25.6 70.4 12.8-19.2 25.6-32 44.8-38.4l57.6-19.2c19.2 0 51.2 0 108.8-6.4h179.2c6.4 25.6 12.8 51.2 25.6 70.4h-192c-57.6 0-96 0-115.2 6.4v64h57.6v57.6h-57.6v51.2h44.8v57.6z"  horiz-adv-x="1024" />

    
    <glyph glyph-name="color-lagou" unicode="&#58906;" d="M505.6 896c275.2 0 499.2-224 499.2-499.2s-224-499.2-499.2-499.2-499.2 224-499.2 499.2 224 499.2 499.2 499.2M825.6 396.8v12.8c0 19.2-6.4 38.4-12.8 57.6-6.4 25.6-25.6 51.2-57.6 57.6-25.6 6.4-57.6-12.8-57.6-44.8 0-12.8 0-25.6-6.4-38.4-6.4-12.8-12.8-19.2-25.6-25.6-12.8-6.4-25.6-6.4-38.4 6.4l-6.4 6.4c-19.2 19.2-44.8 19.2-64 0-19.2-19.2-25.6-19.2-44.8 0-19.2 19.2-44.8 19.2-64 0-12.8-12.8-25.6-12.8-38.4 0-19.2 19.2-44.8 19.2-64 0l-6.4-6.4c-12.8-12.8-32-6.4-32 12.8-6.4 19.2 0 38.4 6.4 57.6 32 70.4 83.2 115.2 160 128 70.4 12.8 128 0 185.6-38.4 6.4-6.4 12.8-6.4 19.2-12.8 12.8-6.4 19.2-6.4 32 6.4 6.4 6.4 12.8 19.2 6.4 32 0 6.4-6.4 6.4-6.4 12.8-57.6 51.2-128 83.2-211.2 83.2-172.8 0-313.6-140.8-313.6-313.6s140.8-313.6 313.6-313.6c134.4 0 243.2 83.2 294.4 198.4 12.8 25.6 19.2 57.6 19.2 89.6 12.8 12.8 12.8 19.2 12.8 32"  horiz-adv-x="1024" />

    
    <glyph glyph-name="color-liepin_grey" unicode="&#58907;" d="M512 896c281.6 0 512-230.4 512-512s-230.4-512-512-512-512 230.4-512 512 230.4 512 512 512M729.6 108.8c-12.8-25.6-32-38.4-57.6-38.4-6.4 0-19.2 6.4-38.4 12.8-166.4 70.4-320 147.2-454.4 262.4-12.8 6.4-25.6 25.6-25.6 44.8 0 19.2 12.8 38.4 25.6 44.8 140.8 115.2 300.8 204.8 473.6 262.4 6.4 0 12.8 6.4 25.6 6.4 25.6 0 44.8-19.2 51.2-44.8 25.6-89.6 32-179.2 32-275.2 6.4-89.6-6.4-185.6-32-275.2M409.6 249.6h268.8l12.8 64h-179.2l64 256h-89.6z"  horiz-adv-x="1024" />

    
    <glyph glyph-name="color-liepin" unicode="&#58908;" d="M512 896c281.6 0 512-230.4 512-512s-230.4-512-512-512-512 230.4-512 512 230.4 512 512 512M729.6 108.8c-12.8-25.6-32-38.4-57.6-38.4-6.4 0-19.2 6.4-38.4 12.8-166.4 70.4-320 147.2-454.4 262.4-12.8 6.4-25.6 25.6-25.6 44.8 0 19.2 12.8 38.4 25.6 44.8 140.8 115.2 300.8 204.8 473.6 262.4 6.4 0 12.8 6.4 25.6 6.4 25.6 0 44.8-19.2 51.2-44.8 25.6-89.6 32-179.2 32-275.2 6.4-89.6-6.4-185.6-32-275.2M409.6 249.6h268.8l12.8 64h-179.2l64 256h-89.6z"  horiz-adv-x="1024" />

    
    <glyph glyph-name="color-linkedin_grey" unicode="&#58909;" d="M512 896c281.6 0 512-230.4 512-512s-230.4-512-512-512-512 230.4-512 512 230.4 512 512 512M320 646.4c-38.4 0-64-25.6-64-57.6s25.6-57.6 64-57.6 64 25.6 64 57.6-25.6 57.6-64 57.6z m-57.6-505.6h108.8v339.2h-108.8v-339.2z m524.8 198.4c0 19.2 0 32-6.4 51.2-12.8 44.8-32 83.2-83.2 96-51.2 12.8-108.8 6.4-140.8-44.8l-6.4-6.4v44.8h-115.2v-339.2h115.2v12.8 179.2c0 12.8 6.4 25.6 12.8 38.4 12.8 19.2 32 32 57.6 25.6 25.6 0 38.4-19.2 44.8-38.4 0-12.8 6.4-25.6 6.4-38.4V140.8h115.2v6.4 192z"  horiz-adv-x="1024" />

    
    <glyph glyph-name="color-linkedin" unicode="&#58910;" d="M512 896c281.6 0 512-230.4 512-512s-230.4-512-512-512-512 230.4-512 512 230.4 512 512 512M320 646.4c-38.4 0-64-25.6-64-57.6s25.6-57.6 64-57.6 64 25.6 64 57.6-25.6 57.6-64 57.6z m-57.6-505.6h108.8v339.2h-108.8v-339.2z m524.8 198.4c0 19.2 0 32-6.4 51.2-12.8 44.8-32 83.2-83.2 96-51.2 12.8-108.8 6.4-140.8-44.8l-6.4-6.4v44.8h-115.2v-339.2h115.2v12.8 179.2c0 12.8 6.4 25.6 12.8 38.4 12.8 19.2 32 32 57.6 25.6 25.6 0 38.4-19.2 44.8-38.4 0-12.8 6.4-25.6 6.4-38.4V140.8h115.2v6.4 192z"  horiz-adv-x="1024" />

    
    <glyph glyph-name="color-lietou" unicode="&#58911;" d="M1024 384c0-281.6-230.4-512-512-512s-512 230.4-512 512 230.4 512 512 512 512-230.4 512-512zM454.4 640h76.8v70.4h64v-70.4h96v70.4h64v-70.4h76.8v-57.6h-76.8v-70.4h89.6v-64h-403.2v64h89.6v70.4h-76.8v57.6z m140.8-128h96v70.4h-96v-70.4z m211.2-102.4v-326.4h-64v25.6h-192v-25.6h-64v326.4h320z m-256-243.2h192v64h-192v-64z m0 121.6h192v64h-192v-64z m-147.2 422.4l51.2-32c-25.6-44.8-51.2-76.8-83.2-108.8 6.4-6.4 6.4-12.8 12.8-25.6 19.2-57.6 32-134.4 32-236.8 0-115.2-12.8-179.2-44.8-204.8-12.8-12.8-38.4-19.2-64-19.2h-57.6l-19.2 64c19.2 0 38.4-6.4 57.6-6.4s32 6.4 38.4 12.8c12.8 19.2 19.2 70.4 19.2 153.6v57.6c-32-44.8-70.4-83.2-108.8-115.2l-38.4 57.6c57.6 38.4 108.8 89.6 140.8 140.8-6.4 25.6-12.8 44.8-19.2 64v6.4c-25.6-19.2-51.2-38.4-83.2-57.6l-38.4 57.6c32 12.8 64 38.4 89.6 57.6-19.2 32-44.8 57.6-70.4 83.2l51.2 38.4c25.6-25.6 44.8-51.2 64-76.8 32 32 51.2 57.6 70.4 89.6z"  horiz-adv-x="1024" />

    
    <glyph glyph-name="color-neitui" unicode="&#58912;" d="M512 896c281.6 0 512-230.4 512-512s-230.4-512-512-512-512 230.4-512 512 230.4 512 512 512M505.6 428.8c51.2-57.6 96-108.8 128-160l44.8 44.8c-44.8 57.6-96 115.2-160 172.8 6.4 19.2 6.4 38.4 12.8 64h160v-332.8c0-19.2-6.4-25.6-25.6-25.6h-96l19.2-57.6h96c44.8 0 64 25.6 64 70.4v403.2h-217.6c0 32 6.4 64 6.4 96h-57.6c0-32 0-64-6.4-96h-224v-480h57.6v422.4h160c-6.4-25.6-6.4-44.8-12.8-64-19.2-70.4-64-121.6-134.4-172.8l38.4-44.8c76.8 38.4 121.6 96 147.2 160z"  horiz-adv-x="1024" />

    
    <glyph glyph-name="color-rencaiku" unicode="&#58913;" d="M512 896c281.6 0 512-230.4 512-512s-230.4-512-512-512-512 230.4-512 512 230.4 512 512 512M544 716.8h-70.4v-102.4c-6.4-185.6-89.6-326.4-262.4-428.8l38.4-57.6c134.4 83.2 217.6 192 262.4 326.4 51.2-134.4 134.4-243.2 256-326.4l44.8 57.6c-147.2 89.6-236.8 217.6-275.2 384 6.4 44.8 6.4 89.6 6.4 147.2z"  horiz-adv-x="1024" />

    
    <glyph glyph-name="color-zhilian_grey" unicode="&#58914;" d="M499.2 896c275.2 0 499.2-224 499.2-499.2s-224-499.2-499.2-499.2-499.2 224-499.2 499.2 224 499.2 499.2 499.2M435.2 377.6h345.6l-6.4-38.4h-339.2zM716.8 531.2h-57.6l6.4 32h57.6l-6.4-32z m-12.8-76.8h-57.6l6.4 32h57.6l-6.4-32z m-96 76.8h-57.6l6.4 32h57.6l-6.4-32z m-19.2-76.8h-57.6l6.4 32h57.6l-6.4-32z m-70.4 153.6l-38.4-198.4h268.8l38.4 198.4h-268.8zM640 659.2h51.2l-19.2-51.2h-44.8zM537.6 313.6l12.8 32h-57.6l-32-76.8h185.6s-6.4-38.4-12.8-44.8c-6.4-12.8-25.6-12.8-25.6-12.8h-121.6l-12.8-44.8h160s38.4 6.4 44.8 32c12.8 32 25.6 76.8 25.6 76.8l6.4 44.8h-172.8zM211.2 281.6l243.2 32v-51.2l-243.2-38.4zM396.8 518.4h-57.6l6.4 70.4h57.6l-6.4-70.4z m-19.2-102.4h-57.6l6.4 64h57.6l-6.4-64z m-19.2-108.8l-57.6-6.4 6.4 70.4h57.6l-6.4-64z m-83.2 326.4l-6.4-44.8h32l-64-352 102.4 19.2-12.8-96h57.6l76.8 428.8h32l6.4 51.2h-224z"  horiz-adv-x="1024" />

    
    <glyph glyph-name="color-zhilian" unicode="&#58915;" d="M499.2 896c275.2 0 499.2-224 499.2-499.2s-224-499.2-499.2-499.2-499.2 224-499.2 499.2 224 499.2 499.2 499.2M435.2 377.6h345.6l-6.4-38.4h-339.2zM716.8 531.2h-57.6l6.4 32h57.6l-6.4-32z m-12.8-76.8h-57.6l6.4 32h57.6l-6.4-32z m-96 76.8h-57.6l6.4 32h57.6l-6.4-32z m-19.2-76.8h-57.6l6.4 32h57.6l-6.4-32z m-70.4 153.6l-38.4-198.4h268.8l38.4 198.4h-268.8zM640 659.2h51.2l-19.2-51.2h-44.8zM537.6 313.6l12.8 32h-57.6l-32-76.8h185.6s-6.4-38.4-12.8-44.8c-6.4-12.8-25.6-12.8-25.6-12.8h-121.6l-12.8-44.8h160s38.4 6.4 44.8 32c12.8 32 25.6 76.8 25.6 76.8l6.4 44.8h-172.8zM211.2 281.6l243.2 32v-51.2l-243.2-38.4zM396.8 518.4h-57.6l6.4 70.4h57.6l-6.4-70.4z m-19.2-102.4h-57.6l6.4 64h57.6l-6.4-64z m-19.2-108.8l-57.6-6.4 6.4 70.4h57.6l-6.4-64z m-83.2 326.4l-6.4-44.8h32l-64-352 102.4 19.2-12.8-96h57.6l76.8 428.8h32l6.4 51.2h-224z"  horiz-adv-x="1024" />

    
    <glyph glyph-name="color-ifchange" unicode="&#58916;" d="M896 384c0-213.333333-170.666667-384-384-384s-384 170.666667-384 384 174.933333 384 384 384 384-174.933333 384-384zM273.066667 384c0-140.8 115.2-238.933333 238.933333-238.933333 140.8 0 238.933333 110.933333 238.933333 238.933333 0 25.6-4.266667 51.2-12.8 81.066667 29.866667-140.8-85.333333-234.666667-192-234.666667-76.8 0-145.066667 38.4-179.2 110.933333s-21.333333 153.6 25.6 209.066667c25.6 29.866667 68.266667 64 140.8 72.533333-132.266667 4.266667-260.266667-85.333333-260.266666-238.933333M529.066667 622.933333c42.666667-4.266667 85.333333-29.866667 85.333333-64 0-106.666667-337.066667-46.933333-337.066667-226.133333 0-8.533333 0-25.6 4.266667-38.4 25.6-68.266667 106.666667-153.6 226.133333-153.6 29.866667 0 59.733333 4.266667 81.066667 12.8-72.533333-25.6-149.333333 29.866667-149.333333 106.666667 0 140.8 226.133333 128 226.133333 256 0 29.866667-12.8 59.733333-34.133333 72.533333-25.6 21.333333-72.533333 29.866667-102.4 34.133333"  horiz-adv-x="1024" />

    
    <glyph glyph-name="color-wanke-shangjin" unicode="&#58917;" d="M512 896c281.6 0 512-230.4 512-512s-230.4-512-512-512-512 230.4-512 512 230.4 512 512 512M345.6 563.2h332.8v-128h-332.8v128zM620.8 480v38.4h-217.6v-38.4h217.6zM480 716.8h64v-70.4h64c12.8 19.2 25.6 44.8 32 70.4l64-25.6c-6.4-19.2-19.2-32-25.6-51.2h108.8v-128h-57.6v83.2h-428.8v-83.2h-64v134.4h115.2c-6.4 12.8-19.2 32-32 44.8l57.6 19.2c12.8-19.2 25.6-38.4 38.4-70.4h64v76.8zM716.8 409.6v-179.2h-57.6v121.6h-294.4v-128h-57.6v185.6h409.6zM550.4 236.8c83.2-19.2 160-38.4 230.4-64l-32-51.2c-70.4 32-147.2 51.2-224 70.4l25.6 44.8zM486.4 332.8l57.6-6.4c-6.4-70.4-25.6-121.6-57.6-147.2-32-32-108.8-51.2-224-57.6l-25.6 57.6c102.4 6.4 166.4 19.2 198.4 38.4 25.6 25.6 44.8 64 51.2 115.2z"  horiz-adv-x="1024" />

    
    <glyph glyph-name="color-others" unicode="&#58918;" d="M512 896c281.6 0 512-230.4 512-512s-230.4-512-512-512-512 230.4-512 512 230.4 512 512 512M512 448c-32 0-64-32-64-64s32-64 64-64 64 32 64 64-25.6 64-64 64zM768 448c-38.4 0-64-32-64-64s32-64 64-64c38.4 0 64 32 64 64s-25.6 64-64 64zM256 448c-32 0-64-32-64-64s32-64 64-64 64 32 64 64-25.6 64-64 64z"  horiz-adv-x="1024" />

    
    <glyph glyph-name="color-wanke" unicode="&#58919;" d="M896 384c0-213.333333-170.666667-384-384-384s-384 170.666667-384 384 170.666667 384 384 384 384-170.666667 384-384zM392.533333 554.666667c-8.533333 17.066667-29.866667 25.6-51.2 17.066666-17.066667-8.533333-25.6-29.866667-17.066666-51.2l149.333333-345.6c12.8-29.866667 55.466667-29.866667 68.266667 0l157.866666 345.6c8.533333 21.333333 0 42.666667-17.066666 51.2-21.333333 8.533333-42.666667 0-51.2-21.333333l-123.733334-268.8L392.533333 554.666667zM473.6 170.66666699999996c12.8-29.866667 55.466667-29.866667 68.266667 0l157.866666 345.6c8.533333 21.333333 0 42.666667-17.066666 51.2-21.333333 8.533333-42.666667 0-51.2-21.333334l-123.733334-268.8-42.666666-89.6 8.533333-17.066666z"  horiz-adv-x="1024" />

    
    <glyph glyph-name="color-folder" unicode="&#58920;" d="M558.933333 725.333333l-25.6 59.733334c-4.266667 17.066667-21.333333 25.6-38.4 25.6H85.333333c-25.6 0-42.666667-17.066667-42.666666-42.666667v-768c0-25.6 17.066667-42.666667 42.666666-42.666667h853.333334c25.6 0 42.666667 17.066667 42.666666 42.666667V682.666667c0 25.6-17.066667 42.666667-42.666666 42.666666h-379.733334z"  horiz-adv-x="1024" />

    
    <glyph glyph-name="color-rad_cross" unicode="&#58921;" d="M582.4 384l108.8 108.8c19.2 19.2 19.2 51.2 0 70.4s-51.2 19.2-70.4 0L512 454.4 403.2 563.2c-19.2 19.2-51.2 19.2-70.4 0s-19.2-51.2 0-70.4L441.6 384 332.8 275.20000000000005c-19.2-19.2-19.2-51.2 0-70.4s51.2-19.2 70.4 0L512 313.6l108.8-108.8c19.2-19.2 51.2-19.2 70.4 0 19.2 19.2 19.2 51.2 0 70.4L582.4 384z m153.6-64c44.8-44.8 44.8-115.2 0-160s-115.2-44.8-160 0l-64 64-64-64c-44.8-44.8-115.2-44.8-160 0s-44.8 115.2 0 160l64 64-64 64c-44.8 44.8-44.8 115.2 0 160s115.2 44.8 160 0l64-64 64 64c44.8 44.8 115.2 44.8 160 0s44.8-115.2 0-160l-64-64 64-64zM582.4 384l108.8 108.8c19.2 19.2 19.2 51.2 0 70.4-19.2 19.2-51.2 19.2-70.4 0L512 454.4 403.2 563.2c-19.2 19.2-51.2 19.2-70.4 0s-19.2-51.2 0-70.4L441.6 384 332.8 275.20000000000005c-19.2-19.2-19.2-51.2 0-70.4 19.2-19.2 51.2-19.2 70.4 0L512 313.6l108.8-108.8c19.2-19.2 51.2-19.2 70.4 0 19.2 19.2 19.2 51.2 0 70.4L582.4 384z"  horiz-adv-x="1027" />

    
    <glyph glyph-name="color-buy_folder" unicode="&#58922;" d="M558.933333 725.333333l-25.6 59.733334c-4.266667 17.066667-21.333333 25.6-38.4 25.6H85.333333c-25.6 0-42.666667-17.066667-42.666666-42.666667v-768c0-25.6 17.066667-42.666667 42.666666-42.666667h853.333334c25.6 0 42.666667 17.066667 42.666666 42.666667V682.666667c0 25.6-17.066667 42.666667-42.666666 42.666666h-379.733334zM755.2 507.733333c4.266667 0 4.266667-4.266667 8.533333-4.266666l4.266667-4.266667c4.266667-4.266667 4.266667-8.533333 4.266667-12.8V473.6l-8.533334-21.333333-12.8-34.133334-12.8-34.133333c-4.266667-17.066667-8.533333-25.6-8.533333-29.866667-4.266667-8.533333-4.266667-12.8-8.533333-17.066666s-8.533333-8.533333-8.533334-12.8c-8.533333-4.266667-17.066667-8.533333-25.6-8.533334H392.533333l8.533334-46.933333h277.333333c17.066667 0 25.6-8.533333 25.6-21.333333 0-8.533333 0-12.8-4.266667-17.066667-4.266667-4.266667-8.533333-8.533333-21.333333-8.533333h-298.666667s-4.266667 0-4.266666 4.266666l-12.8 12.8c0 4.266667-4.266667 4.266667-4.266667 8.533334s-4.266667 4.266667-4.266667 8.533333c0 8.533333-4.266667 12.8-4.266666 17.066667l-4.266667 17.066666-4.266667 29.866667-8.533333 42.666667-12.8 42.666666L298.666667 529.066667H256c-4.266667 0-8.533333 0-12.8 4.266666-4.266667 0-8.533333 4.266667-12.8 8.533334 0 4.266667 0 4.266667-4.266667 8.533333V563.2c0 8.533333 4.266667 12.8 8.533334 17.066667 4.266667 0 4.266667 4.266667 8.533333 4.266666h68.266667c8.533333 0 12.8 0 17.066666-4.266666l4.266667-4.266667 4.266667-4.266667c4.266667 4.266667 4.266667 0 4.266666 0l4.266667-8.533333V550.4l4.266667-17.066667 4.266666-21.333333h379.733334c8.533333 0 17.066667 0 21.333333-4.266667zM640 200.53333299999997h8.533333c4.266667 0 8.533333 0 8.533334-4.266666 8.533333-4.266667 12.8-4.266667 17.066666-12.8 4.266667-4.266667 8.533333-8.533333 12.8-17.066667 4.266667-4.266667 4.266667-12.8 4.266667-21.333333v-8.533334c0-4.266667 0-8.533333-4.266667-8.533333-4.266667-4.266667-8.533333-12.8-12.8-17.066667s-8.533333-8.533333-17.066666-8.533333c-4.266667-4.266667-12.8-4.266667-21.333334-4.266667s-12.8 0-21.333333 4.266667-12.8 4.266667-17.066667 8.533333c-4.266667 4.266667-8.533333 12.8-12.8 17.066667s-4.266667 12.8-4.266666 21.333333v8.533334c0 4.266667 0 8.533333 4.266666 8.533333 4.266667 4.266667 4.266667 12.8 12.8 17.066667 0 4.266667 4.266667 4.266667 8.533334 8.533333 4.266667 0 4.266667 4.266667 8.533333 4.266667 0 0 4.266667 0 4.266667 4.266666h21.333333z m-230.4 0c8.533333 0 12.8 0 21.333333-4.266666 4.266667-4.266667 12.8-4.266667 17.066667-12.8l8.533333-8.533334c0-4.266667 4.266667-4.266667 4.266667-8.533333 4.266667-8.533333 4.266667-12.8 4.266667-21.333333s0-12.8-4.266667-17.066667c-4.266667-4.266667-4.266667-12.8-12.8-17.066667-4.266667-4.266667-8.533333-8.533333-17.066667-8.533333-4.266667-4.266667-12.8-4.266667-21.333333-4.266667s-12.8 0-21.333333 4.266667c-4.266667 4.266667-12.8 8.533333-17.066667 12.8-4.266667 4.266667-8.533333 12.8-12.8 17.066667-4.266667 4.266667-4.266667 12.8-4.266667 21.333333s0 12.8 4.266667 21.333333c0 4.266667 4.266667 4.266667 4.266667 8.533334s4.266667 4.266667 4.266666 8.533333l4.266667 4.266667H384l4.266667 4.266666h21.333333z"  horiz-adv-x="1024" />

    
    <glyph glyph-name="color-collection_fol" unicode="&#58923;" d="M558.933333 725.333333H938.666667c25.6 0 42.666667-17.066667 42.666666-42.666666v-682.666667c0-25.6-17.066667-42.666667-42.666666-42.666667H85.333333c-25.6 0-42.666667 17.066667-42.666666 42.666667V768c0 25.6 17.066667 42.666667 42.666666 42.666667h409.6c17.066667 0 34.133333-8.533333 38.4-25.6l25.6-59.733334zM503.466667 183.466667L405.333333 128c-8.533333-4.266667-21.333333 0-29.866666 8.533333-4.266667 4.266667-4.266667 8.533333-4.266667 12.8l17.066667 115.2c0 8.533333 0 12.8-4.266667 17.066667l-81.066667 85.333333c-8.533333 8.533333-8.533333 21.333333 0 29.866667 4.266667 4.266667 8.533333 4.266667 12.8 4.266667L426.666667 426.666667c8.533333 0 12.8 4.266667 17.066666 12.8l51.2 102.4c4.266667 8.533333 17.066667 12.8 25.6 8.533333 4.266667 0 8.533333-4.266667 8.533334-8.533333l51.2-102.4c4.266667-8.533333 8.533333-12.8 17.066666-12.8l110.933334-17.066667c12.8 0 21.333333-12.8 17.066666-25.6 0-4.266667-4.266667-8.533333-4.266666-12.8l-81.066667-85.333333c-4.266667-4.266667-8.533333-12.8-4.266667-17.066667l17.066667-115.2c0-12.8-4.266667-21.333333-17.066667-25.6-4.266667 0-8.533333 0-12.8 4.266667l-98.133333 55.466666c-8.533333 0-17.066667 0-21.333333-4.266666z"  horiz-adv-x="1024" />

    
    <glyph glyph-name="color-e_folder" unicode="&#58924;" d="M558.933333 725.333333H938.666667c25.6 0 42.666667-17.066667 42.666666-42.666666v-682.666667c0-25.6-17.066667-42.666667-42.666666-42.666667H85.333333c-25.6 0-42.666667 17.066667-42.666666 42.666667V768c0 25.6 17.066667 42.666667 42.666666 42.666667h409.6c17.066667 0 34.133333-8.533333 38.4-25.6l25.6-59.733334zM558.933333 226.133333c4.266667 0 4.266667 0 0 0h29.866667c17.066667 0 29.866667-12.8 29.866667-25.6s-12.8-25.6-29.866667-25.6H384c-46.933333 0-85.333333 34.133333-85.333333 72.533334v196.266666C298.666667 477.866667 337.066667 512 384 512h298.666667c46.933333 0 85.333333-34.133333 85.333333-72.533333v-68.266667c0-42.666667-38.4-76.8-85.333333-76.8h-256c-21.333333 0-42.666667-17.066667-42.666667-34.133333 0-21.333333 17.066667-34.133333 42.666667-34.133334h132.266666z m123.733334-29.866666c0 12.8 12.8 25.6 29.866666 25.6h29.866667c17.066667 0 29.866667-12.8 29.866667-25.6s-12.8-25.6-29.866667-25.6h-29.866667c-17.066667 0-29.866667 12.8-29.866666 25.6z m-298.666667 209.066666c0-21.333333 17.066667-34.133333 38.4-34.133333h247.466667c21.333333 0 38.4 17.066667 38.4 34.133333 0 21.333333-17.066667 34.133333-38.4 34.133334H422.4c-21.333333 0-38.4-17.066667-38.4-34.133334z"  horiz-adv-x="1024" />

    
    <glyph glyph-name="color-delivery_folde" unicode="&#58925;" d="M576 725.333333H938.666667c25.6 0 42.666667-17.066667 42.666666-42.666666v-682.666667c0-25.6-17.066667-42.666667-42.666666-42.666667H85.333333c-25.6 0-42.666667 17.066667-42.666666 42.666667V768c0 25.6 17.066667 42.666667 42.666666 42.666667h426.666667c17.066667 0 34.133333-8.533333 38.4-25.6l25.6-59.733334zM384 140.8v64c0 8.533333 12.8 12.8 21.333333 8.533333l59.733334-29.866666c8.533333-4.266667 8.533333-12.8 0-17.066667l-59.733334-38.4c-8.533333-4.266667-21.333333 4.266667-21.333333 12.8m123.733333 85.333333c-8.533333 8.533333-12.8 21.333333-4.266666 29.866667l213.333333 290.133333-277.333333-247.466666c-8.533333-8.533333-21.333333-8.533333-29.866667 0l-102.4 76.8c-12.8 8.533333-8.533333 25.6 0 29.866666L742.4 597.333333c12.8 4.266667 25.6-4.266667 25.6-21.333333l-106.666667-435.2c-4.266667-12.8-17.066667-17.066667-25.6-8.533333l-128 93.866666z"  horiz-adv-x="1024" />

    
    <glyph glyph-name="color-share_folder" unicode="&#58926;" d="M558.933333 725.333333H938.666667c25.6 0 42.666667-17.066667 42.666666-42.666666v-682.666667c0-25.6-17.066667-42.666667-42.666666-42.666667H85.333333c-25.6 0-42.666667 17.066667-42.666666 42.666667V768c0 25.6 17.066667 42.666667 42.666666 42.666667h409.6c17.066667 0 34.133333-8.533333 38.4-25.6l25.6-59.733334zM554.666667 209.066667v-17.066667c0-34.133333 29.866667-64 64-64s64 29.866667 64 64-29.866667 64-64 64c-17.066667 0-34.133333-8.533333-46.933334-21.333333l-157.866666 85.333333c8.533333 12.8 12.8 25.6 12.8 42.666667 0 8.533333-4.266667 21.333333-8.533334 29.866666l153.6 98.133334c12.8-12.8 25.6-17.066667 46.933334-17.066667 34.133333 0 64 29.866667 64 64S652.8 597.333333 618.666667 597.333333 554.666667 567.466667 554.666667 533.333333c0-8.533333 0-12.8 4.266666-21.333333l-157.866666-98.133333c-12.8 8.533333-25.6 12.8-38.4 12.8-34.133333 0-64-29.866667-64-64v-12.8c8.533333-29.866667 34.133333-51.2 64-51.2 8.533333 0 17.066667 0 21.333333 4.266666l170.666667-93.866666z"  horiz-adv-x="1024" />

    
    <glyph glyph-name="color-public_folder" unicode="&#58927;" d="M558.933333 725.333333H938.666667c25.6 0 42.666667-17.066667 42.666666-42.666666v-682.666667c0-25.6-17.066667-42.666667-42.666666-42.666667H85.333333c-25.6 0-42.666667 17.066667-42.666666 42.666667V768c0 25.6 17.066667 42.666667 42.666666 42.666667h409.6c17.066667 0 34.133333-8.533333 38.4-25.6l25.6-59.733334zM277.333333 512h384c12.8 0 21.333333-8.533333 21.333334-21.333333v-34.133334c0-12.8-8.533333-21.333333-21.333334-21.333333h-384c-12.8 0-21.333333 8.533333-21.333333 21.333333v34.133334c0 12.8 8.533333 21.333333 21.333333 21.333333z m0-149.333333h469.333334c12.8 0 21.333333-8.533333 21.333333-21.333334v-34.133333c0-12.8-8.533333-21.333333-21.333333-21.333333h-469.333334c-12.8 0-21.333333 8.533333-21.333333 21.333333V341.333333c0 12.8 8.533333 21.333333 21.333333 21.333334z m0-149.333334h469.333334c12.8 0 21.333333-8.533333 21.333333-21.333333v-34.133333c0-12.8-8.533333-21.333333-21.333333-21.333334h-469.333334c-12.8 0-21.333333 8.533333-21.333333 21.333334v34.133333c0 12.8 8.533333 21.333333 21.333333 21.333333z"  horiz-adv-x="1024" />

    
    <glyph glyph-name="color-upload_folder" unicode="&#58928;" d="M558.933333 725.333333l-25.6 59.733334c-4.266667 17.066667-21.333333 25.6-38.4 25.6H85.333333c-25.6 0-42.666667-17.066667-42.666666-42.666667v-768c0-25.6 17.066667-42.666667 42.666666-42.666667h853.333334c25.6 0 42.666667 17.066667 42.666666 42.666667V682.666667c0 25.6-17.066667 42.666667-42.666666 42.666666h-379.733334zM618.666667 362.666667h55.466666c12.8 0 21.333333 8.533333 21.333334 21.333333 0 4.266667-4.266667 12.8-4.266667 17.066667l-162.133333 162.133333c-8.533333 8.533333-21.333333 8.533333-29.866667 0l-162.133333-162.133333c-8.533333-8.533333-8.533333-21.333333 0-29.866667 4.266667-4.266667 8.533333-4.266667 17.066666-4.266667h55.466667c12.8 0 21.333333-8.533333 21.333333-21.333333v-213.333333c0-12.8 8.533333-21.333333 21.333334-21.333334h128c12.8 0 21.333333 8.533333 21.333333 21.333334v213.333333c-4.266667 8.533333 4.266667 17.066667 17.066667 17.066667z"  horiz-adv-x="1024" />

    
    <glyph glyph-name="color-Linkedin_folde" unicode="&#58929;" d="M558.933333 725.333333H938.666667c25.6 0 42.666667-17.066667 42.666666-42.666666v-682.666667c0-25.6-17.066667-42.666667-42.666666-42.666667H85.333333c-25.6 0-42.666667 17.066667-42.666666 42.666667V768c0 25.6 17.066667 42.666667 42.666666 42.666667h409.6c17.066667 0 34.133333-8.533333 38.4-25.6l25.6-59.733334zM349.866667 597.333333C320 597.333333 298.666667 576 298.666667 546.133333s21.333333-51.2 51.2-51.2 51.2 21.333333 51.2 46.933334c0 34.133333-21.333333 55.466667-51.2 55.466666zM302.933333 170.666667h89.6v285.866666H302.933333V170.666667z m422.4 166.4c0 12.8 0 25.6-4.266666 42.666666-8.533333 38.4-29.866667 72.533333-68.266667 81.066667-38.4 12.8-85.333333 4.266667-110.933333-38.4l-4.266667-4.266667v38.4h-89.6V170.666667h89.6v12.8 153.6c0 8.533333 4.266667 21.333333 8.533333 29.866666 8.533333 17.066667 25.6 25.6 46.933334 21.333334 21.333333-4.266667 29.866667-17.066667 34.133333-34.133334 4.266667-12.8 4.266667-21.333333 4.266667-34.133333V170.666667H725.333333v8.533333 157.866667z"  horiz-adv-x="1024" />

    
    <glyph glyph-name="color-Talent" unicode="&#58930;" d="M102.4 576c-6.4 0-6.4 6.4 0 6.4L512 768l409.6-179.2c6.4 0 6.4-6.4 0-6.4L518.4 396.8H512L102.4 576zM851.2 224l76.8-32c6.4 0 6.4-6.4 0-6.4L518.4 0H512l-416 179.2c-6.4 0-6.4 6.4 0 6.4l76.8 32L256 262.4l256-108.8 256 102.4 83.2-32zM851.2 428.8l76.8-32c6.4 0 6.4-6.4 0-6.4l-409.6-185.6H512L96 384c-6.4 0-6.4 6.4 0 6.4l76.8 32L256 460.8l256-108.8h12.8l256 108.8 70.4-32z"  horiz-adv-x="1024" />

    
    <glyph glyph-name="color-personal_folde" unicode="&#58931;" d="M615.33945 759.779817l-28.183487 65.761467c-9.394495 18.788991-23.486239 28.183486-42.275229 28.183487H93.944954c-28.183486 0-46.972477-18.788991-46.972477-46.972477v-845.504588c0-28.183486 18.788991-46.972477 46.972477-46.972477h939.449541c28.183486 0 46.972477 18.788991 46.972477 46.972477v751.559633c0 28.183486-18.788991 46.972477-46.972477 46.972478h-418.055045zM676.40367 393.394495v37.577982c0 61.06422-51.669725 112.733945-112.733945 112.733945S455.633028 492.036697 455.633028 430.972477v-37.577982h220.770642z m46.972477 0h23.486238c18.788991 0 32.880734-14.091743 32.880734-32.880734v-239.559633c0-18.788991-14.091743-32.880734-32.880734-32.880734H380.477064c-18.788991 0-32.880734 14.091743-32.880734 32.880734v239.559633c0 18.788991 14.091743 32.880734 32.880734 32.880734h32.880734v37.577982c0 84.550459 70.458716 155.009174 155.009174 155.009174s155.009174-70.458716 155.009175-155.009174v-37.577982z"  horiz-adv-x="1127" />

    
    <glyph glyph-name="color-horn" unicode="&#58932;" d="M170.666667 554.666667H85.333333v-256h85.333334zM426.666667 42.66666699999996h-8.533334l-170.666666 42.666666c-21.333333 4.266667-34.133333 21.333333-34.133334 42.666667v213.333333l379.733334-93.866666-132.266667-183.466667c-8.533333-17.066667-21.333333-21.333333-34.133333-21.333333z m-170.666667 243.2V128l170.666667-42.666667 93.866666 132.266667L256 285.866667zM938.666667 85.33333300000004h-85.333334v51.2L213.333333 294.4V576l640 140.8V768h85.333334v-682.666667z m-42.666667 42.666667V682.666667L256 541.866667v-213.333334L896 170.66666699999996v-42.666667z"  horiz-adv-x="1024" />

    
    <glyph glyph-name="color-datagram" unicode="&#58933;" d="M597.333333 21.33333300000004c-8.533333 0-12.8 4.266667-17.066666 8.533334L512 132.26666699999998l-68.266667-102.4c-8.533333-8.533333-21.333333-12.8-29.866666-4.266667-8.533333 8.533333-12.8 21.333333-4.266667 29.866667l85.333333 128c8.533333 12.8 25.6 12.8 34.133334 0l85.333333-128c8.533333-8.533333 4.266667-21.333333-4.266667-29.866667-4.266667-4.266667-8.533333-4.266667-12.8-4.266667zM290.133333 708.266667h448c81.066667 0 149.333333-64 149.333334-145.066667v-277.333333c0-81.066667-64-145.066667-149.333334-145.066667H290.133333c-81.066667 0-149.333333 64-149.333333 145.066667V563.2c0 81.066667 64 145.066667 149.333333 145.066667zM789.333333 128h-554.666666C174.933333 128 128 174.93333299999995 128 234.66666699999996v384C128 678.4 174.933333 725.333333 234.666667 725.333333h554.666666C849.066667 725.333333 896 678.4 896 618.666667v-384c0-59.733333-46.933333-106.666667-106.666667-106.666667zM234.666667 682.666667C200.533333 682.666667 170.666667 652.8 170.666667 618.666667v-384c0-34.133333 29.866667-64 64-64h554.666666c34.133333 0 64 29.866667 64 64v384c0 34.133333-29.866667 64-64 64h-554.666666zM469.333333 298.66666699999996h85.333334v170.666666h-85.333334zM341.333333 298.66666699999996h85.333334v85.333333H341.333333zM597.333333 298.66666699999996h85.333334V554.666667h-85.333334z"  horiz-adv-x="1024" />

    
    <glyph glyph-name="color-ticket" unicode="&#58934;" d="M192 352h640v-396.8c0-12.8-6.4-19.2-19.2-19.2H640c0 70.4-57.6 128-128 128s-128-57.6-128-128H211.2c-12.8 0-19.2 6.4-19.2 19.2V352zM192 416V812.8c0 12.8 6.4 19.2 19.2 19.2H384c0-70.4 57.6-128 128-128s128 57.6 128 128h172.8c12.8 0 19.2-6.4 19.2-19.2v-396.8H192z"  horiz-adv-x="1024" />

    
    <glyph glyph-name="color-lunch" unicode="&#58935;" d="M512 384m-512 0a512 512 0 1 1 1024 0 512 512 0 1 1-1024 0ZM426.666667 290.133333c21.333333-17.066667 25.6-51.2 8.533333-72.533333l-238.933333-285.866667c-25.6-25.6-68.266667-34.133333-93.866667-12.8-29.866667 21.333333-34.133333 64-8.533333 93.866667l260.266666 268.8c17.066667 25.6 46.933333 29.866667 72.533334 8.533333zM802.133333 550.4c17.066667-12.8 21.333333-42.666667 4.266667-64l-179.2-221.866667c-64-76.8-174.933333-93.866667-247.466667-34.133333s-81.066667 170.666667-17.066666 247.466667l179.2 221.866666c17.066667 21.333333 42.666667 25.6 64 8.533334s21.333333-42.666667 4.266666-64L512 524.8c-4.266667-8.533333-4.266667-17.066667 0-25.6s17.066667-4.266667 25.6 4.266667l93.866667 115.2c17.066667 25.6 51.2 29.866667 72.533333 8.533333 21.333333-12.8 21.333333-46.933333 4.266667-72.533333l-93.866667-115.2c-4.266667-8.533333-4.266667-17.066667 0-25.6s17.066667-4.266667 25.6 4.266666l98.133333 119.466667c17.066667 25.6 46.933333 25.6 64 12.8z"  horiz-adv-x="1024" />

    
    <glyph glyph-name="color-moon" unicode="&#58936;" d="M136.533333-25.600000000000023c-264.533333 153.6 89.6 55.466667 302.933334 401.066667S396.8 981.333333 661.333333 827.733333s358.4-469.333333 213.333334-704-477.866667-302.933333-738.133334-149.333333zM110.933333 742.4c-12.8 4.266667-21.333333 21.333333-17.066666 34.133333 4.266667 12.8 21.333333 21.333333 34.133333 17.066667l157.866667-55.466667c21.333333-8.533333 21.333333-38.4 4.266666-46.933333l-128-64 106.666667-34.133333c12.8-4.266667 21.333333-17.066667 17.066667-34.133334-8.533333-12.8-25.6-21.333333-38.4-17.066666L85.333333 601.6c-21.333333 4.266667-25.6 34.133333-4.266666 46.933333l128 64-98.133334 29.866667zM755.2 260.266667c0 17.066667 12.8 34.133333 34.133333 34.133333s34.133333-12.8 34.133334-34.133333c0-98.133333-51.2-166.4-149.333334-200.533334-17.066667-4.266667-34.133333 4.266667-38.4 21.333334s4.266667 34.133333 21.333334 38.4c64 25.6 98.133333 68.266667 98.133333 140.8zM209.066667 384c12.8 0 25.6-12.8 25.6-25.6s-12.8-25.6-25.6-25.6h-128c-12.8 0-25.6 12.8-25.6 25.6s8.533333 25.6 25.6 25.6h128z"  horiz-adv-x="1024" />

    
    <glyph glyph-name="color-coffee" unicode="&#58937;" d="M106.666667 42.66666699999996h597.333333c25.6 0 42.666667-17.066667 42.666667-42.666667s-17.066667-42.666667-42.666667-42.666667h-597.333333c-25.6 0-42.666667 17.066667-42.666667 42.666667s17.066667 42.666667 42.666667 42.666667zM832 234.66666699999996h-170.666667c-102.4 0-192 89.6-192 192s89.6 192 192 192h170.666667c102.4 0 192-89.6 192-192s-89.6-192-192-192z m-170.666667 298.666666C601.6 533.333333 554.666667 486.4 554.666667 426.666667s46.933333-106.666667 106.666666-106.666667h170.666667c59.733333 0 106.666667 46.933333 106.666667 106.666667s-46.933333 106.666667-106.666667 106.666666h-170.666667zM85.333333 810.666667h640c46.933333 0 85.333333-38.4 85.333334-85.333334v-320c0-221.866667-183.466667-405.333333-405.333334-405.333333S0 183.46666700000003 0 405.333333V725.333333c0 46.933333 38.4 85.333333 85.333333 85.333334zM179.2 392.533333c-17.066667 0-34.133333 12.8-34.133333 34.133334V622.933333c0 17.066667 12.8 34.133333 34.133333 34.133334s34.133333-17.066667 34.133333-34.133334V426.666667c0-17.066667-17.066667-34.133333-34.133333-34.133334z"  horiz-adv-x="1024" />

    
    <glyph glyph-name="color-sun" unicode="&#58938;" d="M512.82688 85.33333300000004c-166.4 0-298.666667 132.266667-298.666667 298.666667s132.266667 298.666667 298.666667 298.666667 298.666667-132.266667 298.666667-298.666667-132.266667-298.666667-298.666667-298.666667z m-8.533333 810.666667c17.066667 0 34.133333-12.8 34.133333-34.133333v-64c0-17.066667-12.8-34.133333-34.133333-34.133334-17.066667 0-34.133333 12.8-34.133334 34.133334V861.866667c4.266667 21.333333 17.066667 34.133333 34.133334 34.133333z m328.533333-119.466667c12.8-12.8 17.066667-34.133333 4.266667-46.933333l-42.666667-51.2c-12.8-12.8-29.866667-17.066667-46.933333-4.266667-12.8 12.8-17.066667 34.133333-4.266667 46.933334l42.666667 51.2c17.066667 12.8 34.133333 12.8 46.933333 4.266666z m174.933333-311.466666c4.266667-17.066667-8.533333-34.133333-25.6-38.4l-64-12.8c-17.066667-4.266667-34.133333 8.533333-38.4 25.6-4.266667 17.066667 8.533333 34.133333 25.6 38.4l64 12.8c21.333333 4.266667 38.4-4.266667 38.4-25.6z m-59.733333-349.866667c-8.533333-17.066667-29.866667-21.333333-42.666667-12.8l-55.466666 34.133333c-17.066667 8.533333-21.333333 29.866667-12.8 42.666667 8.533333 17.066667 29.866667 21.333333 42.666666 12.8l55.466667-34.133333c17.066667-4.266667 21.333333-25.6 12.8-42.666667z m-268.8-226.133333c-17.066667-4.266667-34.133333 4.266667-42.666667 21.333333l-21.333333 59.733333c-4.266667 17.066667 4.266667 34.133333 17.066667 42.666667 17.066667 4.266667 34.133333-4.266667 42.666666-21.333333l21.333334-59.733334c8.533333-17.066667 0-38.4-17.066667-42.666666z m-349.866667 0c-17.066667 4.266667-25.6 25.6-17.066666 42.666666l21.333333 59.733334c4.266667 17.066667 25.6 25.6 42.666667 21.333333 17.066667-4.266667 25.6-25.6 17.066666-42.666667l-21.333333-59.733333c-8.533333-21.333333-25.6-29.866667-42.666667-21.333333z m-268.8 226.133333c-8.533333 17.066667-4.266667 34.133333 12.8 42.666667l55.466667 34.133333c17.066667 8.533333 34.133333 4.266667 42.666667-12.8 8.533333-17.066667 4.266667-34.133333-12.8-42.666667l-55.466667-34.133333c-12.8-4.266667-34.133333 0-42.666667 12.8zM0.82688 465.066667c4.266667 17.066667 21.333333 29.866667 38.4 25.6l64-12.8c17.066667 0 25.6-17.066667 25.6-34.133334-4.266667-17.066667-21.333333-29.866667-38.4-25.6l-64 12.8c-17.066667 0-29.866667 17.066667-25.6 34.133334z m174.933333 311.466666c12.8 12.8 34.133333 8.533333 46.933334-4.266666l42.666666-51.2c8.533333-12.8 8.533333-34.133333-8.533333-46.933334s-29.866667-8.533333-42.666667 4.266667L171.493547 729.6c-8.533333 12.8-8.533333 34.133333 4.266666 46.933333z"  horiz-adv-x="1024" />

    
    <glyph glyph-name="color-work_am" unicode="&#58939;" d="M426.666667 85.33333300000004h170.666666v-170.666666h-170.666666zM42.666667 810.666667h938.666666c25.6 0 42.666667-17.066667 42.666667-42.666667v-640c0-25.6-17.066667-42.666667-42.666667-42.666667H42.666667c-25.6 0-42.666667 17.066667-42.666667 42.666667V768c0 25.6 17.066667 42.666667 42.666667 42.666667zM298.666667 0h426.666666v-85.333333H298.666667zM682.666667 618.666667h85.333333c12.8 0 21.333333-8.533333 21.333333-21.333334v-298.666666c0-12.8-8.533333-21.333333-21.333333-21.333334h-85.333333c-12.8 0-21.333333 8.533333-21.333334 21.333334V597.333333c0 12.8 8.533333 21.333333 21.333334 21.333334z m-213.333334-170.666667h85.333334c12.8 0 21.333333-8.533333 21.333333-21.333333v-128c0-12.8-8.533333-21.333333-21.333333-21.333334h-85.333334c-12.8 0-21.333333 8.533333-21.333333 21.333334v128c0 12.8 8.533333 21.333333 21.333333 21.333333z m-213.333333 85.333333h85.333333c12.8 0 21.333333-8.533333 21.333334-21.333333v-213.333333c0-12.8-8.533333-21.333333-21.333334-21.333334H256c-12.8 0-21.333333 8.533333-21.333333 21.333334V512c0 12.8 8.533333 21.333333 21.333333 21.333333z"  horiz-adv-x="1024" />

    
    <glyph glyph-name="color-work_pm" unicode="&#58940;" d="M426.666667 106.66666699999996h170.666666v-170.666667h-170.666666zM42.666667 810.666667h938.666666c25.6 0 42.666667-17.066667 42.666667-42.666667v-640c0-25.6-17.066667-42.666667-42.666667-42.666667H42.666667c-25.6 0-42.666667 17.066667-42.666667 42.666667V768c0 25.6 17.066667 42.666667 42.666667 42.666667zM298.666667 0h426.666666v-85.333333H298.666667zM682.666667 618.666667h85.333333c12.8 0 21.333333-8.533333 21.333333-21.333334v-298.666666c0-12.8-8.533333-21.333333-21.333333-21.333334h-85.333333c-12.8 0-21.333333 8.533333-21.333334 21.333334V597.333333c0 12.8 8.533333 21.333333 21.333334 21.333334z m-213.333334-170.666667h85.333334c12.8 0 21.333333-8.533333 21.333333-21.333333v-128c0-12.8-8.533333-21.333333-21.333333-21.333334h-85.333334c-12.8 0-21.333333 8.533333-21.333333 21.333334v128c0 12.8 8.533333 21.333333 21.333333 21.333333z m-213.333333 85.333333h85.333333c12.8 0 21.333333-8.533333 21.333334-21.333333v-213.333333c0-12.8-8.533333-21.333333-21.333334-21.333334H256c-12.8 0-21.333333 8.533333-21.333333 21.333334V512c0 12.8 8.533333 21.333333 21.333333 21.333333z"  horiz-adv-x="1024" />

    
    <glyph glyph-name="color-nav_archives" unicode="&#58941;" d="M512 870.4c268.8 0 486.4-217.6 486.4-486.4s-217.6-486.4-486.4-486.4S25.6 115.2 25.6 384 243.2 870.4 512 870.4zM307.2 614.4h409.6c15.36 0 25.6-10.24 25.6-25.6v-110.08H281.6V588.8c0 15.36 10.24 25.6 25.6 25.6z m56.32-53.76c-7.68 0-12.8-5.12-12.8-12.8v-2.56c0-7.68 5.12-12.8 12.8-12.8h66.56c7.68 0 12.8 5.12 12.8 12.8v2.56c0 7.68-5.12 12.8-12.8 12.8h-66.56zM281.6 450.56h460.8v-135.68H281.6zM281.6 289.28h460.8V179.2c0-15.36-10.24-25.6-25.6-25.6H307.2c-15.36 0-25.6 10.24-25.6 25.6v110.08z m58.88-53.76c-7.68 0-12.8-5.12-12.8-12.8v-2.56c0-7.68 5.12-12.8 12.8-12.8h66.56c7.68 0 12.8 5.12 12.8 12.8v2.56c0 7.68-5.12 12.8-12.8 12.8h-66.56z"  horiz-adv-x="1024" />

    
    <glyph glyph-name="color-nav_brand" unicode="&#58942;" d="M512 870.4c268.8 0 486.4-217.6 486.4-486.4s-217.6-486.4-486.4-486.4S25.6 115.2 25.6 384 243.2 870.4 512 870.4zM509.44 652.8c0-58.88 181.76-120.32 240.64-120.32 0-199.68-79.36-340.48-240.64-417.28-158.72 79.36-240.64 217.6-240.64 417.28 61.44 0 240.64 61.44 240.64 120.32zM509.44 652.8c0-58.88 181.76-120.32 240.64-120.32 0-199.68-79.36-340.48-240.64-417.28v537.6zM611.84 458.24c10.24 10.24 23.04 10.24 33.28 0s10.24-23.04 0-33.28l-125.44-125.44c-10.24-10.24-23.04-10.24-33.28 0l-61.44 61.44c-10.24 10.24-10.24 23.04 0 33.28s23.04 10.24 33.28 0l43.52-43.52 110.08 107.52z"  horiz-adv-x="1024" />

    
    <glyph glyph-name="color-nav_computer" unicode="&#58943;" d="M512 870.4c268.8 0 486.4-217.6 486.4-486.4s-217.6-486.4-486.4-486.4S25.6 115.2 25.6 384 243.2 870.4 512 870.4zM750.08 332.8h23.04c12.8 0 23.04-10.24 23.04-20.48v-76.8c0-12.8-10.24-20.48-23.04-20.48h-23.04V332.8zM273.92 332.8v-120.32h-20.48c-12.8 0-23.04 10.24-23.04 20.48v76.8c0 12.8 10.24 23.04 23.04 23.04h20.48zM522.24 535.04c117.76-5.12 212.48-99.84 212.48-217.6v-107.52C688.64 138.24 611.84 102.4 512 102.4s-176.64 35.84-222.72 107.52v107.52c0 115.2 94.72 209.92 212.48 217.6v46.08c-20.48 5.12-33.28 23.04-33.28 40.96 0 23.04 17.92 43.52 43.52 43.52s43.52-20.48 43.52-43.52c0-20.48-15.36-38.4-33.28-40.96v-46.08z m-122.88-171.52c-12.8 0-23.04-10.24-23.04-20.48v-43.52c0-12.8 10.24-20.48 23.04-20.48h222.72c12.8 0 23.04 10.24 23.04 20.48v43.52c0 12.8-10.24 20.48-23.04 20.48h-222.72z"  horiz-adv-x="1024" />

    
    <glyph glyph-name="color-nav_recommend" unicode="&#58944;" d="M512 870.4c268.8 0 486.4-217.6 486.4-486.4s-217.6-486.4-486.4-486.4S25.6 115.2 25.6 384 243.2 870.4 512 870.4zM345.6 627.2h332.8c28.16 0 51.2-23.04 51.2-51.2v-399.36c0-28.16-23.04-51.2-51.2-51.2-5.12 0-12.8 0-17.92 2.56L563.2 163.84c-33.28 12.8-71.68 12.8-104.96 0L363.52 128c-25.6-10.24-56.32 5.12-66.56 30.72-2.56 5.12-2.56 10.24-2.56 17.92V576c0 28.16 23.04 51.2 51.2 51.2zM512 627.2h166.4c28.16 0 51.2-23.04 51.2-51.2v-399.36c0-28.16-23.04-51.2-51.2-51.2-5.12 0-12.8 0-17.92 2.56L512 181.76V627.2zM506.88 307.2l-53.76-28.16c-5.12-2.56-12.8 0-17.92 5.12 0 2.56-2.56 5.12 0 7.68l10.24 56.32c0 5.12 0 7.68-2.56 10.24l-43.52 40.96c-5.12 5.12-5.12 12.8 0 17.92 2.56 2.56 5.12 2.56 7.68 5.12l58.88 7.68c5.12 0 7.68 2.56 10.24 7.68l28.16 53.76c2.56 5.12 10.24 7.68 17.92 5.12 2.56 0 5.12-2.56 5.12-5.12l28.16-53.76c2.56-2.56 5.12-5.12 10.24-7.68l58.88-7.68c7.68 0 12.8-7.68 10.24-15.36 0-2.56-2.56-5.12-5.12-7.68L586.24 358.4c-2.56-2.56-5.12-7.68-2.56-10.24l10.24-56.32c0-7.68-2.56-12.8-10.24-15.36h-7.68L517.12 307.2h-10.24z"  horiz-adv-x="1024" />

    
    <glyph glyph-name="color-nav_statement" unicode="&#58945;" d="M512 870.4c268.8 0 486.4-217.6 486.4-486.4s-217.6-486.4-486.4-486.4S25.6 115.2 25.6 384 243.2 870.4 512 870.4zM332.8 640h358.4c20.48 0 38.4-17.92 38.4-38.4v-435.2c0-20.48-17.92-38.4-38.4-38.4H332.8c-20.48 0-38.4 17.92-38.4 38.4v435.2c0 20.48 17.92 38.4 38.4 38.4zM512 640h179.2c20.48 0 38.4-17.92 38.4-38.4v-435.2c0-20.48-17.92-38.4-38.4-38.4h-179.2V640zM396.8 512h230.4c7.68 0 12.8-5.12 12.8-12.8v-10.24c0-7.68-5.12-12.8-12.8-12.8h-230.4c-7.68 0-12.8 5.12-12.8 12.8v10.24c0 7.68 5.12 12.8 12.8 12.8zM396.8 419.84h204.8c7.68 0 12.8-5.12 12.8-12.8v-10.24c0-7.68-5.12-12.8-12.8-12.8h-204.8c-7.68 0-12.8 5.12-12.8 12.8v10.24c0 7.68 5.12 12.8 12.8 12.8zM524.8 281.6h102.4c7.68 0 12.8-5.12 12.8-12.8v-10.24c0-7.68-5.12-12.8-12.8-12.8h-102.4c-7.68 0-12.8 5.12-12.8 12.8v10.24c0 7.68 5.12 12.8 12.8 12.8z"  horiz-adv-x="1024" />

    
    <glyph glyph-name="color-nav_map" unicode="&#58946;" d="M512 870.4c268.8 0 486.4-217.6 486.4-486.4s-217.6-486.4-486.4-486.4S25.6 115.2 25.6 384 243.2 870.4 512 870.4zM504.32 133.12c133.12 117.76 199.68 215.04 199.68 286.72 0 110.08-89.6 199.68-199.68 199.68s-199.68-89.6-199.68-199.68c0-71.68 66.56-168.96 199.68-286.72zM504.32 133.12c133.12 117.76 199.68 215.04 199.68 286.72 0 110.08-89.6 199.68-199.68 199.68v-486.4zM448 419.84a56.32 56.32 0 1 1 112.64 0 56.32 56.32 0 1 1-112.64 0Z"  horiz-adv-x="1024" />

    
    <glyph glyph-name="color-nav_service" unicode="&#58947;" d="M512 870.4c268.8 0 486.4-217.6 486.4-486.4s-217.6-486.4-486.4-486.4S25.6 115.2 25.6 384 243.2 870.4 512 870.4zM496.64 660.48c-71.68 0-117.76-56.32-117.76-143.36 0-28.16 10.24-51.2 30.72-79.36 5.12-5.12 17.92-23.04 20.48-25.6 7.68-10.24 12.8-17.92 12.8-25.6 7.68-28.16-12.8-46.08-53.76-53.76-81.92-33.28-122.88-71.68-125.44-112.64-2.56-51.2 74.24-74.24 232.96-69.12 158.72-2.56 235.52 17.92 232.96 69.12-2.56 40.96-43.52 79.36-122.88 112.64-40.96 10.24-64 28.16-53.76 56.32 2.56 7.68 7.68 15.36 12.8 25.6 2.56 2.56 15.36 20.48 20.48 25.6 20.48 28.16 30.72 51.2 30.72 79.36-2.56 84.48-48.64 140.8-120.32 140.8zM872.96 384c-30.72 30.72-79.36 30.72-110.08 0L691.2 312.32l-5.12 7.68c-30.72 30.72-81.92 30.72-110.08 0-30.72-30.72-30.72-79.36 0-110.08l61.44-61.44c15.36-15.36 35.84-23.04 56.32-23.04 20.48 0 40.96 7.68 56.32 23.04l125.44 125.44c28.16 30.72 28.16 79.36-2.56 110.08zM798.72 348.16c10.24 10.24 28.16 10.24 38.4 0s10.24-28.16 0-38.4l-125.44-125.44c-10.24-10.24-28.16-10.24-38.4 0l-61.44 61.44c-10.24 10.24-10.24 28.16 0 38.4s28.16 10.24 38.4 0l40.96-40.96 107.52 104.96z"  horiz-adv-x="1024" />

    
    <glyph glyph-name="color-nav_departure" unicode="&#58948;" d="M512 870.4c268.8 0 486.4-217.6 486.4-486.4s-217.6-486.4-486.4-486.4S25.6 115.2 25.6 384 243.2 870.4 512 870.4zM496.64 655.36c-71.68 0-117.76-56.32-117.76-143.36 0-28.16 10.24-51.2 30.72-79.36 5.12-5.12 17.92-23.04 20.48-25.6 7.68-10.24 12.8-17.92 12.8-25.6 7.68-28.16-12.8-46.08-53.76-56.32-79.36-30.72-120.32-69.12-122.88-112.64-2.56-51.2 74.24-74.24 232.96-69.12 156.16-2.56 232.96 17.92 230.4 69.12-2.56 40.96-43.52 79.36-122.88 112.64-40.96 10.24-61.44 28.16-53.76 56.32 2.56 7.68 7.68 15.36 12.8 25.6 2.56 2.56 15.36 20.48 20.48 25.6 20.48 28.16 30.72 51.2 30.72 79.36 0 87.04-46.08 143.36-120.32 143.36zM832 209.92l-61.44 66.56c-28.16 28.16-74.24 28.16-99.84 0-10.24-10.24-15.36-20.48-15.36-38.4h-110.08c-38.4 0-71.68-33.28-71.68-74.24 0-40.96 33.28-74.24 71.68-74.24h245.76c20.48 2.56 35.84 10.24 48.64 25.6 10.24 12.8 17.92 30.72 15.36 48.64 0 15.36-10.24 33.28-23.04 46.08zM545.28 184.32c-10.24 0-20.48-10.24-20.48-23.04 0-10.24 7.68-23.04 20.48-23.04h240.64c10.24 0 17.92 10.24 17.92 23.04 0 5.12-2.56 10.24-5.12 12.8L793.6 179.2l-58.88 56.32c-7.68 7.68-20.48 7.68-28.16 0-2.56-2.56-2.56-17.92 0-51.2h-161.28z"  horiz-adv-x="1024" />

    
    <glyph glyph-name="color-nav_flow" unicode="&#58949;" d="M512 870.4c268.8 0 486.4-217.6 486.4-486.4s-217.6-486.4-486.4-486.4S25.6 115.2 25.6 384 243.2 870.4 512 870.4zM512 588.8m-76.8 0a76.8 76.8 0 1 1 153.6 0 76.8 76.8 0 1 1-153.6 0ZM491.52 537.6h40.96v-332.8h-40.96zM701.44 204.8v102.4c0 33.28-28.16 61.44-61.44 61.44H384c-33.28 0-61.44-28.16-61.44-61.44v-102.4H281.6v102.4c0 56.32 46.08 102.4 102.4 102.4h256c56.32 0 102.4-46.08 102.4-102.4v-102.4h-40.96z m0 0v102.4c0 33.28-28.16 61.44-61.44 61.44H384c-33.28 0-61.44-28.16-61.44-61.44v-102.4H281.6v102.4c0 56.32 46.08 102.4 102.4 102.4h256c56.32 0 102.4-46.08 102.4-102.4v-102.4h-40.96zM491.52 256h40.96v-51.2h-40.96zM701.44 256H742.4v-51.2h-40.96zM281.6 256h40.96v-51.2H281.6zM302.08 179.2m-56.32 0a56.32 56.32 0 1 1 112.64 0 56.32 56.32 0 1 1-112.64 0ZM512 179.2m-56.32 0a56.32 56.32 0 1 1 112.64 0 56.32 56.32 0 1 1-112.64 0ZM721.92 179.2m-56.32 0a56.32 56.32 0 1 1 112.64 0 56.32 56.32 0 1 1-112.64 0Z"  horiz-adv-x="1024" />

    
    <glyph glyph-name="color-nav_forecast" unicode="&#58950;" d="M512 870.4c268.8 0 486.4-217.6 486.4-486.4s-217.6-486.4-486.4-486.4S25.6 115.2 25.6 384 243.2 870.4 512 870.4zM512 153.6c-128 0-230.4 102.4-230.4 230.4s102.4 230.4 230.4 230.4 230.4-102.4 230.4-230.4-102.4-230.4-230.4-230.4z m0 384c-84.48 0-153.6-69.12-153.6-153.6s69.12-153.6 153.6-153.6 153.6 69.12 153.6 153.6-69.12 153.6-153.6 153.6zM512 145.92c-130.56 0-235.52 104.96-235.52 235.52s104.96 235.52 235.52 235.52c25.6 0 46.08-20.48 46.08-46.08s-20.48-40.96-46.08-40.96c-79.36 0-148.48-66.56-148.48-145.92s66.56-148.48 148.48-148.48c79.36 0 148.48 66.56 148.48 148.48 0 25.6 20.48 46.08 46.08 46.08s46.08-20.48 46.08-46.08c-5.12-130.56-110.08-238.08-240.64-238.08z"  horiz-adv-x="1024" />

    
    <glyph glyph-name="color-wanke-search" unicode="&#58951;" d="M512 870.4c268.8 0 486.4-217.6 486.4-486.4s-217.6-486.4-486.4-486.4S25.6 115.2 25.6 384 243.2 870.4 512 870.4zM732.16 207.36l-84.48 84.48c25.6 33.28 38.4 74.24 38.4 120.32 0 112.64-89.6 202.24-202.24 202.24S281.6 524.8 281.6 412.16s89.6-202.24 202.24-202.24c43.52 0 87.04 15.36 120.32 38.4l84.48-84.48c12.8-12.8 33.28-12.8 43.52 0 12.8 10.24 12.8 30.72 0 43.52m-248.32 58.88c-79.36 0-145.92 64-145.92 145.92s64 145.92 145.92 145.92 145.92-64 145.92-145.92c0-28.16-7.68-53.76-23.04-76.8l-2.56 2.56-43.52-43.52 2.56-2.56c-23.04-17.92-51.2-25.6-79.36-25.6M486.4 409.6m-153.6 0a153.6 153.6 0 1 1 307.2 0 153.6 153.6 0 1 1-307.2 0Z"  horiz-adv-x="1024" />

    
    <glyph glyph-name="color-wanke-internal" unicode="&#58952;" d="M512 870.4c268.8 0 486.4-217.6 486.4-486.4s-217.6-486.4-486.4-486.4S25.6 115.2 25.6 384 243.2 870.4 512 870.4zM512 640c140.8 0 256-115.2 256-256s-115.2-256-256-256-256 115.2-256 256 115.2 256 256 256zM512 128c140.8 0 256 115.2 256 256s-115.2 256-256 256v-512zM509.44 522.24c-43.52 0-69.12-33.28-69.12-84.48 0-17.92 5.12-30.72 17.92-48.64 2.56-2.56 10.24-12.8 12.8-15.36 5.12-5.12 7.68-10.24 7.68-15.36 5.12-15.36-7.68-28.16-30.72-33.28-48.64-20.48-71.68-43.52-74.24-66.56-2.56-30.72 43.52-43.52 138.24-40.96 94.72-2.56 138.24 10.24 138.24 40.96-2.56 25.6-25.6 48.64-74.24 66.56-25.6 5.12-38.4 17.92-33.28 33.28 2.56 5.12 5.12 7.68 7.68 15.36 2.56 2.56 10.24 12.8 12.8 15.36 12.8 15.36 17.92 30.72 17.92 48.64-2.56 51.2-30.72 84.48-71.68 84.48z"  horiz-adv-x="1024" />

    
    <glyph glyph-name="color-wanke-college" unicode="&#58953;" d="M512 870.4c268.8 0 486.4-217.6 486.4-486.4s-217.6-486.4-486.4-486.4S25.6 115.20000000000005 25.6 384 243.2 870.4 512 870.4zM783.36 458.24h5.12v-207.36h-35.84v194.56l-217.6-84.48c-12.8-5.12-35.84-5.12-48.64 0l-243.2 94.72c-25.6 10.24-25.6 25.6 0 35.84l243.2 94.72c12.8 5.12 35.84 5.12 48.64 0l243.2-94.72c25.6-10.24 25.6-25.6 5.12-33.28z m-99.84-79.36v-135.68c0-38.4-76.8-69.12-171.52-69.12s-171.52 30.72-171.52 69.12v135.68l148.48-58.88c12.8-5.12 33.28-5.12 48.64 0l145.92 58.88zM793.6 481.28c-2.56 2.56-7.68 7.68-15.36 10.24l-243.2 94.72c-5.12 2.56-15.36 2.56-23.04 2.56v-230.4c7.68 0 17.92 2.56 23.04 2.56l217.6 84.48v-194.56h35.84v207.36h-5.12c5.12 2.56 7.68 2.56 10.24 5.12v17.92z m-281.6-163.84v-143.36c94.72 0 171.52 30.72 171.52 69.12v135.68L537.6 320c-7.68-2.56-17.92-5.12-25.6-2.56z"  horiz-adv-x="1024" />

    
    <glyph glyph-name="color-candidate" unicode="&#58954;" d="M512 870.4c268.8 0 486.4-217.6 486.4-486.4s-217.6-486.4-486.4-486.4S25.6 115.2 25.6 384 243.2 870.4 512 870.4zM512 640c-71.68 0-117.76-56.32-117.76-143.36 0-28.16 10.24-51.2 30.72-79.36 5.12-5.12 17.92-23.04 20.48-25.6 7.68-10.24 12.8-17.92 12.8-25.6 7.68-28.16-12.8-46.08-53.76-56.32-81.92-33.28-122.88-71.68-125.44-112.64-2.56-51.2 74.24-74.24 232.96-69.12 156.16-2.56 232.96 17.92 230.4 69.12-2.56 40.96-43.52 79.36-122.88 112.64-40.96 10.24-61.44 28.16-53.76 56.32 2.56 7.68 7.68 15.36 12.8 25.6 2.56 2.56 15.36 20.48 20.48 25.6 20.48 28.16 30.72 51.2 30.72 79.36 2.56 87.04-43.52 143.36-117.76 143.36zM716.8 204.8m-102.4 0a102.4 102.4 0 1 1 204.8 0 102.4 102.4 0 1 1-204.8 0ZM716.8 76.8c-71.68 0-128 56.32-128 128s56.32 128 128 128 128-56.32 128-128-56.32-128-128-128z m0 204.8c-43.52 0-76.8-33.28-76.8-76.8s33.28-76.8 76.8-76.8 76.8 33.28 76.8 76.8-33.28 76.8-76.8 76.8zM716.8 204.8m-25.6 0a25.6 25.6 0 1 1 51.2 0 25.6 25.6 0 1 1-51.2 0Z"  horiz-adv-x="1024" />

    
    <glyph glyph-name="color-wanke-report" unicode="&#58955;" d="M512 870.4c268.8 0 486.4-217.6 486.4-486.4s-217.6-486.4-486.4-486.4S25.6 115.2 25.6 384 243.2 870.4 512 870.4zM358.4 640h309.76c28.16 0 51.2-23.04 51.2-51.2v-376.32c0-28.16-23.04-51.2-51.2-51.2-5.12 0-12.8 0-17.92 2.56l-84.48 30.72c-33.28 12.8-71.68 12.8-104.96 0l-84.48-30.72c-25.6-10.24-56.32 5.12-66.56 30.72-2.56 7.68-2.56 12.8-2.56 17.92V588.8c0 28.16 23.04 51.2 51.2 51.2zM524.8 640h153.6c28.16 0 51.2-23.04 51.2-51.2v-376.32c0-28.16-23.04-51.2-51.2-51.2-5.12 0-12.8 0-17.92 2.56l-135.68 51.2V640zM417.28 517.12h215.04c7.68 0 12.8-5.12 12.8-12.8v-7.68c0-7.68-5.12-12.8-12.8-12.8h-215.04c-7.68 0-12.8 5.12-12.8 12.8v7.68c0 7.68 5.12 12.8 12.8 12.8zM417.28 419.84h215.04c7.68 0 12.8-5.12 12.8-12.8v-7.68c0-7.68-5.12-12.8-12.8-12.8h-215.04c-7.68 0-12.8 5.12-12.8 12.8v7.68c0 7.68 5.12 12.8 12.8 12.8z"  horiz-adv-x="1024" />

    
    <glyph glyph-name="color-public_opinion" unicode="&#58956;" d="M512 870.4c268.8 0 486.4-217.6 486.4-486.4s-217.6-486.4-486.4-486.4S25.6 115.2 25.6 384 243.2 870.4 512 870.4zM307.2 588.8h409.6c20.48 0 38.4-17.92 38.4-38.4v-307.2c0-20.48-17.92-38.4-38.4-38.4h-92.16c-30.72 0-58.88-12.8-79.36-35.84l-12.8-15.36c-10.24-10.24-25.6-12.8-35.84-2.56l-2.56 2.56-12.8 15.36a104.96 104.96 0 0 1-79.36 35.84H307.2c-20.48 0-38.4 17.92-38.4 38.4v307.2c0 20.48 17.92 38.4 38.4 38.4z m97.28-140.8c-10.24 0-20.48-7.68-20.48-20.48s7.68-20.48 20.48-20.48h140.8c10.24 0 20.48 7.68 20.48 20.48s-7.68 20.48-20.48 20.48h-140.8z m0-89.6c-10.24 0-20.48-7.68-20.48-20.48s7.68-20.48 20.48-20.48h243.2c10.24 0 20.48 7.68 20.48 20.48s-10.24 20.48-23.04 20.48h-240.64z"  horiz-adv-x="1024" />

    
    <glyph glyph-name="color-appraisal" unicode="&#58957;" d="M512 870.4c268.8 0 486.4-217.6 486.4-486.4s-217.6-486.4-486.4-486.4S25.6 115.2 25.6 384 243.2 870.4 512 870.4zM384 609.28c-15.36 0-25.6-10.24-25.6-25.6v-314.88c0-7.68 2.56-15.36 5.12-17.92h296.96c2.56 2.56 2.56 10.24 5.12 17.92V583.68c0 15.36-10.24 25.6-25.6 25.6H384zM588.8 609.28v-358.4h-225.28c-2.56 2.56-2.56 10.24-5.12 17.92V583.68c0 15.36 10.24 25.6 25.6 25.6h204.8zM435.2 609.28v-358.4h-71.68c-2.56 2.56-2.56 10.24-5.12 17.92V583.68c0 15.36 10.24 25.6 25.6 25.6h51.2zM363.52 250.88c2.56-2.56 5.12-7.68 7.68-12.8l122.88-122.88c10.24-10.24 25.6-10.24 35.84 0l122.88 122.88c5.12 5.12 7.68 10.24 7.68 12.8H363.52zM363.52 250.88c2.56-2.56 5.12-7.68 7.68-12.8l125.44-125.44c7.68-5.12 15.36-7.68 23.04-5.12v2.56l69.12 140.8h-225.28zM371.2 238.08l117.76-117.76 5.12-5.12c5.12-5.12 10.24-7.68 15.36-7.68-7.68 10.24-10.24 17.92-10.24 17.92L435.2 250.88h-71.68c0-2.56 2.56-7.68 7.68-12.8z"  horiz-adv-x="1024" />

    
    <glyph glyph-name="color-Sharing-folder" unicode="&#58958;" d="M558.933333 725.333333H938.666667c25.6 0 42.666667-17.066667 42.666666-42.666666v-682.666667c0-25.6-17.066667-42.666667-42.666666-42.666667H85.333333c-25.6 0-42.666667 17.066667-42.666666 42.666667V768c0 25.6 17.066667 42.666667 42.666666 42.666667h409.6c17.066667 0 34.133333-8.533333 38.4-25.6l25.6-59.733334zM550.4 204.79999999999995L388.266667 298.66666699999996c-8.533333-4.266667-21.333333-4.266667-25.6-4.266667-34.133333 0-59.733333 21.333333-68.266667 51.2v8.533333 8.533334c0 38.4 29.866667 68.266667 68.266667 68.266666 12.8 0 25.6-4.266667 38.4-12.8L550.4 512c0 4.266667-4.266667 12.8-4.266667 17.066667 0 38.4 29.866667 68.266667 68.266667 68.266666s68.266667-29.866667 68.266667-68.266666-29.866667-68.266667-68.266667-68.266667c-17.066667 0-34.133333 4.266667-46.933333 17.066667L426.666667 388.266667c4.266667-8.533333 4.266667-17.066667 4.266666-25.6 0-12.8-4.266667-25.6-8.533333-34.133334 0 0 46.933333-29.866667 145.066667-85.333333 12.8 12.8 29.866667 21.333333 51.2 21.333333 38.4 0 68.266667-29.866667 68.266666-68.266666 0-38.4-29.866667-68.266667-68.266666-68.266667s-68.266667 29.866667-68.266667 68.266667v8.533333z"  horiz-adv-x="1024" />

    


  </font>
</defs>
</svg>
